<svg xmlns="http://www.w3.org/2000/svg" viewBox="0 0 741.47 1968.56"><defs><style>.cls-1{fill:#4d8a69;}</style></defs><g id="Layer_2" data-name="Layer 2"><g id="Draw_Layer" data-name="Draw Layer"><path class="cls-1" d="M269.9,1484.11c-6.84-11.57-13.3-23-20.66-33.77-5.86-8.59-12.81-16.42-19.28-24.58-7.73-9.73-17.41-17.26-27.61-24.11-12.47-8.39-25.94-13.85-41.22-15.27-18.48-1.71-34.43,3.93-48.95,14.57-18.61,13.64-30.35,32.63-39.93,53A236.13,236.13,0,0,0,56,1502c-2.6,11.45-4.09,23.14-6.11,34.72-3.06,17.52-3.24,35.24-2.36,52.85.81,16.3,2.41,32.63,6.62,48.54,1.3,4.91,2.34,9.88,3.41,14.85a6,6,0,0,1-.45,2.24,11.75,11.75,0,0,0-.38-2,201.49,201.49,0,0,1-11-44.62c-1.47-11.32-2.41-22.72-3.46-34.09-.46-5-1.11-10.07-.78-15,.84-12.67,2.05-25.32,3.35-38,2-19.4,7.16-38.06,13.66-56.38s14.36-35.77,26.17-51.2c11.19-14.62,25.38-25.36,43.31-30.51a90.06,90.06,0,0,1,32.24-3.67,119.8,119.8,0,0,1,42.47,11,135.18,135.18,0,0,1,31.85,21.38c16.46,14.74,29,32.33,39.71,51.49a338.18,338.18,0,0,1,23.91,53c4.38,12.45,9.19,24.78,12.95,37.42,5.5,18.46,10.5,37.07,15.22,55.75,3.57,14.14,6.59,28.43,9.42,42.74,2.11,10.63,3.45,21.4,5.23,32.09,1.93,11.6,4.14,23.15,5.93,34.76,1.39,9,2.26,18.18,3.49,27.25,1.34,9.83,2.94,19.63,4.23,29.47,1,7.76,1.73,15.55,2.61,23.33a13.61,13.61,0,0,0,.59,2.32c.16.5.4,1,.6,1.46a5.36,5.36,0,0,0,.49-1.33c.07-1,0-2,0-3q0-133.32.08-266.62c0-13.46.81-26.94,1.71-40.37.76-11.25,2.11-22.47,3.39-33.68.62-5.52,1.66-11,2.54-16.48a5.19,5.19,0,0,1,.54-1.24c.38.41,1,.76,1.13,1.24,1.76,5.84,3.76,11.63,5.11,17.57,5,22.12,4.35,44.64,4.34,67.11q0,137.16,0,274.33a27.35,27.35,0,0,0,.59,4.07c.36-1.42.85-2.82,1.07-4.26,1.19-7.51,2.4-15,3.42-22.54,1-7.19,1.61-14.43,2.63-21.62,1.55-11,3.33-22,5-33,1-6.32,1.69-12.68,2.73-19,1.31-8,2.85-15.94,4.23-23.92,1.48-8.53,2.67-17.11,4.35-25.6,2.52-12.75,5.17-25.48,8.12-38.14,3.05-13.11,6.13-26.22,9.9-39.13q7.33-25.14,15.86-49.92c4.3-12.59,8.78-25.2,14.3-37.29,6.14-13.46,13.14-26.58,20.53-39.41a165.26,165.26,0,0,1,26.9-34.62c10.15-10.09,21.43-19,34.47-25.15,10.7-5.09,21.73-9.4,33.64-10.72,6.73-.74,13.53-1.9,20.25-1.6,17.54.77,33.69,6.23,47.61,17.15,20.24,15.88,33.46,36.87,42.18,60.74,5.08,13.89,9.86,28,13.56,42.28,2.57,9.95,3.57,20.4,4.38,30.7,1.07,13.42,1.87,26.92,1.64,40.36-.17,10.39-1.65,20.82-3.34,31.1-2.1,12.85-5,25.56-7.59,38.34-.13.65-.28,1.31-.42,2a7.48,7.48,0,0,1-.4-2.38c.8-5.07,1.68-10.13,2.56-15.19.83-4.79,2.17-9.54,2.45-14.36.83-13.87,1.87-27.78,1.61-41.65-.23-12.38-1.94-24.75-3.27-37.1-2-18.44-6.88-36.21-12.77-53.75-5.62-16.77-12.86-32.81-22.58-47.55-9.54-14.46-21.43-26.94-36.92-35.06-6.69-3.51-14.38-5.51-21.85-7-17.23-3.52-33.55.59-48.7,8.6-8.28,4.38-16,10.1-23.34,16-19.23,15.25-32.9,35.26-44.87,56.21-8.62,15.08-15.24,31.31-22.6,47.1-9.69,20.76-16.49,42.59-23.24,64.4-5.46,17.61-10.44,35.38-15.21,53.19-3.52,13.15-6.43,26.46-9.46,39.73-2.69,11.75-5.38,23.51-7.66,35.34-1.77,9.18-2.88,18.5-4.36,27.74-1.37,8.55-3,17-4.21,25.63-1.12,8.17-1.74,16.4-2.64,24.6-1.1,10.09-2.33,20.16-3.38,30.26-.46,4.43-.66,8.88-.87,13.33-.34,7.16-.5,14.32-.9,21.47-.48,8.76-1,17.52-1.76,26.25-.3,3.43,1.11,4.63,4.16,4.81,4.45.27,8.92.36,13.34.89,11,1.31,21.95,2.67,32.89,4.29,8,1.18,16,2.55,23.89,4.29,10.94,2.42,22,4.7,32.61,8.07,17.12,5.41,34.05,11.42,50.88,17.66,7.52,2.78,14.57,6.82,21.9,10.14a414.51,414.51,0,0,1,58.92,33.4c3.12,2.08,6.3,4.09,9.43,6.17a6.39,6.39,0,0,1,1.05,1.19,5.87,5.87,0,0,1-1.57.33c-8.61-.55-17.22-1.06-25.82-1.72-5.77-.45-11.53-1-17.26-1.72-9.7-1.3-19.4-2.64-29-4.3-8.46-1.46-16.84-3.41-25.27-5.07-10.3-2-20.57-4.18-30.91-6-8.18-1.41-16.44-2.37-24.68-3.47q-16.44-2.19-32.89-4.27c-3.43-.42-6.89-.68-10.35-.86-6.72-.35-13.45-.66-20.18-.86-11.58-.34-23.16-.71-34.74-.83-13.17-.15-26.35-.25-39.52,0-8.9.19-17.81.85-26.68,1.69-13.12,1.23-26.25,2.51-39.3,4.3-14.08,1.94-28.12,4.28-42.1,6.84-12.4,2.26-24.66,5.29-37.06,7.57-11.07,2-22.23,3.64-33.39,5.15-8.17,1.11-16.39,2-24.61,2.56s-16.31.64-24.46.9a12.89,12.89,0,0,1-2-.24,11.6,11.6,0,0,1,1.63-1.44c13.68-8.3,27.19-16.88,41.1-24.77,22.44-12.73,46-22.94,70.24-31.9,20.06-7.43,40.55-13.24,61.19-18.53,10.82-2.78,22-4.38,33-6.06,11.34-1.73,22.77-2.91,34.16-4.37,1.18-.15,2.32-.71,3.5-.81,6.63-.54,6.83-.52,6.59-7.34-.42-12.46-.94-24.93-1.71-37.37q-.93-14.91-2.57-29.75c-1.22-11.13-2.83-22.22-4.22-33.33-.91-7.2-1.55-14.44-2.63-21.61-1.46-9.76-3.19-19.48-4.9-29.2-1.42-8.1-2.93-16.18-4.48-24.25-1.95-10.17-3.7-20.38-6.05-30.46-3.14-13.48-6.6-26.9-10.25-40.26-4.18-15.35-8.35-30.73-13.19-45.89-5.78-18.11-11.68-36.22-18.61-53.91-5.68-14.5-12.94-28.38-19.51-43Zm94.16,92c.28,56.51.66,113,.83,169.53q.19,68-.13,136.08c0,2.92-1.74,6.25-3.61,8.67-4.56,5.92-11.86,6.21-18.39,7-10.53,1.21-21.2,1.15-31.79,1.94a210.75,210.75,0,0,0-22.45,2.61,286.65,286.65,0,0,0-30.52,6.88c-16.45,4.94-32.89,10.08-48.86,16.33-12.74,5-24.88,11.6-37.09,17.86-6.16,3.15-11.91,7.11-17.8,10.76-.6.38-.93,1.18-1.39,1.79a7.21,7.21,0,0,0,2,.09c12.41-3.08,24.76-6.44,37.24-9.24,15.19-3.4,30.42-6.64,45.74-9.38,12.19-2.18,24.5-3.72,36.8-5.17,11.91-1.41,23.86-2.51,35.81-3.43,10.59-.82,21.21-1.64,31.81-1.67,19-.06,38,.34,57,.81,10.47.27,20.93,1,31.38,1.7q13.61,1,27.18,2.57c10.84,1.26,21.68,2.6,32.46,4.29,13.06,2.06,26.15,4.13,39.08,6.89,17.76,3.79,35.37,8.24,53,12.38a11.81,11.81,0,0,0,2.31.11,7.76,7.76,0,0,0-1.49-1.79c-4.51-2.88-9.13-5.58-13.58-8.52-15.9-10.5-33.3-18-51.08-24.42a330.84,330.84,0,0,0-62.11-16.4c-13.92-2.14-27.74-4.92-41.69-6.7-11.41-1.45-22.95-1.88-34.44-2.66-4-.27-6.7-2.64-6.85-6.55-.31-8.3-.78-16.6-.83-24.89q-.52-84.77-.88-169.54-.47-101.65-.86-203.33a7.78,7.78,0,0,0,0-1.28,18.19,18.19,0,0,0-.49-1.79c-.11.52-.27,1-.35,1.56-1.14,8.37-2.5,16.72-3.36,25.12s-1.4,16.63-1.73,25c-.47,12-.62,24-.9,36.87Zm10.27-304.28c-.29-3.88-.81-7.33-.82-10.78-.07-22.39-.12-44.79,0-67.19.05-9.58.44-19.17.84-28.74q.69-16.14,1.71-32.25,1.14-17.88,2.57-35.74c.73-9.07,1.61-18.13,2.57-27.18,1.34-12.68,2.67-25.37,4.3-38,1.81-14,3.72-28.06,6-42,2.59-15.84,5.65-31.6,8.5-47.4,1.72-9.56,3.41-19.12,5.15-28.68a21.21,21.21,0,0,1,1-3,20,20,0,0,1,1.8,2.23c7.59,12.69,15.48,25.21,22.63,38.14,8.83,16,17.07,32.29,25.47,48.5,1.82,3.5,3.2,7.24,4.92,10.79.39.81,1.36,1.32,2.07,2a12.6,12.6,0,0,0,1.09-2.13c5.73-18.89,11.93-37.65,17-56.72,3.23-12.21,5-24.85,7-37.36,1.73-10.77,3.08-21.61,4.29-32.45,1.09-9.75,2.15-19.53,2.54-29.32.83-21.3,1.55-42.61,1.67-63.91.07-13.6-.86-27.22-1.65-40.8-.56-9.65-1.43-19.3-2.57-28.89-1.48-12.45-3.36-24.84-5.08-37.26-1.42-10.25-2.57-20.54-4.35-30.74-2.25-13-5-25.86-7.56-38.79s-5-25.86-7.83-38.7c-3-13.55-6.36-27-9.74-40.47q-6.52-26-13.34-51.82-4.65-17.73-9.66-35.37c-3.53-12.51-7.24-25-10.82-37.45a5.15,5.15,0,0,1,.28-2c.3.51.63,1,.9,1.54,10.6,20.82,21.14,41.66,28.78,63.83,3.53,10.22,7.81,20.2,11,30.53,5.48,17.73,10.84,35.54,15.36,53.54,3.59,14.32,6.07,28.94,8.64,43.5,2.31,13.1,4.17,26.28,6,39.45,1.33,9.49,2.43,19,3.43,28.54s1.83,19.25,2.57,28.89c.7,9,1,18.09,1.77,27.11,2.79,32.25,1.45,64.57,1.59,96.87,0,10.17-.91,20.36-1.66,30.52-.65,8.79-1.39,17.6-2.59,26.32-1.74,12.62-3.93,25.18-5.93,37.76a398.5,398.5,0,0,1-17,69.55c-5.24,14.93-10.36,29.94-16.46,44.53-10.21,24.47-23.42,47.41-38.49,69.2-6.15,8.88-13.34,17-20.06,25.52-.87,1.1-1.81,2.14-2.72,3.2.65-1.38,1.19-2.81,2-4.12,8.15-13.89,16.26-27.8,24.52-41.63,6.56-11,13.56-21.74,19.86-32.87,4.51-8,9.63-16.16,8.84-25.75-.43-5.26-2.61-10.56-4.82-15.47-8.12-18.05-16.39-36-25-53.84-4.38-9.06-9.62-17.71-14.49-26.53A10.62,10.62,0,0,0,409,926.9a6.86,6.86,0,0,0-1.23,2.05q-3.51,19.32-6.88,38.67c-2.32,13.31-4.75,26.61-6.79,40-1.45,9.47-2.32,19-3.5,28.53-1.39,11.26-2.95,22.49-4.23,33.76-.78,6.87-1.26,13.78-1.73,20.68-.92,13.2-1.71,26.4-2.6,39.59-.51,7.62-1.38,15.21-1.65,22.83-.47,13.72-.65,27.44-.9,41.16-.32,17.71-.73,35.43-.8,53.14,0,10.58.41,21.17.82,31.74.45,11.47,1.06,22.93,1.71,34.39q.71,12.48,1.7,25c.79,10.07,1.61,20.13,2.58,30.18,1,10.66,2.1,21.33,3.45,32,1,7.92,2.58,15.77,3.74,23.68.41,2.8.31,5.67.51,8.51a6.71,6.71,0,0,0,.54,1.64,6.82,6.82,0,0,0,.28-1.58c-.55-8.33-1.13-16.65-1.69-25,0-.43,0-.86,0-1.29-.28-10.86-.8-21.73-.79-32.6,0-12.15.37-24.3.84-36.44q.51-13.14,1.71-26.25c1-10.67,1.87-21.37,3.46-32,2.85-19,5.55-38.06,9.52-56.84s9.38-37.44,14.23-56.13c6.49-25,15.31-49.23,25.28-73,8.65-20.62,18.61-40.68,30.88-59.56a342,342,0,0,1,27.29-36.63c13.69-15.92,29.1-29.72,48-39.11A77.61,77.61,0,0,1,578,950.74c21.77-2.66,39.89,5.22,56.38,18.34a106.7,106.7,0,0,1,29.31,36.13c.29.58.53,1.18.8,1.76a8.27,8.27,0,0,1-1.8-1.08c-5.35-5.3-10.49-10.84-16-15.93-10.29-9.44-21.61-17.58-35-21.86-17.56-5.62-34.64-2.85-50.39,6.22a179.61,179.61,0,0,0-23.78,16.92,165.44,165.44,0,0,0-19.6,18.75c-9.14,10.42-18,21.19-26.15,32.37-14,19-25,39.9-34.95,61.25-6.49,14-11.94,28.44-17.26,42.91-4.74,12.89-9,26-12.85,39.18-4.37,14.92-8.53,29.94-11.94,45.11s-6,30.67-8.63,46.08c-1.74,10.19-3.09,20.47-4.29,30.74-1.1,9.46-1.92,19-2.58,28.47-.75,10.88-1.2,21.77-1.74,32.67-.33,6.72-.85,13.46-.81,20.18.07,11.58.29,23.17.86,34.74s1.42,23.28,2.57,34.88c1.13,11.42,2.7,22.8,4.25,34.18,1,7.11,2.24,14.18,3.41,21.26,0,.28.36.52.55.77a2.17,2.17,0,0,0,.27-.73c-.08-4.81-.17-9.62-.32-14.42,0-.79-.47-1.56-.5-2.35-.32-9.58-.57-19.16-.88-28.74-.26-8.16-.72-16.31-.82-24.47-.36-28.41-.77-56.83-.79-85.24,0-10,.87-20.08,1.66-30.1,1-12,1.68-24,3.51-35.8q4.41-28.58,10.27-56.93c2.76-13.27,6.72-26.3,10.15-39.43.14-.55.37-1.09.55-1.63.39.41,1,.76,1.13,1.24,6.88,20.26,13.87,40.49,20.49,60.84,2.88,8.83,5.26,17.85,7.36,26.9,2.43,10.46,4.41,21,6.38,31.6,1.86,10,3.67,19.94,5.09,30,1,6.84,1.34,13.78,1.76,20.68.94,15.19,1.75,30.39,2.57,45.59a27.62,27.62,0,0,1-.26,3.73c-.19-1.25-.36-2.51-.57-3.75-1.42-8.55-2.92-17.07-4.25-25.63-1-6.33-1.58-12.72-2.63-19-1.84-11-3.86-22.06-5.87-33.08-1.69-9.27-3.27-18.57-5.27-27.78-2.95-13.58-5.79-27.2-9.48-40.59-4.68-17-10.15-33.72-15.32-50.56a23.35,23.35,0,0,0-1.39-3,24.38,24.38,0,0,0-1.13,3.38c-2.89,15.07-5.87,30.13-8.53,45.24q-2.55,14.46-4.28,29c-1.64,13.79-3,27.62-4.29,41.45-.79,8.45-1.38,16.92-1.71,25.4q-.71,18.21-.87,36.44c-.14,14-.24,28.07,0,42.09.19,9.33.92,18.66,1.68,28,1,12.24,1.82,24.51,3.49,36.66a269.2,269.2,0,0,1,2.28,49.44c-.42,8.87-2.65,17.66-4.14,26.48-.1.6-.74,1.11-1.12,1.66a17.26,17.26,0,0,1-.54-1.68c-2.86-12.8-6-25.54-8.5-38.41-2.6-13.25-4.69-26.61-6.9-40q-3.12-18.84-6-37.74-2.34-15.57-4.28-31.18-2.31-18.36-4.28-36.75-1.47-13.56-2.57-27.18c-.95-11.62-1.83-23.25-2.57-34.88-.69-11-1.21-22.06-1.72-33.1-.37-8.05-.59-16.1-.87-24.58ZM277,489.72c4.56-11.4,8.54-22.74,13.32-33.74,6.3-14.51,13.2-28.77,19.92-43.1a38.8,38.8,0,0,1,3-4.63,29.84,29.84,0,0,1-.53,5.47c-6.49,22.56-13.36,45-19.54,67.64q-10.35,38-19.66,76.17c-3.93,16.14-7,32.5-10.4,48.77-2.59,12.34-5.35,24.65-7.64,37.05-1.77,9.62-2.9,19.35-4.35,29-1.4,9.26-3,18.49-4.23,27.76-.82,6.15-1.17,12.36-1.76,18.55q-1.7,17.68-3.42,35.38c0,.43,0,.86,0,1.29-.29,11.58-.53,23.16-.88,34.74-.16,5.3-.83,10.6-.78,15.9.1,11.59.29,23.17.86,34.74s1.31,23.3,2.6,34.88c1.64,14.76,3.12,29.61,6.08,44.14,4.38,21.43,9.79,42.67,15.18,63.88,2.33,9.21,5.69,18.16,8.63,27.22a17,17,0,0,0,1.26,2.48c.43-.82.88-1.63,1.28-2.46,4.29-8.92,8.15-18.08,12.93-26.73,9.83-17.79,20.09-35.35,30.31-52.93,3.35-5.78,7.11-11.33,10.7-17,.4-.64.91-1.21,1.37-1.82a7.79,7.79,0,0,1,1.15,2.08c1.2,6.22,2.28,12.47,3.47,18.69,2,10.31,4.11,20.58,5.93,30.92,1.36,7.76,2.3,15.59,3.49,23.39,1.38,9.11,3,18.2,4.23,27.33,1,7.61,1.68,15.27,2.62,22.9,1.07,8.66,2.3,17.31,3.39,26,.4,3.15.63,6.32.87,9.49q.88,11.83,1.71,23.69,1.31,18.72,2.57,37.45c.57,8.18,1.38,16.35,1.66,24.54.48,14,.65,28,.91,42,.3,16.43.75,32.86.8,49.29,0,11.87-.4,23.74-.83,35.6s-1.05,23.5-1.7,35.24q-.71,12.92-1.71,25.82c-.78,10.07-1.61,20.13-2.57,30.18-1.05,11-2.17,21.89-3.43,32.82q-2,16.89-4.28,33.75c-1.59,11.57-3.22,23.15-5.16,34.67-2.06,12.22-4.53,24.36-6.79,36.55-2.59,13.91-5.08,27.84-7.74,41.74-1.26,6.57-2.82,13.09-4.25,19.63-.09.38-.23.76-.34,1.14a9.4,9.4,0,0,1-.6-1.29c-1.41-4.84-3.51-9.6-4.05-14.54-1.07-10-2-20.07-1.67-30.08.34-11.25,2.13-22.46,3.22-33.69.65-6.6,1.26-13.21,1.71-19.83.92-13.91,1.83-27.81,2.55-41.73q.7-13.73.86-27.46c.14-12.41.25-24.83,0-37.24-.27-11.32-.93-22.65-1.7-34-.61-8.94-1.49-17.86-2.56-26.75-1.23-10.14-2.79-20.23-4.24-30.33-1.4-9.69-2.68-19.39-4.33-29-1.56-9.14-3.52-18.21-5.34-27.3-.71-3.55-1.52-7.07-2.33-10.59a7.34,7.34,0,0,0-.8-1.58,6.72,6.72,0,0,0-.87,1.5c-4,13.89-8.18,27.74-12,41.7-3.65,13.5-7.11,27.05-10.26,40.68q-5.91,25.42-11.12,51c-1.81,8.88-2.89,17.92-4.35,26.88-1.68,10.28-3.49,20.54-5.09,30.84-.53,3.41-.6,6.89-.91,10.33a10.67,10.67,0,0,1-.36,1.56,4.39,4.39,0,0,1-.46-1.41q.81-16.56,1.7-33.1c.22-4,.41-8.06.87-12.06,1.35-11.68,2.31-23.45,4.37-35,3.89-22,7.52-44.07,13-65.69a459.52,459.52,0,0,1,23.46-70.27c.58-1.33,1-2.72,1.52-4.08a41,41,0,0,1,1.5,4c4.24,16.51,8.78,33,12.54,49.57,2.85,12.62,4.95,25.43,6.86,38.24,1.34,9,2,18.09,2.62,27.17,1,14.76,2.15,29.52,2.52,44.3.62,24.7.76,49.41.89,74.11.05,8.3-.48,16.6-.81,24.9q-.81,20.19-1.72,40.37c-.17,3.88-.57,7.75-.81,11.63a4.63,4.63,0,0,0,.43,1.47,7.66,7.66,0,0,0,.59-1.47c.81-4.66,1.69-9.32,2.36-14q2.24-15.8,4.28-31.61c.42-3.29.67-6.6.86-9.91.34-6.16.68-12.32.85-18.48.62-21.87,1.44-43.75,1.61-65.63.09-11.45-.87-22.93-1.64-34.38-.61-9.07-1.39-18.16-2.58-27.17-1.75-13.19-3.72-26.36-6-39.46-2.61-15.12-5.32-30.25-8.6-45.23-2.62-11.94-5.8-23.79-9.41-35.47-4.76-15.39-9.8-30.72-15.43-45.82-4.87-13.08-10.59-25.85-16.18-38.65a339,339,0,0,0-33.42-58.89c-6.89-9.82-14.3-19.31-21.93-28.57a216.68,216.68,0,0,0-19.07-20.75c-12.17-11.38-25.43-21.27-41.64-26.44-19.21-6.13-37.07-3.6-54.49,6.59-13,7.59-23,18.3-33.51,28.57a14.26,14.26,0,0,1-2.11,1.44,12.71,12.71,0,0,1,.79-2.17C84.1,987,95.28,972.41,110.7,961.73a61.73,61.73,0,0,1,32.7-11,84.36,84.36,0,0,1,47.54,11.33,135.91,135.91,0,0,1,22.14,15.65,201.43,201.43,0,0,1,36.44,43c8.18,13,17,25.66,24.33,39.16a476.3,476.3,0,0,1,23.55,49.28c7.48,18.74,13.37,38.14,19.49,57.4,3.62,11.38,6.71,23,9.39,34.61,2.48,10.76,4.2,21.7,6.08,32.59,1.84,10.68,3.58,21.38,5.11,32.11.86,6,1.18,12.08,1.77,18.12,1.13,11.65,2.34,23.3,3.39,35,.45,5,.79,10,.85,15q.52,43.26.85,86.52c0,4.31-.55,8.61-.79,12.92a5.41,5.41,0,0,0,.5,1.72,6.9,6.9,0,0,0,.88-1.76c.45-2.69.87-5.38,1.15-8.09q1.33-12.94,2.58-25.9,1.74-18.12,3.41-36.24c.63-6.89,1.23-13.79,1.71-20.69.64-9.18,1.27-18.35,1.7-27.54.67-14,1.45-28,1.68-42.09.48-29,.71-58,.86-87,.05-8.72-.43-17.45-.82-26.18q-.72-15.69-1.71-31.38-1.16-17.88-2.58-35.74-1.06-13.19-2.57-26.33c-1.3-11.41-2.86-22.78-4.23-34.18-.94-7.77-1.55-15.58-2.63-23.32-1.22-8.72-2.88-17.36-4.21-26.06-1.24-8.07-2.17-16.19-3.48-24.25-1.57-9.59-3.38-19.13-5.14-28.69-.09-.46-.93-1.23-1.1-1.15A3.67,3.67,0,0,0,328,930c-4.67,7.48-9.6,14.81-13.86,22.51-5.9,10.64-11.66,21.39-16.77,32.42-5.27,11.35-9.95,23-14.36,34.7a20.46,20.46,0,0,0,1.49,16.83c5.31,10.09,10.93,20,16.63,29.92,6.11,10.61,12.47,21.09,18.73,31.62q7.55,12.71,15.12,25.41a12.38,12.38,0,0,1,.69,1.76,5.32,5.32,0,0,1-1.5-.91c-4.87-6-10-11.74-14.49-18a378.55,378.55,0,0,1-37.9-64.31c-8.65-18.87-16.59-38-22.09-58-4.7-17.09-8.94-34.32-12.83-51.6C244.11,920,242,907.46,240,895c-1.26-7.85-1.91-15.81-2.61-23.75-1-10.9-1.75-21.82-2.6-32.74-.31-4-.77-8-.82-12.06-.35-27.27-.81-54.54-.8-81.81,0-12,1-24.07,1.65-36.1.41-7.19,1-14.38,1.72-21.54,1.3-12.26,2.78-24.5,4.25-36.75,1.08-9,2-17.93,3.48-26.81,2.29-13.69,4.75-27.35,7.63-40.92,3.13-14.76,6.4-29.52,10.4-44.06,4.3-15.69,9.53-31.13,14.32-46.69.18-.55.08-1.19.32-2Zm108.5-325.48c.28,9.3.52,18.17.86,27,.53,13.46,1.18,26.91,1.69,40.37.37,9.87.6,19.74.86,29.6.31,11.58.73,23.16.84,34.74.36,39.11.73,78.22.82,117.34.05,19.14-.48,38.28-.81,57.42-.22,13.15-.54,26.29-.84,39.44q-.4,17.16-.86,34.31-.4,15-.85,30-.44,15.45-.86,30.89c-.27,9-.58,18-.85,27-.3,9.87-.56,19.74-.87,29.61-.25,8.3-.58,16.59-.84,24.89-.3,9.44-.55,18.88-.87,28.32-.24,7-.61,14-.84,21-.32,10-.55,20-.87,30-.25,7.73-.58,15.46-.85,23.19-.3,8.58-.55,17.17-.86,25.75-.26,7.3-.58,14.6-.85,21.9-.3,8.15-.55,16.31-.86,24.46-.26,6.88-.59,13.75-.85,20.62q-.87,23-1.72,45.94c-.26,6.87-.58,13.74-.85,20.61q-.87,21.9-1.72,43.8c-.26,6.59-.57,13.18-.85,19.76q-.86,20.4-1.72,40.8c-.2,4.45-.55,8.9-.86,13.34a10.67,10.67,0,0,1-.36,1.56,6,6,0,0,1-.47-1.41c-.31-6.59-.64-13.17-.86-19.76-.33-9.87-.5-19.74-.89-29.6-.48-12.47-1.12-24.92-1.68-37.38q-.87-19.33-1.71-38.67-.88-20.61-1.72-41.23-.44-10.51-.85-21c-.3-7.59-.57-15.17-.86-22.76-.28-7.3-.59-14.6-.85-21.9-.31-8.15-.57-16.31-.87-24.46-.26-7.16-.6-14.32-.84-21.48-.32-9.58-.57-19.16-.87-28.74-.27-8.59-.58-17.17-.85-25.75-.3-9.73-.56-19.45-.86-29.18-.27-8.87-.6-17.73-.85-26.6-.32-11.87-.57-23.73-.86-35.6-.28-11.29-.59-22.59-.85-33.88-.31-13.29-.56-26.58-.87-39.87-.25-10.87-.65-21.73-.83-32.6-.35-20.43-.57-40.85-.88-61.27-.25-16.58-.72-33.15-.82-49.72q-.54-84.76-.84-169.55c0-12.57.49-25.15.83-37.73.2-7.59.5-15.17.85-22.75q.8-17.41,1.71-34.81Q352,147,353,133.65c.77-10.36,1.6-20.7,2.57-31Q357.07,86.19,359,69.8q1.95-16.69,4.28-33.32c1.58-11.3,3.37-22.56,5.15-33.82A9.78,9.78,0,0,1,369.72,0l.33,2.43c1.14,8.23,2.36,16.45,3.39,24.69.72,5.74,1.14,11.51,1.75,17.26,1.12,10.38,2.36,20.73,3.39,31.11.72,7.31,1.12,14.65,1.75,22,1.11,12.94,2.34,25.87,3.38,38.82.47,5.71.57,11.46.9,17.18.21,3.46.56,6.9.85,10.78Zm-2.57,224.69c-.29-3.45-.79-6.89-.82-10.34-.35-32.69-.56-65.39-.92-98.08-.14-12.72-.53-25.44-.83-38.16q-.4-16.72-.86-33.45c-.25-8.44-.57-16.88-.85-25.32-.29-9-.54-18-.87-27-.22-6-.57-12-.84-18.05-.58-12.6-1.1-25.21-1.73-37.81-.5-10.18-1.17-20.35-1.69-30.53-.61-12.17-1.11-24.35-1.77-36.52A22.74,22.74,0,0,0,370.5,29a29.25,29.25,0,0,0-1.28,4.12c-2.61,17.19-5.45,34.35-7.62,51.59-1.2,9.53-1.31,19.2-1.8,28.81-.38,7.44-.61,14.88-.88,22.32q-.45,12.45-.85,24.9c-.3,9.44-.6,18.88-.85,28.32q-.47,16.93-.86,33.88c-.32,14.43-.66,28.86-.84,43.29-.35,26.56-.83,53.12-.82,79.67,0,31.27.5,62.53.8,93.79q.4,43.48.87,86.95c.21,17.71.53,35.43.85,53.14q.38,21.21.85,42.44.4,19.08.86,38.16.39,16.73.85,33.45.42,16.08.86,32.17.41,14.81.85,29.6t.86,29.6c.27,9.16.58,18.31.85,27.46.3,10.3.54,20.59.87,30.89.22,7,.56,14,.84,21,.57,14,1.12,28.06,1.73,42.09.18,4,.45,8,.87,12,.36,3.37,1,6.72,1.5,10.07a6.77,6.77,0,0,0,.59,1.46,6.23,6.23,0,0,0,.43-1.48c.31-5.88.62-11.75.87-17.62.32-7.73.59-15.46.86-23.19.3-8.58.56-17.16.86-25.74.27-8,.57-16,.85-24q.43-12.66.86-25.33t.85-25.32q.44-13.08.86-26.17.43-13.95.86-27.89c.28-9.16.58-18.31.85-27.47q.45-15.43.86-30.88.43-15.87.85-31.74.45-18.43.86-36.88.45-21,.85-42c.31-16.57.68-33.14.84-49.71q.53-53.33.87-106.64c.05-6.13,0-12.26,0-19.25Zm83.88,1235.56c.86-6.21,1.84-12,2.54-17.77,1.24-10.36,2.34-20.74,3.44-31.11q.58-5.58.85-11.2c.35-7.58.67-15.17.86-22.75.34-13.58.23-27.17,1-40.72.45-7.85,1.18-15.89,5.52-22.92.3-.49.6-1,.91-1.47a9.91,9.91,0,0,1,.27,1.6c0,14.26.11,28.53,0,42.79-.1,10.44-.31,20.89-.88,31.31-.58,10.65-1.39,21.29-2.57,31.89-1.43,12.73-3.23,25.42-5.11,38.1-2.13,14.34-4.37,28.67-6.86,43-1.71,9.78-4.32,19.41-5.81,29.22a23,23,0,0,0,4.23,17.84c2,2.65,3.94,2.47,5-.56,6.65-18.8,13.52-37.52,19.61-56.49,4.55-14.15,8.31-28.58,11.87-43,2.54-10.3,4.23-20.82,6.21-31.25,1.78-9.41,3.59-18.81,5.1-28.26,1.11-6.88,1.73-13.84,2.63-20.76,1.1-8.52,2.37-17,3.38-25.54.74-6.31,1.26-12.64,1.73-19,.92-12.62,1.6-25.26,2.64-37.87.56-6.8,1.66-13.56,2.51-20.34,0-.28-.11-.64,0-.85,1.52-2.51,3.07-5,4.62-7.5.16,2.59.45,5.19.47,7.78.07,7.14.23,14.28,0,21.4q-.57,15.92-1.71,31.81c-.64,8.94-1.48,17.87-2.57,26.75-1.21,9.85-2.75,19.66-4.25,29.48-1.65,10.85-3,21.77-5.21,32.51-3.27,15.83-7.21,31.53-10.82,47.29-5.33,23.29-13,45.86-20.76,68.43-3.58,10.5-7.59,20.88-10.59,31.54s-2.1,21.32,3.76,31.11c1.44,2.42,2.87,2.39,4.28-.2,8.51-15.6,17.87-30.79,25.42-46.83,10.49-22.34,19.66-45.29,25.95-69.27,4.14-15.81,8.88-31.47,12.68-47.36,2.39-10,3.62-20.22,5.25-30.37,1.79-11.12,3.64-22.23,5.08-33.4,1-7.42,1.34-14.92,1.76-22.39.94-16.9,1.86-33.81,2.55-50.72.5-12.14.54-24.3.94-36.45.13-4.19,1.15-8,5.6-10,4.22-1.88,8.78.38,8.84,5,.18,15.31.25,30.63,0,45.93-.12,7.34-.91,14.67-1.67,22-1,9.39-2.21,18.75-3.4,28.12-1.09,8.52-2,17.07-3.48,25.53-1.69,9.64-3.8,19.21-5.92,28.78-2.46,11.08-4.94,22.16-7.76,33.16-2.61,10.15-5.09,20.39-8.67,30.21-8,21.93-16.14,43.81-25.16,65.32-6.42,15.32-14.35,30-21.63,45-4.62,9.5-10.19,18.67-13.56,28.59-1.92,5.67-5.45,8.24-9.29,11.87-4.9,4.62-8.55,10.79-11.95,16.74-8,14-18.44,25.8-30.07,36.73a11.81,11.81,0,0,1-2.65,1.44c.26-1,.25-2.14.8-2.9q15.66-21.78,31.44-43.47c4.63-6.39,9.41-12.62,11.28-20.6a21.44,21.44,0,0,0-.73-13.59,7.25,7.25,0,0,0-6.55-4.69c-2.73-.2-4.29,1.75-5.79,4.42-8.36,14.85-16.69,29.75-26,44-11.17,17.18-23.19,33.81-35,50.55-3.25,4.6-7.15,8.75-10.77,13.1a3.3,3.3,0,0,1-.67.49,4,4,0,0,1-.14-1.63c1.5-4.22,2.68-8.63,4.71-12.59,7.18-14,15.24-27.61,21.86-41.88,8-17.2,15.1-34.83,22.09-52.47,4.08-10.3,7.4-20.92,10.68-31.52,2.46-7.94,1.56-16,.06-24.11-3.31-17.88-12.37-33.72-17.67-50.9-3-9.81-4.84-19.72-4-30,.28-3.55,1.61-7,2.49-10.5a3.41,3.41,0,0,1,.51-.88c.11.38.23.76.33,1.15,5,18.45,10,36.93,15.13,55.36,2.78,10,5.87,19.81,8.85,29.71a12.06,12.06,0,0,0,1,1.85,17.86,17.86,0,0,0,.73-2.09c1.72-8,3.6-16,5.06-24,1.4-7.75,2.35-15.58,3.51-23.37.55-3.64,1.14-7.26,1.71-11.31ZM159.49,1425.05c.28-6.44.82-12.46.76-18.47,0-3.47,2.12-5.43,4.46-5.24,2.63.23,6.17,1.85,7.36,4a25.52,25.52,0,0,1,2.71,11.2c.35,9.4,0,18.83.14,28.24.16,10.16.33,20.32.89,30.45.6,10.93,1.37,21.87,2.58,32.74,1.39,12.45,3.52,24.82,5,37.25a455.5,455.5,0,0,0,13.07,66.09c5.28,19.23,12,38.06,18.39,57,6.28,18.7,15.14,36.28,24.28,53.69,4.81,9.17,10.16,18.06,15.39,27,1.2,2.06,3,2.1,4.21-.11,4.37-8.14,5.37-16.92,3.87-25.86-4.06-24.36-15.7-46.37-22-70-5.11-19.14-10.39-38.25-15.12-57.49-3.3-13.4-6.11-26.94-8.54-40.52-1.93-10.73-3.09-21.61-4.35-32.45-1.3-11.2-2.48-22.43-3.41-33.67-.81-9.73-1.35-19.49-1.72-29.24-.46-12-.62-24-.88-36a8.21,8.21,0,0,1,.43-1.91l.91,1.76c3.67,6.92,5,14.42,5.49,22.12.86,12.48,1.61,25,2.6,37.44q1,12.54,2.57,25c1.28,10.27,2.81,20.5,4.25,30.75,1.13,8.09,2.16,16.19,3.45,24.25,1.63,10.14,3.13,20.31,5.31,30.34,3.06,14.07,6.52,28.06,10.12,42,2.59,10,5.3,20,8.64,29.8,5.42,15.84,11.4,31.5,17.18,47.22.32.86,1.15,1.53,1.46,2.39.69,2,.89,1.58,1.84,0,5.3-8.61,6.14-17.8,4.24-27.53-2.14-11-4-22-6-33-1.67-9-3.61-18-5.07-27-1.15-7.16-1.75-14.41-2.63-21.61-1.12-9.09-2.32-18.16-3.4-27.26-.41-3.43-.66-6.88-.86-10.34-.34-6-.75-12-.84-18-.36-22.28-.6-44.56-.89-66.83a24.81,24.81,0,0,1,0-3c0-.43.46-.82.71-1.23.32.34.84.62.93,1,1.47,6.24,3.78,12.45,4.14,18.77,1.06,18,1.22,36,1.92,54,.36,9,.88,18.09,1.73,27.1,1.22,13,2.32,26,4.35,38.87,2.64,16.75,6.16,33.36,9.29,50,.87,4.64,1.68,9.29,2.6,13.91a11.38,11.38,0,0,0,1.2,2.49,10.64,10.64,0,0,0,1.31-2.34c3.18-11.52,6.24-23.08,9.46-34.6q5.1-18.19,10.43-36.33c.93-3.16,2.16-6.24,3.25-9.35.24-.69.5-1.37.75-2.06a15.52,15.52,0,0,1,1,1.86c2.92,8.1,2.09,16.36.54,24.49-3.17,16.64-11.67,31.4-17.12,47.24-3.93,11.42-6,23-4.09,35.33,2.2,14.23,7.33,27.49,12.56,40.62,7.76,19.46,16.45,38.57,25.36,57.53,5.51,11.73,12.27,22.87,18.26,34.39,1.44,2.77,2.08,6,3,9,.16.58-.21,1.31-.34,2a11.23,11.23,0,0,1-1.5-1.42q-15.35-20.8-30.64-41.65a478.5,478.5,0,0,1-35.13-56.48,96.63,96.63,0,0,0-7.19-11.77c-.6-.82-3.37-.61-4.88-.1-3.92,1.34-5.24,5-5.8,8.56-1.35,8.59,1.71,16,6.73,22.84q14.6,19.85,29.14,39.71c2.89,3.94,5.81,7.86,8.66,11.82a6.44,6.44,0,0,1,.59,1.75c-.51-.33-1-.7-1.52-1-12.95-7.22-20.31-19.47-28.3-31.2-5.26-7.71-10.81-15.22-16.3-22.77a9.65,9.65,0,0,0-2.53-2.12,13.55,13.55,0,0,1-5.55-7.25c-4.44-11.68-10.25-22.85-15.71-34.13-5.35-11.06-11-22-16.33-33-3.74-7.85-7.47-15.75-10.49-23.89-7.86-21.15-15.91-42.25-22.74-63.74-5.24-16.46-9.13-33.39-12.91-50.28-2.89-12.89-4.82-26-6.92-39.08-1.39-8.61-2.52-17.28-3.43-26q-1.59-15.27-2.57-30.6c-.75-11.89-1.18-23.8-1.75-36.13Zm22,379c9.47.2,18.75.42,28,1.1,11.72.86,22.59,4.85,33.1,9.9a3.87,3.87,0,0,0,1.45,0,17.51,17.51,0,0,0-1.24-2.35c-4.62-6.37-9.62-12.49-13.83-19.11-8.81-13.84-17.5-27.78-25.69-42a328.63,328.63,0,0,1-16.3-31.74c-6.52-14.83-12.78-29.84-18-45.18-6.4-18.94-12-38.18-17.11-57.51-2.89-10.92-4.33-22.23-6.12-33.42-1.92-12-3.58-23.94-5.13-36a131.66,131.66,0,0,1-.88-14.19c-.36-16.56-1-33.14-.75-49.7.19-12.92,1.54-25.82,2.46-38.73.19-2.7.76-5.38,1.16-8.07.46,2.74,1.09,5.46,1.34,8.22.43,4.72.62,9.46.89,14.19.58,10.17,1,20.36,1.75,30.52.7,9.78,1.5,19.57,2.58,29.31,1.22,11,2.82,21.93,4.23,32.89,1.16,9.08,2,18.22,3.51,27.24,1.95,11.38,4.2,22.72,6.83,34,3.73,16,7.14,32,12.13,47.61,5.38,16.79,12,33.23,18.84,49.51,9.44,22.52,22,43.4,36,63.35,6.16,8.77,13.47,16.76,20.5,24.89a187.79,187.79,0,0,0,14.85,15.65c6.91,6.35,14.32,12.17,21.5,18.24a7,7,0,0,1,.93,1.2,6.43,6.43,0,0,1-1.46-.05c-11.44-3-22.72-7.09-34.35-8.8a191.47,191.47,0,0,0-37.75-1.77,214.69,214.69,0,0,0-64.51,13.47,235.4,235.4,0,0,0-44,21.81c-14.42,9.19-28.34,19.11-40.59,31.13-10.26,10.08-21.1,19.69-30.33,30.65-11.91,14.13-22.46,29.41-33.61,44.19a13.63,13.63,0,0,1-1.37,1.37,14,14,0,0,1-.32-2c0-4-.75-8.17.2-11.93s3.29-7.52,5.56-10.91c10.88-16.2,21.75-32.42,33-48.35,4.38-6.19,9.62-11.82,14.77-17.42,7-7.6,14-15.17,21.5-22.32a196.32,196.32,0,0,1,36.59-27.27c14.7-8.66,30.57-14.53,47-18.61,7.24-1.8,14.89-2,22.57-3.07Zm412.78-258.28c-1.14,11.08-2.18,21.74-3.46,32.38-1,8.1-2,16.21-3.45,24.25-1.71,9.78-3.92,19.48-5.77,29.25-3.72,19.63-9.7,38.64-16.54,57.34-4.61,12.61-10.11,24.9-15.58,37.18-9,20.14-20.59,38.81-33.19,56.83-5.65,8.08-12.3,15.46-18.5,23.17-1.2,1.49-2.4,3-3.64,4.48-.78.94-1.64,1.82-2.46,2.73a32.08,32.08,0,0,0,4.07-.93c10.81-4.07,21.74-7.65,33.41-8.16,9-.4,18.07-1.38,27-.7a149.12,149.12,0,0,1,42.19,9.55,176.16,176.16,0,0,1,38.64,20.3A267.74,267.74,0,0,1,659,1850.65a241.87,241.87,0,0,1,21.68,20.9c9,10.16,17.62,20.77,25.75,31.66,13.27,17.78,24.29,37,34,56.93.29.6.64,1.17.89,1.77a5.52,5.52,0,0,1,.2,1.16c-.4-.16-.93-.2-1.19-.49-4.74-5.29-9.48-10.59-14.15-15.95-2.81-3.23-5.31-6.75-8.29-9.8-8.45-8.66-17.12-17.11-25.61-25.72-3.85-3.91-7.29-8.22-11.25-12a331.25,331.25,0,0,0-60.1-46c-15.35-9.1-31.43-17-48.74-21.72-10.82-3-21.83-5.36-32.87-7.35-6.92-1.25-14-1.5-21.1-1.78s-14.42-.68-21.52.07c-14.53,1.54-28.93,4-42.4,10.13-.12.06-.29,0-.42,0l-4.78,1.52c1.22-1.11,2.42-2.25,3.69-3.32,7-5.86,14.2-11.45,20.9-17.62,7.22-6.64,14.53-13.33,20.74-20.87a351.35,351.35,0,0,0,22.76-31.2,200.65,200.65,0,0,0,15.38-27.83c7.13-16,14-32.18,19.66-48.74,6.78-19.93,12.63-40.21,18-60.57,3.46-13.11,5.51-26.6,7.82-40,2.26-13.1,4.15-26.27,6-39.44q2.38-16.85,4.28-33.74c1.29-11.21,2.35-22.44,3.45-33.67.9-9.19,1.73-18.4,2.57-27.6.32-3.44.57-6.9.87-10.34a5.71,5.71,0,0,1,.36-1.13,4.33,4.33,0,0,1,.47,1,7.78,7.78,0,0,1,0,1.28c.28,20.56.84,41.12.76,61.68,0,12.89-1,25.77-1.65,38.66-.07,1.6-.54,3.18-.82,5.2Zm-33.6-303.65c1.52,7.51,2.88,14.81,4.12,22.12,1,6.14,2,12.3,2.94,18.46,1.15,7.37,2.37,14.73,3.38,22.11q1.1,8,1.73,16c.94,11.75,1.72,23.52,2.61,35.29.18,2.31.47,4.62.86,6.91.61,3.57-.76,5.7-4.37,6.08-2.65.27-5.48.86-7.92.17-1.62-.45-3.49-2.74-3.83-4.48-.79-4.06-.78-8.29-1-12.45-.6-11.17-1-22.35-1.77-33.5q-.93-13.61-2.56-27.17c-1.54-12.71-3.31-25.4-5.11-38.08-1.91-13.44-3.66-26.91-6.06-40.27s-5.46-26.79-8.37-40.15c-2.5-11.49-5.08-23-7.84-34.39-2.25-9.3-4.9-18.51-7.18-27.81-.51-2.09-.23-4.38-.32-6.57.8,1.78,1.74,3.51,2.37,5.34,5.46,15.85,11.31,31.58,16.18,47.61,6.17,20.31,11.67,40.82,17.15,61.33,2,7.64,3.22,15.5,5,23.48Zm-385,125.61c-4.13,2.81-8.26,4.22-12.23.17-2.51-2.55-2.84-5.66-2.45-9.07.47-4,.57-8,1-12q2.07-19.23,4.28-38.44c1.06-9.09,2-18.21,3.48-27.24,1.7-10.48,3.8-20.91,5.95-31.32,3.6-17.45,7.09-34.94,11.2-52.27,3-12.65,6.58-25.18,10.47-37.58,4.42-14.11,9.38-28,14.32-42,1.27-3.58,3.35-6.87,5.07-10.3.15-.32.32-.63.49-1,.12.52.44,1.09.33,1.56q-1.2,5.27-2.54,10.49c-3.41,13.13-7.05,26.21-10.21,39.4-3.12,13-6,26.1-8.54,39.24-2.36,12.37-4.16,24.84-6,37.3-1.83,12.1-3.59,24.23-5.12,36.37-1.34,10.63-2.37,21.3-3.45,32-.66,6.46-1.26,12.93-1.71,19.4-.93,13.33-1.68,26.68-2.65,40-.12,1.66-1.08,3.25-1.65,5.29Zm69.33-255.07c2.28-8.75,4.55-17.09,6.86-25.4.46-1.65.75-3.59,1.82-4.75.85-.91,2.77-.89,4.24-1a3.51,3.51,0,0,1,.72,2.25c-1.34,7.13-2.59,14.29-4.27,21.34-3.86,16.2-8.11,32.32-11.89,48.54-3.92,16.82-7.73,33.66-11.08,50.6-2.21,11.17-3.58,22.52-5.21,33.8-1.78,12.26-3.56,24.52-5.12,36.81-1.31,10.35-2.43,20.72-3.43,31.1s-1.83,20.68-2.57,31c-.69,9.6-1,19.23-1.83,28.81-.4,4.36-1.74,8.65-2.8,12.94-.18.71-1.15,1.22-1.76,1.83-.44-.77-1.27-1.54-1.28-2.32q-.16-8.76,0-17.54c0-1.74.69-3.46.79-5.21.62-10.74,1-21.5,1.78-32.24.65-9.35,1.48-18.71,2.57-28,1.53-13,3.4-26,5.08-39,1.18-9.08,2-18.21,3.5-27.24,1.73-10.77,3.93-21.47,5.92-32.19,2.29-12.32,4.27-24.71,6.93-37,3.4-15.64,7.34-31.17,11.05-47.18Zm260.42,59.7c2.64,12.47,5.27,24.69,7.43,37,1.74,9.91,2.91,19.91,4.34,29.87,1.71,11.84,3.56,23.66,5.08,35.52.87,6.71,1.12,13.5,1.79,20.24,1.07,10.94,2.31,21.87,3.38,32.81.42,4.29.69,8.59.86,12.9.35,9,.62,18,.86,27,.1,3.75,0,7.51,0,11.27.05,2.66-1.25,1.27-1.54.4-1.34-4-3.06-8.06-3.47-12.21-.77-7.68-.55-15.45-1-23.16-.7-11.06-1.58-22.11-2.55-33.15-.71-8.07-1.52-16.14-2.58-24.17-1.56-11.86-3.39-23.68-5.1-35.52-1.43-10-2.6-20-4.34-29.87-2.28-13-4.89-25.88-7.57-38.77-2.75-13.24-5.49-26.48-8.7-39.61C488.5,1127,484,1111.28,480,1095.42a48.84,48.84,0,0,1-1.15-11.46c0-1.28,1.55-2.57,2.39-3.86.87,1.12,2.17,2.11,2.54,3.38,3,10.18,5.94,20.38,8.59,30.66q4.88,19,9.2,38.1c1.5,6.57,2.47,13.25,3.89,20.09Z"/></g></g></svg>