<svg xmlns="http://www.w3.org/2000/svg" viewBox="0 0 1602.83 1951.43"><defs><style>.cls-1{fill:#670d17;}.cls-2{fill:#006728;}</style></defs><g id="Layer_2" data-name="Layer 2"><g id="Draw_Layer" data-name="Draw Layer"><path class="cls-1" d="M1300.73,700.09c7.55,8.74,15.26,17.34,22.62,26.24,8.7,10.54,17.05,21.36,25.64,32q20,24.74,40,49.37,10.21,12.49,20.8,24.67c1.08,1.24,3.26,1.53,4.93,2.26-.25-2,.12-4.31-.84-5.82-20-31.28-39.48-62.89-60.37-93.56-17.46-25.66-36.15-50.51-55-75.15-16.54-21.56-33.92-42.48-51.3-63.38-10.13-12.18-21-23.77-31.5-35.62a19.17,19.17,0,0,1-2.31-2.38,27,27,0,0,1-1.55-3.66,11.06,11.06,0,0,1,3.19,1.44q10.41,9.56,20.68,19.28c8.79,8.3,17.82,16.36,26.24,25,14.68,15.11,29.29,30.31,43.32,46,16.24,18.19,32.21,36.65,47.58,55.58a918.48,918.48,0,0,1,65.21,90.87c17.49,27.9,36.19,55.06,52.82,83.45a313.87,313.87,0,0,1,24.1,52.58c6.82,19,11,39,16.32,58.56,3,11,1.59,22.06,0,33.1a7.4,7.4,0,0,1-.68,1.64c-.32-.76-.64-1.52-.94-2.28-5.23-13.16-10.34-26.36-15.72-39.46-6.08-14.81-12-29.69-18.72-44.21-9.4-20.34-19.42-40.38-29.26-60.51-1.81-3.71-4-7.25-6-10.82a12.65,12.65,0,0,0-1.86-2c-.91.92-2.65,1.88-2.6,2.75.41,7.74,1.1,15.48,1.77,23.2.66,7.42,1.32,14.84,2.11,22.24,1.12,10.48,2.09,21,3.62,31.4,1.59,10.8,3.64,21.54,5.73,32.26,3.44,17.65,6.74,35.34,10.72,52.87,4.5,19.83,9.29,39.61,14.69,59.21,4.27,15.47,9.61,30.64,14.63,45.9.39,1.18,2.26,2.88,3.08,2.7a5.36,5.36,0,0,0,3.4-3c7.46-22.46,15.38-44.8,21.83-67.56,3.5-12.35,4.44-25.44,6.54-38.19,1.23-7.49,3.21-14.94,3.52-22.46.37-9-.9-18-1-27-.07-4.25,1.11-8.51,1.18-12.78.19-10.88.41-21.79,0-32.66-.38-9.28-1.36-18.56-2.65-27.77-1.4-10-3.41-19.87-5.26-29.78-1.7-9.12-3-18.37-5.43-27.3-3.82-14.13-8.14-28.13-12.73-42A366.93,366.93,0,0,0,1453.62,711a15.66,15.66,0,0,1-1.84-3.23,5.82,5.82,0,0,1,.12-2.25,8.52,8.52,0,0,1,1.4,1.2c20.09,25.71,38.59,52.44,51.82,82.47a471.39,471.39,0,0,1,30.08,94.12c3.31,15.86,5.57,31.95,8.07,48,2.39,15.27,5,30.53,6.52,45.89,1,9.38,0,18.95.22,28.42.3,14.26.86,28.51,1.28,42.76a29,29,0,0,1-.27,3.21,16.25,16.25,0,0,0-1.92-2.41c-.43-.38-1.63-.64-1.78-.43-1,1.32-2.82,3-2.53,4.16,3.25,12.5.46,25.15,1.17,37.69.79,14.1-3.86,27.55-5.1,41.35-1.38,15.41-6.2,29.75-10.92,44.19-7.73,23.65-15.94,47.28-28.63,68.71-11.07,18.72-23.93,36.43-36.63,54.13-6.63,9.24-14.62,17.52-22.34,25.89-.58-11.13-9-15.81-16.18-21.41-1.36-1.07-3.29-1.42-5-2.1,0,2.08-.78,4.46,0,6.19,4,9.18,10.91,15.28,20.82,17.66-3.55,8.38,2.77,15,4.23,22.52,3.76,19.39,8.4,38.63,13.16,57.81,6.59,26.55,13.67,53,20.45,79.48,7,27.32,13.77,54.7,20.84,82,6.43,24.86,13.25,49.62,19.65,74.48,5.18,20.1,9.89,40.32,15,60.44,6.37,25.11,13,50.15,19.42,75.25,5.59,21.9,11,43.86,16.55,65.78.81,3.21,1.81,6.36,2.61,9.57.12.5-.36,1.16-.56,1.74-.24-.52-.52-1-.72-1.57-10.23-27.31-21.12-54.39-30.48-82-10.13-29.85-19.35-60-28-90.35-6.61-23.14-12.19-46.6-17.34-70.11-3.51-16-5.48-32.41-8.18-48.62a25.94,25.94,0,0,0-1.34-4.78c-1-2.55-2.17-2.57-4-.47-22.85,27-44.73,54.71-62.71,85.31-9,15.23-18.47,30.13-27.73,45.17-3.12,5.08-1.85,10.08,4.47,16.86q10.79,11.57,21.68,23c10.64,11.16,21.48,22.14,32,33.41,15.67,16.77,31.13,33.74,46.68,50.62q16,17.35,32,34.71c15.56,16.87,31.39,33.51,46.54,50.74,9.08,10.32,14,22.9,16.35,36.5.48,2.85,1.45,5.62,2.11,8.44a11.4,11.4,0,0,1,.07,2.27A10.46,10.46,0,0,1,1593,1942q-16.29-19.56-32.53-39.16c-13-15.7-26-31.46-39.13-47.09-10.42-12.39-21.18-24.49-31.51-37-11.33-13.67-22.24-27.69-33.53-41.39-7.83-9.5-16-18.66-24-28.08-11.22-13.31-22.26-26.78-33.49-40.09-10.44-12.37-20.89-24.73-31.64-36.84-3.18-3.58-3.29-6,.15-9.29,12.32-11.69,24.81-23.21,36.64-35.38,19.28-19.82,36.23-41.54,48-66.71,7.65-16.37,12.52-33.53,12.94-52,.49-22.1-2.37-43.2-10.16-64.07-8.77-23.51-15.58-47.75-23.51-71.58-.71-2.14-3.11-4.84-5.12-5.24-9.21-1.8-18.6-2.62-27.84-4.27-10.91-1.94-21.73-4.32-32.57-6.61-16.61-3.5-33.31-6.65-49.77-10.75-23.69-5.91-47.25-12.4-70.79-18.91-14.71-4.07-29.27-8.7-44-12.87-1.4-.4-4.19.18-4.62,1.11a7.6,7.6,0,0,0,0,5.74c5.67,12.33,15,21.31,26.06,29a86.31,86.31,0,0,0,41.42,15.6c17.48,1.67,35.34.93,51.15-9.14.29-.18,2.6,1.59,2.78,2.66,1.12,6.48,1.74,13,2.81,19.53q3.86,23.36,8,46.66c.84,4.7,1.15,9.91,3.46,13.85,6.11,10.39,12,11.31,21.86,4.77l2.36-1.57a6.82,6.82,0,0,1,.22,2.54c-1.38,4.3-2,9.25-4.57,12.69a42.6,42.6,0,0,1-23.94,15.74c-4.11,1-9.84-1.75-14-4.19-14-8.19-25.48-19-32.11-34.23a15.57,15.57,0,0,0-3.13-4.67,51.7,51.7,0,0,0-5.42-4.27c-.17,2.52-1.33,5.54-.35,7.47,5.13,10.08,1.31,17.16-6,24.36-14.65,14.38-28.79,29.28-42.93,44.15a130.81,130.81,0,0,0-13.55,16.4c-2,2.92-3.26,3.2-5.15.9-7.33-8.91-14.58-17.9-21.56-27.09-.6-.79.45-3.87,1.61-4.81,18.88-15.27,36.78-31.89,58.87-42.78,3.72-1.83,7.06-4.45,10.49-6.83.65-.46.88-1.53,1.3-2.31-.9-.49-1.78-1.3-2.73-1.41-12.25-1.41-24.56-2.43-36.77-4.12-13.64-1.9-27.41-3.5-40.74-6.79-20.64-5.1-41.27-10.61-61.33-17.61-25.17-8.78-50-18.77-74.54-29.14-18-7.58-35.71-15.9-52.84-25.21-22.2-12.06-44.06-24.85-65.39-38.4-23.5-14.94-46.51-30.7-69.22-46.84-19.18-13.63-37.92-27.94-56.3-42.63-17.67-14.12-34.66-29.08-51.9-43.73-12.5-10.63-24.84-21.45-37.45-32-2.76-2.3-6.37-3.57-9.58-5.31,1.26,3.35,1.89,7.15,3.9,10,15.21,21.3,30.69,42.4,46.05,63.6a13.55,13.55,0,0,1,1.23,3.19,28.48,28.48,0,0,1-2.81-2.18c-11.46-11.42-24-22-34.07-34.52-13.45-16.66-25.32-34.64-37.35-52.41-16.4-24.25-28.25-50.81-36.7-78.72-4.75-15.69-7.58-32-11.38-48-1.12-4.73,1.35-7.53,5.11-9,11.94-4.85,22.63-.06,31.46,6.86,20,15.65,39.15,32.35,58.48,48.82,19.75,16.83,39.26,33.92,58.92,50.85,15.38,13.24,30.6,26.67,46.3,39.51,16,13.07,32.44,25.59,48.78,38.23,23,17.81,45.76,36,69.35,53.09,18.26,13.18,37.23,25.53,56.66,36.92,19.17,11.24,39.09,21.29,59.11,31a430.61,430.61,0,0,0,94.19,33.19c10.18,2.27,20.34,4.62,30.59,6.51,1.87.35,4.13-1.35,6.21-2.11-1.19-2.35-1.87-5.2-3.64-7-7.6-7.63-15.53-14.94-23.31-22.4a4.21,4.21,0,0,1-.65-1.4,5.7,5.7,0,0,1,1.79,0,5.52,5.52,0,0,1,2.18,1.12c2.65,2.57,6.72,4.76,8.62,1.44a7.68,7.68,0,0,0-4-10.59c-7.26-2.61-14-9.23-22.85-4.48-.61.33-2.13-.84-3.15-1.44-24.23-14.44-48.14-29.45-72.74-43.22-47.34-26.49-94.19-53.78-138.81-84.63-23.86-16.5-46.75-34.43-69.67-52.23-15.77-12.24-31-25.18-46.2-38.12-14.69-12.5-29.24-25.18-43.48-38.19-12.24-11.18-24-22.94-35.91-34.78,5.17,3.28,10.49,6.69,15.48,10.54,21.91,16.88,43.61,34,65.61,50.82,28.82,22,57.61,44,86.87,65.43,22.88,16.75,46.43,32.6,69.71,48.81q41.9,29.16,83.89,58.16c2.39,1.65,5.69,2,8.56,2.91-1.19-2.5-2-5.26-3.63-7.45-6.39-8.73-13-17.28-19.53-25.93a19,19,0,0,1-1.57-3.2c1.23.45,2.71.61,3.65,1.41,11.73,9.82,23.31,19.84,35.08,29.62,17.49,14.53,34.89,29.18,52.75,43.26,9.38,7.4,16.8,5.12,21.85-4.93.62-1.22,4.27-1.78,6.19-1.32,9.85,2.39,19.5,5.65,29.41,7.71,5.83,1.22,12,.86,18,1,5.84.16,11.69.21,17.53.06,8.12-.2,13.3-4.13,13.83-11.32a122.15,122.15,0,0,0-3.17-39.49c-4.8-19-8.49-38.26-12.74-57.4-3.75-16.87-7.69-33.69-11.43-50.57-4.25-19.13-8.32-38.31-12.57-57.44-3.11-14-6.44-28-9.58-42-4-17.69-7.78-35.42-11.73-53.12-3.59-16.05-7.3-32.08-10.89-48.13-4-17.69-7.84-35.4-11.76-53.1-3.15-14.25-6.21-28.51-9.47-42.73-5.21-22.71-10.26-45.46-16-68-3.89-15.41-7.51-31.09-13.6-45.66-5.54-13.27-16.4-21-31.61-24.63-20-4.76-39.81-4.88-59.89-4.8-13.38.05-26.76.67-40.14.65-33.18,0-64.37,10.09-95.45,19.6-32.57,10-62.05,26.86-90.19,46.06a433.2,433.2,0,0,0-73.23,62.78c-5.36,5.74-9.43,12.7-14.83,18.39-3.18,3.36-1.86,5.72-.14,8.36q17.8,27.3,35.76,54.51a10.86,10.86,0,0,1,.84,2.26,7.5,7.5,0,0,1-2.33-1.17c-11.82-13.08-23.48-26.3-35.41-39.27-5.71-6.21-8.25-6-13.34,1-6.6,9-13.53,17.82-19.11,27.43-3,5.07-6,3.74-8.73,1.88-16.42-11.27-25.33-27.09-27.69-46.84-2-17.09,4-31.26,14.35-44.37,1.55-2,1.59-7,.13-9.19-13.79-20.14-28-40-42.26-59.83-4.23-5.86-6.14-5.59-10.22.47-9.83,14.61-19.7,29.23-33.07,40.9a274.12,274.12,0,0,1-23.24,17.88c-4.19,2.93-4.72,5.27-1.2,8.92C556.57,798,564,805.2,570.57,813.1c14.81,17.75,29.24,35.82,43.72,53.84,6.94,8.62,13.65,17.43,20.42,26.19a8.68,8.68,0,0,1,.9,2.26,7.11,7.11,0,0,1-2.33-1.12c-13.7-15-27.2-30.12-41.07-44.92-12.82-13.69-26.09-26.94-39.05-40.51q-23.89-25-47.59-50.25c-3.72-4-7.14-8.2-10.9-12.12-2-2.09-1.78-2.22,1-2.52,2.59-.28,5-2,7.59-2.44,3.19-.52,5.24.55,7.86,3.53a326.29,326.29,0,0,0,29.62,29.53c2.21,1.94,8.93,1.55,11.69-.41,9.31-6.62,14.4-16,12.43-27.9-.22-1.33-2.16-3.1-3.57-3.41-36.65-7.94-69.92-23.83-100.89-44.35-23.08-15.3-43.53-34.14-61.64-55a319.45,319.45,0,0,1-42-62.47,271.78,271.78,0,0,1-30.24-95.42,368.5,368.5,0,0,1-3.49-38.95c-.26-7.78,1.59-15.62,2.35-23.45.66-6.76.72-13.6,1.76-20.3a155.11,155.11,0,0,1,4.81-22.1c7.45-24.18,15.65-48.07,27.64-70.52,9.81-18.38,21-35.81,34.55-51.61C404.41,246.69,415,235,426.25,224c14.74-14.4,31.49-26.31,49.49-36.41,5.78-3.24,11.44-6.68,17.24-9.89,1.11-.62,2.57-.61,3.88-.89a16.92,16.92,0,0,1-2.51,2.8c-9.07,6.49-18.43,12.6-27.24,19.42-15.55,12-30.78,24.44-46.14,36.68-17.52,14-30.26,32.08-43.21,50-2.65,3.66-3.23,7.26.62,11.43A287.87,287.87,0,0,0,449.16,353c2.3,1.29,4.85,2.14,7.28,3.2,1.09-3.33,2.86-6.6,3.12-10,.5-6.56,1.2-13.4-.1-19.72a162.27,162.27,0,0,0-8.84-28.94c-2-4.93-6.7-8.76-10.09-13.16a24.08,24.08,0,0,1-1.92-3.67c1.39.66,3.09,1,4.12,2,9.28,9.14,18.9,18,27.38,27.84,2.78,3.22,3.49,3.56,5.87.75q11.88-14.07,23.71-28.17c8.14-9.72,16.23-19.48,24.38-29.2a10.14,10.14,0,0,1,1.87-1.4,7,7,0,0,1-.15,2.26,182,182,0,0,1-29.08,46.65c-2.38,2.77-3.38,6.74-5.35,10.48a32.11,32.11,0,0,1-5.33,1.67,19.59,19.59,0,0,0-1.47,4A30.79,30.79,0,0,1,488,314.9a35.14,35.14,0,0,0,3.66-2.66c5.43-3,11.19-5.5,16.23-9,19.49-13.69,38.67-27.81,58.11-41.58,15.42-10.92,31.08-21.51,46.52-32.39,1.35-.95,1.91-3,2.84-4.55a23.58,23.58,0,0,0-3.95-1.71c-9-2.08-15.43-7.81-21.38-14.33a5.24,5.24,0,0,1-.7-1.4,8,8,0,0,1,2.53-.26c5.46,1.26,10.84,3,16.36,3.88,10.14,1.62,20.32,3.22,30.55,4,13,.94,26,1.23,39,1.36,7,.07,14-.77,21-1.33a3.39,3.39,0,0,0,.55-2.07c-7-4.49-14.08-8.87-21.14-13.27-.78-.49-1.59-.94-2.38-1.41a9.77,9.77,0,0,1,2.46-.46,190.15,190.15,0,0,1,44.26,7.89c27,8.28,54.41,15.46,81.26,24.27,21.36,7,42,16.38,60.39,29.4,15.84,11.19,30.5,24.05,45.8,36a11.22,11.22,0,0,0,6.3,2c.6,0,1.7-3.17,1.85-4.94.62-7.14,8.55-15.59,16.64-17.38,12.08-2.68,23.87,2.25,31.3,14.4,7.21,11.79,13.33,24.23,20.15,36.27,3.69,6.5,7.74,12.82,11.85,19.07.86,1.29,2.75,1.91,4.16,2.84.22-2,1.1-4.13.55-5.85-2.41-7.64-5.18-15.17-7.9-22.7-5.31-14.68-10.69-29.34-16-44a16.26,16.26,0,0,1-.46-3.59,16.62,16.62,0,0,1,2.32,2.89c7.9,15.82,17,31.21,23.29,47.65a620.62,620.62,0,0,1,20.52,64.1c4.42,16.58,8.38,33.7,9.08,50.73.78,18.89-1.57,38.18-10.91,55.44-6.85,12.65-8.07,24.31,3.14,35.16.76.73.88,2.1,1.3,3.17a11,11,0,0,1-3.18-1.22c-9.68-7.79-19.28-15.68-28.93-23.51-14-11.33-28.12-22.42-41.86-34-9.83-8.29-19.25-17.07-28.6-25.89-7.73-7.31-7.37-7.36-13.11,1.64-11.33,17.78-22.9,35.4-34.35,53.09-1.92,3-3.74,6-5.59,9-3.32,5.38-1,9.89,2.62,13.78,19.52,21.27,40.53,40.92,67.38,52.56,18,7.79,36.4,15,56.06,17.39,14,1.66,28.13,1.82,42.19,2.86,5.91.44,6.63-4.38,7.52-7.8,5.21-19.89,9.93-39.9,14.84-59.85a11.27,11.27,0,0,1,1.35-3.44c2.51-3.88,1.56-5.64-3.06-6.34-6.82-1-13.57-2.57-20.34-3.94a27.27,27.27,0,0,1-3-.95c1.1-.57,2.19-1.6,3.3-1.63,12.69-.27,25.36-.69,37.51,4.3,7.08,2.91,7.74,2.31,6.84-4.93-2.73-22-5.72-43.87-8.33-65.84-1.12-9.43-1.22-19-2.39-28.39-1.42-11.46-3.62-22.82-5.19-34.25-1.15-8.34-1.65-16.76-2.76-25.1-1.61-12-3.68-24-5.24-36-1.16-8.93-1.7-17.94-2.75-26.89-1.18-10-2.64-19.93-4-29.9q-1.37-10.22-2.67-20.45c-2.23-17.51-4.4-35-6.68-52.54-1.24-9.46-2.53-18.91-4-28.33-1.63-10.32-3.68-20.58-5.16-30.93-.37-2.58,1.19-5.4,1.12-8.08-.22-8-1.35-16.09-1.16-24.11.69-29.72,9.9-56,33.29-75.62A59.88,59.88,0,0,1,1110.29,11a11.61,11.61,0,0,1,2.42.56c-.76.69-1.43,1.82-2.31,2-28,6.25-39.28,26.93-43.91,52.28-1.53,8.39,1.06,17.49,1.49,26.28.7,14.47,4.78,28.11,10.26,41.31,3.94,9.47,8.52,18.72,13.33,27.78,3.12,5.87,8.9,7.73,14.38,4.25,29.23-18.6,57.7,6.39,66.88,28,.64,1.52,2,2.75,3,4.11.31-1.6,1-3.23.86-4.79-.9-10.32-1.83-20.65-3-30.94-1.47-12.3-3.24-24.56-4.88-36.84-.88-6.6-1.73-13.2-2.68-19.78-1.74-12-3.63-24-5.29-36-1.89-13.62-2.74-27.44-5.61-40.84-2.52-11.75-9.41-21-22.15-24.06-1-.23-1.89-.51-2.83-.76a23.12,23.12,0,0,1,2.56-1.89c6.68-3.7,16.79-1.09,21.37,5.12,6.68,9,8.56,19.68,10.59,30.27,2.38,12.38,4.66,24.78,6.63,37.23,1.63,10.28,2.49,20.69,4.14,31,1.89,11.88,4.5,23.65,6.38,35.53,1.7,10.78,2.53,21.7,4.29,32.47,2.29,14.08,5.27,28.05,7.66,42.11,1.67,9.82,2.69,19.74,4.3,29.56,2,12.44,4.51,24.81,6.54,37.26,1.57,9.62,2.57,19.34,4.13,29,2,12.66,4.6,25.24,6.56,37.91,2,13.07,3.47,26.23,5.43,39.32,1.79,11.94,4,23.83,5.91,35.75q2.41,14.79,4.71,29.6c1.91,12.24,3.7,24.51,5.71,36.75,1,6.19,2.49,12.3,3.6,18.48,1,5.69,1.84,11.4,2.65,17.12a12.35,12.35,0,0,1-.39,3.15c-.3-.83-.63-1.66-.9-2.5-7.56-23.52-15.53-46.92-22.44-70.64-2.5-8.58-9.34-9.9-15.2-10.24-14.8-.88-29.81-1.42-43.69,6.23-17.69,9.75-30.32,23.6-35.54,43.21a22.63,22.63,0,0,0,5.87,22.6c13.88,14.34,27.42,29,41.05,43.6,11.51,12.32,22.9,24.74,34.41,37.05q29.88,32,59.85,63.84c9.5,10.09,19.18,20,28.7,30.11a23.69,23.69,0,0,1,4,5.91c-7.52-1.12-9.41.3-7.49,6.58.82,2.66,3.54,4.74,5.4,7.08a71.12,71.12,0,0,0,3.67-7.43c.5-1.35.09-3,.09-4.57ZM667,821.38c1.7-1.25,3.72-2.22,5-3.79,4.71-5.66,5.13-15.84.61-19.68-1.55-1.32-4.28-1.27-6.47-1.85a20.71,20.71,0,0,0-1.1,4.54c-.13,6.48-.06,13-.72,19.45-5.57-.9-8.15,1-7.4,7.06s.89,11.95,1.45,17.92a21.54,21.54,0,0,0,1.29,4.34c1.75-1.08,4.85-2,5-3.29.74-5.56.55-11.24.83-16.87a26.34,26.34,0,0,1,1.47-7.83Zm70-119.29c-3.12,3.76-2,7.43.34,11a37.26,37.26,0,0,0,4.28,5.53c.69.7,2.64,1.33,3.07.95,2.91-2.64,6.57-5.11,8-8.49,1.75-4-2.51-5.92-5.25-8.45-3.59-3.32-6.81-2.47-10.48-1.84.43-4.85-.34-8.82-5-11.9-5.34-3.51-10-8.05-15-12.11C702.63,665.11,688.59,653.18,674,642q-27.91-21.47-56.63-41.87c-5.45-3.89-12-6.43-18.26-8.9-1.92-.75-4.74.82-7.14,1.32,1,1.7,1.77,3.81,3.23,5,6.53,5.5,13.29,10.74,20,16.1,15.83,12.71,31.55,25.57,47.52,38.13,19.56,15.38,39.3,30.55,59,45.7,4.43,3.4,9.09,6.78,15.24,4.63ZM756.26,233.6c3.25,2.35,6.53,4.66,9.69,7.12.39.31.14,1.45.18,2.21-2.32.07-4.75.61-7,.14-12.64-2.67-25.2-5.67-37.84-8.32-2.44-.51-5.11.06-7.67.14.65,2.42,1,5,2.06,7.21.84,1.69,2.61,3,4.07,4.31,5.12,4.75,10.34,9.4,15.41,14.2.8.75,1,2.1,1.55,3.17-1.31.6-2.63,1.74-3.92,1.7-2.71-.09-5.4-1.08-8.11-1.18-16.33-.54-32.66-1.09-49-1.33-15.19-.23-30.26.36-45.26,3.8-23.07,5.29-45.46,12.14-66,24.16-24.49,14.34-45.38,32.49-61.77,56-12.12,17.38-21.31,35.95-26.5,56.34C474,412,474,421.21,473,430.2c-.4,3.58-1.51,7.24-1.12,10.73,1.22,10.71-1.27,20.1-8.5,28.15-.53.59-2,1.27-2.23,1.06a4.3,4.3,0,0,1-1.38-2.66c-.11-9.85-.33-19.71,0-29.56.17-4.87-2.39-6.41-6.33-7-1.52-.24-3.19.28-4.65-.09-22.31-5.64-44.54-11.57-66.91-17-10-2.41-20.21-3.84-30.34-5.59-3.34-.58-7.08.11-5,4.43,3.41,7.07,6.8,14.79,12.28,20.07,7,6.72,15.44,12.77,24.36,16.43,13.17,5.4,26.27,12.35,41.43,11.17,1.72-.14,3.92,1.52,5.35,2.91,8.79,8.48,16.65,18,28.71,22.49,1.81.67,3.93,4.88,3.41,6.75-3,10.65.91,18.49,7.58,26.65,14.34,17.53,31.19,31.82,51.15,42.23,15,7.79,31.28,11.47,47.77,15.12,20.91,4.62,41.24,11.85,61.87,17.79,13.46,3.88,27,8.73,41.09,3.1a70.22,70.22,0,0,1,41.28-4,3.2,3.2,0,0,0,2.64-1.57,20.53,20.53,0,0,0,1.35-6.74c-.05-4,.88-4.07,4.51-2.73,6.87,2.52,14.12,4.86,21.46,1.73,4.34-1.86,8.29-4.63,12.61-6.55,17.06-7.61,34.08-15.34,51.35-22.45A57,57,0,0,0,837,527.44c4.33-8.43,8.28-16.34,17.4-22.05,25.93-16.25,30.1-42.91,28.86-70.62-.5-11.15-4-22.19-6.5-33.21-.49-2.17-1.28-5.89-5.42-3.26a5.22,5.22,0,0,1-3.73.48c-1.52-.38-3.83-1.18-4.08-2.21a6.56,6.56,0,0,1,1.49-4.95c.93-1.13,2.91-1.37,4.38-2.09,2.91-1.41,4.49-2.74,2.28-6.55-4.34-7.46-8.07-15.28-11.75-23.1C854.35,348,849,336,843.58,324a32.67,32.67,0,0,1-1.11-3.34,23.63,23.63,0,0,1,3.27,2.45c6.49,6.84,12.7,14,19.49,20.48,1.67,1.61,5.12,1.42,7.79,1.87.29,0,1.23-1.23,1.13-1.73-.76-3.66-1.27-7.46-2.68-10.87a242.32,242.32,0,0,0-10.72-23.53c-2.79-5.14-2.87-9.73-1.29-15.11,2.72-9.26,1.18-17.72-6-24.8-16.87-16.6-37.32-28-58.78-36.71-15.61-6.33-32.91-8.53-49.51-12.33-1.66-.38-3.7.86-5.56,1.36,1.27,1.43,2.32,3.16,3.83,4.25a82.81,82.81,0,0,0,12.83,7.6Zm493.16,1166.24a42.4,42.4,0,0,1-2-5.19c-.84-3.5.91-5.05,4.17-4.09,10.1,3,18.49-1.11,26.5-6.33,1.44-.94,2-3.56,2.4-5.52.09-.46-2.33-1.6-3.72-2.07a69.24,69.24,0,0,0-7.78-2.11c-19.43-4-39.21-6.87-58.22-12.38-20.67-6-40.72-14.19-60.86-21.88-25.3-9.67-50.55-19.51-75.6-29.82-23.34-9.61-46.42-19.84-69.54-30-13.16-5.78-26.14-11.94-39.23-17.89a19.18,19.18,0,0,0-3.23-.86c.39,1.13.84,2.24,1.16,3.38.35,1.29.59,2.61.88,3.92a25.82,25.82,0,0,1-3.67-2c-7.63-5.77-15.26-11.52-22.77-17.43q-19.38-15.21-38.62-30.62-21.76-17.55-43.33-35.34c-8.81-7.27-17.47-14.72-26.16-22.13q-18.71-16-37.34-32.07a10.47,10.47,0,0,1-1.64-2.79,16.79,16.79,0,0,1,2.73,1.32c9.29,6.56,18.5,13.22,27.86,19.69,1,.67,2.71.21,4.1.28-.64-1.1-1.06-2.44-2-3.26-8.68-7.91-17.39-15.8-26.2-23.58-14.61-12.93-29.33-25.73-43.94-38.66-16.27-14.4-32.26-29.13-48.76-43.24-9.89-8.46-21.36-12.78-34.6-8.51-1.41.45-3.39,1.63-3.56,2.71s1.3,2.76,2.38,3.85a55.29,55.29,0,0,0,5,4c21.23,16.86,42.73,33.38,63.57,50.71,12.76,10.63,24.41,22.59,36.71,33.78q26.58,24.17,53.39,48.06c14.4,12.83,29,25.47,43.47,38.18,21.51,18.85,43,37.78,64.56,56.51,14.33,12.41,28.8,24.67,43.51,36.62,2.28,1.85,6.21,1.68,9.37,2.44.58-2.43,1.2-4.85,1.7-7.29.17-.85,0-1.78.05-2.66a8.39,8.39,0,0,1,.61-1.74c.23.55.49,1.08.7,1.64,2.47,6.81,5,13.62-.09,20.4-2.24,3-2.14,5.28,1.48,7.28,20.6,11.41,40.87,23.45,61.77,34.29,30.6,15.86,63.23,26.7,96.26,36.2,16.35,4.7,33.08,8.11,49.63,12.12,9.08,2.2,18.09,4.72,27.24,6.58,8.48,1.71,17.08,2.8,25.65,4a18,18,0,0,0,4.46-.44,25.92,25.92,0,0,0-1.2-4.25c-2.13-4.45-4.41-8.84-7.29-13.91Zm84.63-243.25a5.13,5.13,0,0,0,.5,1.79q16.92,21.66,33.9,43.28,21,26.94,41.93,53.94c2.72,3.49,5.34,4.22,8.35.28q10.23-13.44,20.62-26.78c6-7.7,7.26-15.55,2.81-24.75-4.65-9.58-7.93-19.81-12.19-29.59-7.38-16.94-14.8-33.87-22.74-50.55-3.22-6.77-7.72-11.63-16.8-12.69-11.54-1.34-21.19-7.38-24.44-20.19-2.89-11.42-6.29-22.72-9.25-34.14-3.33-12.87-9-24-21.6-30.15q-26-12.78-52-25.73c-15.47-7.71-30.87-15.55-46.36-23.21-1.94-1-4.22-1.22-6.33-1.81a65,65,0,0,0,1.65,6.35c3.71,10.23,7.44,20.45,11.33,30.62,4.92,12.84,7.91,27,15.41,38.16,23.93,35.46,49.56,69.76,75.2,105.17Zm-69.31-362.53q18.62,25.28,37.25,50.52a52.46,52.46,0,0,0,4.54,4.79c.29-2.73,1.38-5.66.74-8.15-5.79-22.21-12-44.33-17.84-66.52-2.09-7.89-5.61-16.09-5-23.87,1.31-16.85-5-30.8-13.77-43.82-7-10.44-15.68-19.81-23.85-29.46-18-21.24-35.52-42.87-54.29-63.38-19.4-21.18-40-41.23-60.14-61.76-4-4.12-8.43-7.94-12.18-12.3-6.29-7.32-12.21-14.78-7.64-25.67.77-1.86-1.88-7.31-2.51-7.23-3.67.42-7.88,1.13-10.66,3.33-7,5.58-12,13.56-21,17-1.91.73-3.58,3.81-4.12,6.1-4,16.81-9.41,33.47-8,51.06.42,5.15,3.29,9.28,8.67,11.56,5,2.13,10.12,1.6,12.4-2.46,3.24-5.75,6.51-3,9.83-1.56a35.57,35.57,0,0,1,7.93,4.95c9.23,7.29,18.09,15.08,27.63,21.91,3.32,2.37,8.22,2.53,12.4,3.7.41-3.69.73-7.4,1.26-11.07a31.22,31.22,0,0,1,1.34-4.56c1.1.86,2.66,1.48,3.23,2.6,3.39,6.8,7.14,13.51,9.66,20.63,3.44,9.71,4.69,20.35,9.07,29.54,5.68,11.94,13,23.24,20.54,34.11,14,20.07,28.66,39.72,43.25,59.38,10,13.47,20.37,26.66,31.24,40.64ZM1132.13,444.19c9.1-2.67,18.09-5.87,27.34-7.86,11-2.37,22.14-4,33.29-5.36a88.43,88.43,0,0,1,16.19,0c6.41.39,9-1.65,7.81-7-4.43-20.14-7.81-40.58-13.56-60.33-11-37.76-18.57-76.62-34.51-112.84-6-13.68-18.44-19.6-33.23-11.08-9.83,5.66-20,10.9-31.32,10.81-5.61-.05-7.08,2.61-7.13,5.91a218.26,218.26,0,0,0,1.27,29.38c1.65,13.43,4.49,26.71,6.47,40.11,2,13.65,3,27.49,5.53,41,4.36,22.93,9.47,45.72,14.69,68.48.73,3.2,3.82,5.85,7.16,8.76Zm-742.4,89.3c1.1,1.54,2.18,3.11,3.31,4.63,12.52,16.89,26.1,32.73,42.22,46.44,15,12.78,30.63,24.49,47.73,34.42,16.38,9.52,32.06,20.26,48,30.52.74.47,1.11,1.53,1.65,2.31a20.68,20.68,0,0,1-2.74-.83c-13.85-6.26-27.83-12.22-41.47-18.9-22.19-10.84-41.37-26.07-59.75-42.34-9.46-8.38-18.73-17-28.13-25.41a40.33,40.33,0,0,0-29.48-10.74c-1.73.06-3.41,1.51-5.11,2.33.82,1.41,1.34,3.16,2.49,4.18,14.9,13.27,29.92,26.41,44.85,39.64,12.37,11,24.34,22.37,37.09,32.85,11.41,9.38,23.74,17.51,38,22.32,16.36,5.5,32.78,10.93,48.76,17.4,9,3.64,16.78,5,24.94-1.45,4.07-3.2,8-1.15,11.19,2.22,6.62,7,13.15,14.12,19.85,21.07.83.86,2.4,1,3.63,1.49.4-1.52,1.29-3.11,1.08-4.53a15.21,15.21,0,0,0-2.26-5c-6.17-10.56-12.56-21-18.57-31.63-13-23-25.44-46.37-38.9-69.12-4.12-7-9.87-13.94-16.59-18.15-9.46-5.91-20.4-9.57-30.92-13.63-21.25-8.22-42.76-15.8-64-24.15-14.09-5.55-26.6-13.92-38.14-23.74-3.33-2.83-8.12-1.64-8.61,2.4a20.65,20.65,0,0,0,1.3,10c2.12,5.12,5.19,9.84,8.52,15.4Zm943,420.51c-1.78-8.15-3.36-16.35-5.37-24.44-6.26-25.18-15.43-49.24-30.06-70.8-11.13-16.4-23-32.3-34.8-48.24-18.25-24.68-36.7-49.22-55.1-73.8-8.12-10.86-16.32-21.67-24.49-32.5-.61-.8-1.25-1.58-1.88-2.37-.53.89-1.49,1.78-1.51,2.68-.13,6.74-1,13.64.12,20.18,3,17.28,6.59,34.48,10.55,51.57,6.3,27.14,18,51.74,36.41,72.84,12.16,14,25.36,27,37,41.38,14.72,18.09,28.65,36.84,42.35,55.73,9.07,12.5,17.08,25.77,25.71,38.61,1.13,1.68,3.08,2.82,4.65,4.21.57-2,1.9-4.08,1.6-5.92-1.5-9.3-3.42-18.54-5.2-29.13Zm24-96c-6.44-9.55-12.8-19.15-19.35-28.62-2.56-3.7-13.19-7.67-15.43-5.11s-1.81,7-2.52,10.66a4.77,4.77,0,0,0,0,2c4.27,17.55,8.44,35.12,12.91,52.61,3,11.81,6.92,23.41,9.61,35.29,3.2,14.09,5.12,28.47,8.31,42.56,6.8,30,14.36,59.82,21,89.84,3.28,14.83,7.67,29.12,14.87,42.49.91,1.69,2.89,2.81,4.38,4.2,1.18-1.7,3.09-3.25,3.43-5.1,3.46-19.11,7.28-38.18,9.79-57.43,2.48-19,.57-38-1.52-57-2-17.79-6.45-34.86-12.15-51.64-4.69-13.79-9.65-27.55-15.62-40.81-5.07-11.26-11.75-21.79-17.71-34ZM701.62,692.1c-3.4-2.52-6.87-5-10.2-7.56-13.76-10.78-27.3-21.85-41.25-32.37-19.07-14.38-38.27-28.6-57.73-42.44C581.58,602,570,595.34,558.89,587.9c-4.19-2.81-3.68.4-3.1,2.27A77.72,77.72,0,0,0,561,603.33c7.86,15,15.82,29.9,24.09,44.66,4.55,8.11,9,16.56,17.72,21.16,3.62,1.91,7.79,2.8,11.3,4.85,7.69,4.46,6.81,13.4,7.48,20,1,9.3,2.15,17.61,8.2,25,3.69,4.52,6.52,9.73,9.9,14.52,9.09,12.91,18.31,25.72,27.36,38.66,2.46,3.51,4.18,1.6,5.64-.57,2.08-3.09,3.45-6.71,5.77-9.57,12.43-15.34,25.21-30.4,37.54-45.81,4-4.94,3.3-9.25-1.45-12.73-4.36-3.19-8.18-7.13-12.9-11.41ZM1380,1345.19c5.13,1.57,10.29,3,15.37,4.74,8.95,3,17.81,6.32,26.76,9.36,3.88,1.31,7,1.81,6.66-4.41-.41-8.69-2.93-16.22-9.32-22.15-9.58-8.9-19.23-17.75-29.06-26.37-7.75-6.8-15.73-13.33-23.77-19.79q-19.2-15.45-38.6-30.64c-7.52-5.9-15-11.79-22.79-17.38-4.69-3.38-9.5-1.27-11.27,4.27-.49,1.54-1.67,2.86-2.49,4.3-5.37,9.34-15.13,13-23.62,18.3q-13,8.13-25.81,16.49c-4.47,2.93-4.07,5.14.94,7.37,20.25,9,40.1,19,60.65,27.28,24.94,10,50.43,18.7,76.35,28.63ZM955.52,598.13c-7.5-6-14.8-12.26-22.53-17.94-20.2-14.86-40.33-29.84-61-44-15-10.28-11.41-11.19-24.32-2.54C832.3,543.91,817.45,555,802.55,566c-2,1.51-4.35,3.78-1.25,7.35,8.13,9.36,15.75,19.18,23.64,28.76,6.69,8.12,13.82,15.9,20.14,24.3,9.42,12.53,17.71,14.63,31.7,7.87Q904.2,621,932,608.47c7.64-3.46,15.69-6,23.55-10.34ZM449,395.54c-1.57-4.24-2.89-8.58-4.77-12.68-2.15-4.67-6.92-9.19-6.78-13.65.3-9-5.51-13.27-10.62-18.43-1.47-1.48-3.42-2.48-5.06-3.82-15.08-12.38-29.87-25.16-45.33-37.06-8.86-6.82-9.1-7.41-13.65,4a50,50,0,0,0-1.75,7.27c-1.78,7.7-2.84,15.67-5.54,23s-6.72,14.3-1.28,22.06a5.25,5.25,0,0,1-2.18,1.91c-5.6,1.48-7.11,4.5-4.63,9.91,1.1,2.4,1.11,5.31,1.63,8,1.32,6.78,4.38,12.1,11.56,14.18q43.11,12.51,86.21,25.08c3.44,1,4.36-.33,3-3.66a29.19,29.19,0,0,1-2.16-16c.49-2.92.9-5.85,1.34-10.11Zm801,571.79c11.79,6.9,23.63,13.73,35.36,20.73,16.75,10,33.39,20.12,50.18,30,1.75,1,4.18.93,6.3,1.36-.44-2.75-.69-5.54-1.39-8.22a12.28,12.28,0,0,0-2.29-3.7c-16.93-23.39-33.68-46.93-50.91-70.11-11.55-15.54-23.74-30.6-35.71-45.82-8.57-10.9-17-21.94-26-32.49-5.45-6.4-11.79-12.05-17.85-17.92-.8-.76-2.32-.78-3.5-1.14-.29,1.47-1.1,3.07-.78,4.39,1.8,7.44,4.06,14.76,5.81,22.21,5.23,22.27,10.16,44.6,15.51,66.84,1.72,7.19,2.86,15.27,7,20.92,4,5.44,11.57,8.28,18.23,12.93ZM988.84,471.51c-1.27-9.52,1.95-17.84,6.64-25.88,4.85-8.34,3.29-14.9-3.92-20.8C977.92,413.68,964.48,402.3,951,391c-11.21-9.39-22.37-18.84-33.61-28.19-.89-.73-2.3-.84-3.47-1.24-.34,1.12-1.08,2.28-1,3.35.76,7,2.51,13.93,2.41,20.87-.16,10.29-2.37,20.58-2.15,30.84.11,5.21,2.28,11.74,5.87,15.25,9.48,9.27,20.36,17.08,30.46,25.73,11.35,9.72,22.41,19.78,33.75,29.52,1.15,1,4,1.56,4.93.85,1.23-.88,1.89-3.28,1.86-5-.07-3.38-.78-6.74-1.23-11.44Zm362.54,721.07c-15.07-20.4-30.51-40.55-45.11-61.29-13.84-19.66-26.82-39.93-40.12-60-2-2.93-3.31-6.29-5.51-9-1.59-2-4.1-3.18-6.2-4.72-.08,2.38-.65,4.86-.15,7.11,1.48,6.66,3.19,13.29,5.16,19.83,4.09,13.61,8.1,27.26,12.71,40.7,5.71,16.62,19.28,27.62,30.72,39.8,29.61,31.54,60.08,62.27,90.33,93.2,1.94,2,5,2.94,7.55,4.19.15.07,1.73-1.76,1.53-2.21-1.85-4.08-3.35-8.51-6.07-12-14.55-18.48-29.42-36.7-44.84-55.68ZM712.28,620.12c-6.61-9.73-15-16.66-27.35-17.31-9.58-.51-19.17-1.1-28.76-1.24-3.27,0-6.56,1.21-9.84,1.86,2.34,2.8,4.31,6.05,7.07,8.33,13.36,11,27.06,21.59,40.4,32.61,12.3,10.16,24.19,20.84,36.52,31a97,97,0,0,0,15.16,10c3.51,1.91,4.3,2,6.14,7.32.13.37.59.63.83,1,2.63,3.91,12.57,7.08,16.71,5,1.1-.54,2.46-2.35,2.29-3.33-.88-5.16,0-10.67-4.28-15.11q-20.49-21.36-40.52-43.15c-4.81-5.21-9.15-10.85-14.37-17Zm720.4,471.16c.31,1.65.49,3.34,1,4.94,4.1,13.84,8.28,27.65,12.36,41.5,5,17,9.92,34.08,15,51.08.35,1.19,1.83,3,2.5,2.92a5.91,5.91,0,0,0,3.77-2.54c4.17-7.35,8.58-14.63,11.89-22.37,1.93-4.52,3.36-10.06,2.6-14.76-2.42-15-5.68-30-9.15-44.78-3.42-14.61-10.57-26.14-26.54-30.13-5-1.25-9.68-2.37-13.73,1.31s-1.88,8.06.36,12.83Zm-52,181.27c10.18,9.74,20.44,19.4,30.5,29.26,2.9,2.84,3.93,2,4.1-1.46.1-1.9.26-4.2-.65-5.68-4.8-7.82-8.85-16.52-15.15-23-35.43-36.18-71.4-71.82-107.26-107.57a203.55,203.55,0,0,0-17.94-16.33c-2.27-1.78-6.18-1.46-9.35-2.1.55,2.9.12,6.64,1.78,8.57,11.48,13.37,23.07,26.67,35.26,39.39,15.49,16.16,31.59,31.75,47.42,47.58l31.29,31.29ZM762.93,628.12q-11.25-10.57-22.5-21.16A38.81,38.81,0,0,0,713,596.16c-5.16,0-7.05,2.73-5,7.57,1,2.27,2.88,4.21,4.63,6.06,9.19,9.74,18.61,19.29,27.69,29.14,12.83,13.91,25.38,28.07,38.22,42a5.5,5.5,0,0,0,4.87,1.16,177.55,177.55,0,0,0,19.26-8.59c4.3-2.32,4.74-5.42.52-9.22-13.17-11.84-26-24.06-40.29-36.13ZM984.18,345.56c-8.47-11.78-10.36-19.29-29.81-12-5.94,2.23-11.85,4.56-17.85,6.63s-6.55,3.16-2,7.54a223.76,223.76,0,0,0,17.18,14.61q23.29,18.24,46.86,36.12c2,1.5,4.79,1.89,7.22,2.79.1-2.81.27-5.63.25-8.45,0-.49-.94-.91-1.18-1.48-2.57-6.12-4.92-12.19-4.21-19.18.27-2.61-1-5.81-2.58-8.11-4.13-6.12-8.78-11.89-13.89-18.47ZM758.93,585.47c-5.3,1.33-10.73,2.29-15.85,4.11-4.45,1.58-5,4.68-1.31,8q7.5,6.82,15,13.66c15.62,14.28,31.11,28.71,46.92,42.78,5.81,5.17,12.26,10.15,20.83,5.63,1.33-.7,3.15-2.89,2.86-3.81a25.15,25.15,0,0,0-4.33-8.8c-5.37-6.34-11.36-12.15-16.83-18.4-7.36-8.43-13.92-17.65-21.86-25.46-7.08-7-12.09-17.3-25.42-17.76Zm765.72,532.47c.78-4.34,2.16-8.68,2.15-13,0-3-1.1-7.39-3.2-8.64-2.79-1.66-6.66-.43-8.34,3.76-1.83,4.56-4.08,9-6.15,13.43-13,28.14-25.75,56.42-39.31,84.3-4,8.17-4,15.57-1.07,23.53.37,1,1.56,2.4,2.43,2.44,1.36.06,3.41-.46,4.07-1.45,3.77-5.72,7.7-11.41,10.68-17.55,9.76-20.14,19.33-40.38,28.56-60.78,3.72-8.2,6.37-16.89,10.18-26Zm-193.93,115.29a35.82,35.82,0,0,1-4.59-3.32c-8.84-8.72-17.51-17.61-26.43-26.24a33.42,33.42,0,0,0-7.82-5.15c-1.25-.66-3-.42-4.48-.58.06,1.82-.36,3.83.27,5.43a61.47,61.47,0,0,0,5.13,10.5c3.69,5.83,6.74,12.67,11.86,16.91,23.13,19.13,46.88,37.53,70.46,56.11,1.89,1.48,4.25,2.35,6.39,3.51a86.47,86.47,0,0,0-1.4-9c-.29-1.11-1.75-1.94-2.72-2.84-5.92-5.5-12-10.85-17.76-16.5-9.51-9.29-18.84-18.78-28.91-28.85ZM721.61,718.75c-14.4,18-29,35.8-43.12,53.94a14.07,14.07,0,0,0,1.87,19.41c3,2.65,5.42,3,7.91-1.2a259.41,259.41,0,0,1,15-23c9.55-12.76,19.56-25.19,29.55-37.61,3-3.78,4.35-8.2.67-11.07-2.27-1.76-7-.41-11.89-.46Zm116.62-90c-12.21-14.44-24.26-29-36.73-43.24-4.43-5-8.65-11.15-16.51-11.25a10.6,10.6,0,0,0-5.83,1.9c-.64.45-.36,3.08.28,4.32a45.1,45.1,0,0,0,5.11,7.84q10.05,12.2,20.38,24.14c10.35,11.92,20.71,23.84,31.35,35.49,2.86,3.13,6.5,4.5,10.49.42s1.72-7.29-.84-10.56c-2.26-2.87-4.68-5.6-7.7-9.06ZM1460,1242.56c2.5-7.42-4.69-8.35-7.92-12-3.91-4.43-6.12-2.75-8.84,1.38s-6.22,7.62-9.35,11.43c-3.93,4.78-8,9.46-11.68,14.44-3.32,4.49-1.86,9.58,3.06,14.08,4.55,4.16,7.82,1.9,11.07-1.65,4.84-5.3,9.82-10.49,14.51-15.93,3-3.51,5.67-7.37,9.15-11.74Zm-4.66-189.93a16.33,16.33,0,0,1-1.31-2.78c-2.26-8.83-4.29-17.73-6.83-26.47-.54-1.84-2.93-3.13-4.46-4.67-.69,1.22-1.72,2.37-2,3.69-2.32,10.59-4.66,21.18-6.62,31.85-.62,3.36-1.5,8,.2,10.19a22.18,22.18,0,0,0,20.67,8.75c5.63-.56,4.83-3,3.69-6.63a131,131,0,0,1-3.33-13.93ZM1018.83,621.46c12.27,0,24.55,0,36.82,0a57.45,57.45,0,0,0,6.5-.73c-1.83-2-3.55-4.05-5.53-5.84a5.66,5.66,0,0,0-3.39-1.33c-5.39-.14-10.79.06-16.19-.08-13.64-.38-27.28-1.1-40.91-1.06-2,0-4,3.37-6,5.18,1.75.85,3.45,2.29,5.27,2.46,7.33.69,14.7,1,23.38,1.44Zm-118-293.9c2.22,6.41,4.35,12.85,6.72,19.2.71,1.91,2.09,3.57,3.16,5.35,1.15-1.67,3.2-3.29,3.29-5,.37-7.16.2-14.35.14-21.53-.05-5.7-4.78-7.16-8.75-7.53-1.25-.12-3,5.3-4.56,9.52Zm214.58,326.55c0,2.64-.59,5.48.18,7.87s2.9,4.06,4.43,6.07c1.53-1.49,3.77-2.71,4.45-4.52,1.78-4.78,3.61-9.74,4.1-14.76.7-7.2-.18-7.66-6.62-3.62-2.71,1.7-4.39,5-6.54,9Zm-727.73-56c-1.86-4.08-3.24-8.52-5.85-12-.87-1.18-4.91-.19-7.42.25-.28,0-.61,3.3,0,4.58,2.77,5.5,5.83,10.85,8.93,16.16.52.89,2.21,2.11,2.59,1.88,1.21-.72,2.74-2,2.9-3.17.29-2.27-.3-4.65-1.19-7.65Zm1003,267.24c2.33,4.11,4.65,8.24,7.12,12.27a12.45,12.45,0,0,0,2.74-1.2c-1.63-4.84-3-9.85-5.35-14.33-1.72-3.26-4.79-5.8-7.26-8.66a99.18,99.18,0,0,0,2.75,11.92ZM1110.13,622.12c-2.56-.1-6.78-1.18-7.39-.14-2.5,4.24,1.49,6.85,4.29,8.74,2.26,1.52,5.58,1.44,8.43,2.07.13-2.09,1-4.52.19-6.2s-3.17-2.56-5.52-4.47ZM643,1034.64c2.62,2.55,4.81,1.8,5.93-1.27,1.75-4.77-3.56-12-8.6-12a2.79,2.79,0,0,0-1.64.88,111.72,111.72,0,0,0,4.31,12.41Zm567.13-31.32c.44-3.61,1.42-7.27,1.09-10.8-.15-1.64-2.87-3-4.43-4.53a19.74,19.74,0,0,0-2.18,3.57c-2.79,7.89-1.13,12.05,5.52,11.76Zm-857-470.5q-2.65-3.66-5.32-7.33c-.68,2.23-1.35,4.47-2.05,6.69-.06.19-.47.39-.43.46a71.55,71.55,0,0,0,3.46,7.67c.32.55,2.87.62,3,.38a21.48,21.48,0,0,0,1.38-7.87Zm336.54,585.79c-2-1.56-3.92-3.22-6-4.6a3.49,3.49,0,0,0-2.65.07c-.4.15-.86,1.52-.66,1.73,3.43,3.66,6.92,7.24,10.52,10.73.23.22,2.09-.68,2.06-.81a15.25,15.25,0,0,0-3.23-7.12Zm382.53-505.15c-3.36,5.87,2.82,6.47,5.31,8.89.32.31,3.58-2.17,5.25-3.61a2.93,2.93,0,0,0,0-2.51,40.11,40.11,0,0,0-10.58-2.77ZM472.37,370.88l-4.67-.23q1.07,6.78,2.11,13.56c.59-.18,1.6-.23,1.7-.55,1.17-3.94,5.25-7.56.86-12.78Zm-114,99.3c3.83,2,7.6,4.11,11.53,5.89.73.33,2.23-.5,3.06-1.18.33-.28-.05-2.27-.32-2.31-4.58-.83-8.07-6.64-14.27-2.4ZM1530,1086c-4.87.86-.49,5-2.44,6.89,2,.15,4.12.74,6,.29,1.21-.3,2.06-2.1,3.07-3.23a21.67,21.67,0,0,0-6.61-4ZM359.08,572.14c-.1,2.13-.2,4.25-.29,6.38a65.25,65.25,0,0,0,7.17-2.78c.49-.25.66-2.49.15-3.06-1.69-1.88-3.42-5.39-7-.54Zm38.65-85.3c2.56-2.84,2.85-4-.23-5.26-2.87-1.17-6.47-.57-9.76-.75a29.3,29.3,0,0,0,3.69,3.62c1.5,1,3.3,1.61,6.3,2.39Zm757.72,157.94c-.63-1.07-1-2.56-1.94-3.11-1.28-.75-3-.78-4.49-1.12.47,2,.48,4.28,1.6,5.73.58.74,3.16-.06,4.83-1.5Zm199.26,193.93c-1-2.67-2-5.36-3.12-7.94-.08-.18-1.88.42-2.88.66a29,29,0,0,0,6,7.28Zm70,38-4,6.2a21.47,21.47,0,0,0,3.11,1.06,28.52,28.52,0,0,0,2.15-5.57,1.47,1.47,0,0,0-1.27-1.69ZM426.39,494.17c-.89.91-2.33,1.72-2.51,2.76s1.23,3.14,1.55,3.07a26.09,26.09,0,0,0,4.95-2c-1.11-1-2.22-2.08-4-3.79ZM892.21,308.24l6,.26c-.08-1.72-.15-3.44-.23-5.16-1.68,1-3.38,1.86-5,2.86a1.76,1.76,0,0,0-.74,2ZM591,258.92a7,7,0,0,0-.64,1.67c-.14,1.37-.58,3-.05,4.07.32.69,2.19.64,3.36.92-.15-1.48-.23-3-.48-4.43-.13-.77-.56-1.49-2.19-2.23Zm61.31-20a26.42,26.42,0,0,0,3.24-3.19c.18-.24-.86-1.4-1.34-2.14a12.73,12.73,0,0,0-1.9,5.33Zm891,793.71a7,7,0,0,0,1,2.23,17.55,17.55,0,0,0,2.78,2c-.36-2.22-.73-4.45-1.1-6.67a4.47,4.47,0,0,0-2.66,2.44ZM830.9,1150.59c-.42,1.36-.87,2.72-1.17,4.1a12.63,12.63,0,0,0,1.76.65,13,13,0,0,0-.59-4.75Zm5.33,6.67c.68.89,1.2,2.21,2.08,2.52.61.21,1.71-1,2.59-1.53a26.23,26.23,0,0,0-4.67-1Zm343.21-956.32-2.93-2-1.07,1.91c1.34.47,2.67.95,4,.08Zm8.66,732.4c0,1.31,0,2.62-.07,3.93l1.74-.26c-.33-1.45-.67-2.89-1.67-3.67ZM502.36,1054.63c.44-8.85,1.43-17.06,1.19-25.22-.29-9.73-1.9-19.4-2.44-29.12-.42-7.61-.26-15.26,0-22.88.19-6.49,1.34-13,1.16-19.44a60.62,60.62,0,0,1,5.56-26.63c2.42-5.46,5.76-10.53,8.91-15.63,4.52-7.32,4.67-21.13-2.5-27.17-17.13-14.43-33.92-29.3-51.43-43.24-19.92-15.85-40.39-31-60.78-46.25-25.42-19-50.87-37.92-76.56-56.53q-38.87-28.15-78.25-55.61c-19.41-13.58-39-26.85-58.7-40.07-25.17-16.91-50.23-34-75.79-50.34q-39.14-25-79.3-48.33c-5.09-2.95-12.49-1.89-18.83-2.69-.83-.11-1.65-.29-2.48-.44.48-.63,1-1.25,1.44-1.89C22.7,530.29,35,521.87,50,517.35a41.58,41.58,0,0,1,6.18-1.17c2.87-.4,5.76-.68,8.64-1-2.43,2.2-4.72,4.57-7.31,6.56-4.68,3.59-9.66,6.8-14.3,10.44s-3.9,5.49,1.15,8c14.24,7,29.1,13,42.29,21.63,19.45,12.67,37.65,27.23,56.4,41q25.56,18.72,51.16,37.39,33.76,24.66,67.54,49.3c19.62,14.27,39.32,28.42,59,42.67q24.09,17.49,48.11,35.09,25.33,18.45,50.7,36.87,30.22,21.9,60.53,43.71c9.4,6.77,18.81,13.54,28.29,20.21,1.11.78,2.68.9,4,1.32.2-1.25,1-2.77.51-3.7-2.6-5.38-4.46-11.61-8.45-15.73-14.43-14.9-29.91-28.79-44.42-43.61a234.4,234.4,0,0,1-40.6-56.44c-3-5.85-6-11.75-9.1-17.55-1.2-2.23-1.31-3.26,1.71-2.86,9.59,1.27,17,6.58,23,13.54,9.18,10.69,17.69,21.95,26.49,33,12.4,15.52,24.69,31.13,37.26,46.52,9.54,11.68,19.58,23,29.14,34.61,13,15.87,25.7,32,38.71,47.91Q580.78,922.2,595.42,939c4.58,5.27,4.26,6.85-2,10.71-9.34,5.71-16.59,3.51-22.38-3.09-7.66-8.77-14.84-18-22.79-26.46-2.86-3.06-7.34-4.59-11.08-6.82-.93,3.68-2.49,7.33-2.68,11-.72,14.1-1.53,28.22-1.26,42.32.18,9.39,2.23,18.73,3.24,28.11.2,1.92-1,4-.69,5.89,2.54,17.65,5.18,35.28,8.08,52.88.24,1.42,2.69,2.48,4.11,3.71.36-1.33.73-2.66,1.06-4a154.26,154.26,0,0,1,33.79-65.37c22.14-25.4,50.24-40.49,81.64-50.6,14.17-4.56,28.38-8.75,43.45-9.41,9.94-.44,20.27-3.89,29.67-2,16,3.11,32.23,7.71,42.06,23,4.22,6.57,4.34,6.36-3.68,7.15-2.38.23-4.67,1.37-7,2.1,1.29,1.68,2.34,3.67,3.93,5,12.67,10.61,25.46,21.08,38.19,31.62q8.21,6.8,16.32,13.69a7.54,7.54,0,0,1,1.17,1.86c-.76-.12-1.71,0-2.25-.39-9.64-7.33-19.87-14-28.71-22.25-18.45-17.16-38.64-31-63.57-36.49-8.14-1.8-16.6-2.11-24.9-3.23-26.41-3.57-51.37,1.35-74.86,13.43-16,8.24-28.91,20.32-40.47,34.19A122.6,122.6,0,0,0,567,1052.46c-2.54,13.74-.26,28.3-1.29,42.4-.84,11.53,1.65,22.32,5.2,32.83,6.82,20.16,17.62,38.36,30.08,55.49q24.84,34.14,50.47,67.71c6.72,8.77,14.68,16.6,22,24.92a16.41,16.41,0,0,1,1.88,3.66c-.94-.67-1.91-1.31-2.82-2A200.83,200.83,0,0,1,634.23,1239c-9.91-13.13-20.48-25.77-30.84-38.55-.7-.86-2.1-1.16-3.17-1.72a22.33,22.33,0,0,0,.79,3.2c4,9.88,7.19,20.27,12.43,29.47,8.45,14.84,17.79,29.24,27.67,43.18,10.57,14.9,22.22,29,33.34,43.55a25.67,25.67,0,0,1,2.16,4.13,40.35,40.35,0,0,1-3.29-2.67c-28.06-27.82-52.61-58.42-72.51-92.59-11.65-20-24-39.74-33.61-60.72-9.45-20.66-16.09-42.65-23.43-64.24-5.18-15.22-9.71-30.67-14.06-46.14a114.8,114.8,0,0,1-3.28-19.3c-.85-8.2-7.27-10.87-13.15-14.12-.47-.26-2.79,1.26-2.8,2-.27,16.95-.54,34,9.89,48.68,2.1,3,2.5,4.44-.07,7.09-2.15,2.2-3.31,5.34-5.35,7.69-1.42,1.64-4.88,4-5.21,3.71-2.75-2.59-6.73-5.54-7.05-8.72-.94-9.1-.33-18.37-.33-28.23Zm5.33,22,6.31,1.68c-.39-.62-.64-1.45-1.19-1.83-1.52-1-2.5-4.89-5.12.15Zm484.15,375.53c1.26.11,2.17.91,3.12.95,14.06.63,28.13,1.52,42.2,1.63,22.66.2,45.33-.14,68-.24,2.54,0,3.21-.65,2.81,3.55-1.06,10.87.85,22,.4,33-.15,3.46-3.28,8.16-6.37,9.84-6.3,3.42-13.4,4.27-21,3.22-6.31-.88-12.94.83-19.43.9-11.25.14-22.52.18-33.76-.26-8.65-.33-17.26-1.59-25.9-2.2-12-.86-24-1-35.92-2.36-11.55-1.31-23-3.67-34.45-5.7-6.79-1.2-13.55-2.61-20.3-4a9.23,9.23,0,0,1-2.39-1.31,11.3,11.3,0,0,1,1.77-2.61c2.1-1.77,4.38-3.34,6.55-5,1.11-.88,2.13-1.87,3.2-2.81-1.57-.51-3.24-1.64-4.68-1.4a88,88,0,0,0-13.32,3.14c-4.85,1.6-9.53,2.31-14-.54-1.82-1.15-3.23-3-4.82-4.5,2.54-1.09,5-2.83,7.62-3.16,11.17-1.44,22.42-2.3,33.6-3.69,6.66-.82,13.26-2.21,19.88-3.38a24.5,24.5,0,0,0,2.75-.78c-.85-.62-1.65-1.68-2.57-1.8-4.67-.6-9.38-1-14.08-1.38-1.77-.14-3.7.41-5.28-.14s-3.06-2.13-4.56-3.26c1.28-.65,2.53-1.77,3.85-1.88,7.65-.6,15.32-1,23-1.41,7.37-.43,14.72-1,22.09-1.31,7.22-.33,14.46-.46,22-1Zm-51.64,19.66c-2.22,0-4.76-.68-6.56.18s-3.21,3.31-4.77,5a21.65,21.65,0,0,0,4.55,1.5c5.62.54,11.26,1.18,16.89,1.18s11.11-.79,16.67-1.11c9.27-.54,18.57-.88,27.83-1.6,1.19-.09,3.08-1.91,3.13-3s-1.64-3.25-2.73-3.36a94.84,94.84,0,0,0-12.16-.15c-13.84.4-27.68.88-42.85,1.32Zm88.63,4.66.84-4.49c-4-.06-8-.16-12,0-.15,0-.79,2.82-.22,3.66,2.67,4,6.28,3.54,10,1.52a3.18,3.18,0,0,0,1.32-.68Zm-66-10c1.13.44,2.3.81,3.39,1.34,5.36,2.66,1.3-2.46,2.61-3.14-3-4.35-4.78-1.27-6,1.8Zm19.33-25.33c-28.15,1.82-53.93-6.22-79.75-13.81-31-9.13-60.71-21.82-89.19-37-19.18-10.23-37.66-21.81-56.08-33.36-3.51-2.2-5.3-7.12-7.89-10.79.69-.19,1.54-.76,2.05-.54q25.09,11,50.12,22.07c22.55,10.06,45.39,19.34,69.38,25.43,19.7,5,39.44,9.82,59.18,14.67,7.46,1.84,14.87,4.19,22.45,5.18,9.08,1.2,18.36.87,27.49,1.84,6.36.67,12.56,2.77,18.92,3.54,4.89.6,9.91-.06,14.86.16,5.16.23,10.29.92,15.44,1.27,7.43.51,14.88,1.38,22.31,1.22,7.24-.16,14.44-1.67,21.68-2.13,6.89-.44,13.91.35,20.7-.59a49,49,0,0,1,19.29,1.35c5.42,1.39,10,2.82,10.29,9.3.24,5.36-5.31,12.39-10.84,13.46a70,70,0,0,1-12.75,1.34c-23.75.12-47.5.16-71.25,0-6.92,0-13.84-.86-20.76-1.26-8.33-.49-16.66-.9-25.65-1.35ZM406.39,690.76c6.19,3.3,11.6,6.79,17.24,9.86,15.21,8.26,30.52,16.35,45.79,24.51a11.43,11.43,0,0,1,2.7,1.46,12.7,12.7,0,0,1,1.63,2.78c-1.19,0-2.6.47-3.51,0-24.24-12.8-48.35-25.83-72.63-38.54-16.95-8.88-34.15-17.26-51.16-26-20.49-10.58-40.74-21.65-61.4-31.89-16-7.95-33-12.72-50.83-15.75-17.5-3-34.54-8.65-51.82-13-24.92-6.25-46.25-19.65-67.37-33.51a12.48,12.48,0,0,1-1.83-1.87c.81-.21,1.6-.44,2.41-.62,7.61-1.77,13.45,2.79,20.08,5.09,12.12,4.21,24.43,7,37.84,4.49,15.52-3,30.25,2.63,44,9.24,23.35,11.26,46.2,23.56,69.24,35.46,22.14,11.43,44.18,23,66.41,34.26,5.28,2.67,11.18,4.09,16.79,6.08,4.33,1.54,7.55,3.37,9,8.74,1.05,3.81,5.16,7.37,8.76,9.76,5.62,3.73,12,6.38,18.67,9.49Zm1039.29,782.05c-5.2,15.42-14.09,28.27-23.5,40.69-16.39,21.66-29.59,45-40.71,69.78-9.39,21-14.68,42.7-18.12,65.14-.7,4.55-1.72,9-2.72,13.54-.06.27-1.7.6-1.92.34-7.77-9.41-15.59-18.79-23-28.48-1.12-1.47-1.15-4.93-.19-6.63,13-23.08,26.31-46,39.4-69,9.6-16.88,18.95-33.91,28.44-50.85,10.2-18.21,20.39-36.43,30.8-54.52.5-.88,3.72-1.32,4.69-.61,6.88,5,7.85,12.41,6.83,20.6Zm-906-262.24c-3.76-11.09-7.61-21.49-11.27-32-4.94-14.16-10.27-28.21-14.42-42.61-3.2-11.1-5.42-22.75,3.28-32.91.94-1.1,2.42-1.74,3.65-2.58.74,2,1.56,4,2.17,6,.14.44-.33,1.25-.76,1.63-7.73,6.85-5.35,14.77-2.68,22.91,5.9,18,11.24,36.16,17.55,54,2.24,6.32,6.67,11.87,10,17.8q10.9,19.11,21.76,38.25a50.06,50.06,0,0,0,3.21,5.32c4.19,5.68,9.47,6,13.34.31a20.43,20.43,0,0,1,2.79-2.79c.47,1.36,1.37,2.72,1.34,4.07-.14,6.46-.31,12.94-1.07,19.33-.12.93-4.44,2.63-5.18,2-6.33-5.31-13.45-10.24-18.1-16.86-9.3-13.22-17.19-27.43-25.66-41.9Zm13.66-972c-10.73-16.48-5.61-29.9,6.34-41.7,3.37-3.34,5.55-2.72,6.9,1.64,2.61,8.45,5.53,16.83,7.52,25.43.53,2.33-1.17,5.86-2.94,7.88A53.51,53.51,0,0,1,560,241.51c-1.1.71-4.17-1.64-6.67-2.91Zm383.86,869c-10.62-9.28-20.91-18.22-31.16-27.21a17,17,0,0,1-2.14-2.8c1.1.34,2.4.41,3.28,1.06,8.52,6.29,17.41,12.18,25.35,19.14,21.94,19.19,43.46,38.85,65.16,58.31,8.26,7.4,16.55,14.74,24.78,22.17a13.34,13.34,0,0,1,1.87,2.79c-1.2-.19-2.66,0-3.56-.65a119.66,119.66,0,0,1-11.15-8.46c-14.14-12.62-28.07-25.47-42.22-38.08-9.84-8.78-19.91-17.3-30.21-26.27ZM665,129.64c1.37-.45,2.12-1.34,2.77-1.27,10.9,1.21,20.58-3.45,30.72-6,3-.77,6.53.36,9.81.67.17,0,.44.84.4.86a13.42,13.42,0,0,1-3.25,1.73c-9.25,2.29-18.6,4.2-27.77,6.77-14,3.94-27.86,2.46-41.91.14-5.14-.85-10.67.77-16,1.07-1.33.07-2.7-.6-4.05-.93,1.12-.56,2.18-1.47,3.36-1.64,6.29-.91,12.6-2.16,18.93-2.28,8.77-.17,17.57.56,27,.91ZM124.83,503.17c-6.27-2.56-12.21-4.79-18.16-7-.87-.33-1.79-.55-2.69-.82.85-.62,1.67-1.29,2.56-1.85,5.38-3.36,9.89.56,13.58,2.87,13.27,8.31,26,17.48,38.91,26.37a12.16,12.16,0,0,1,2,2.24,11.77,11.77,0,0,1-2.55-.86c-6.37-3.87-12.7-7.8-19-11.73-4.75-2.95-9.49-5.93-14.57-9.23Zm306.55-186.6c-9.27-9.28-18.23-18.2-27.13-27.19a14.11,14.11,0,0,1-1.8-3.19,15.25,15.25,0,0,1,3.82.79,13.2,13.2,0,0,1,3.53,2.71q19.33,19.92,38.57,39.95c.86.9,1.09,2.41,1.62,3.64-1.23-.6-2.71-.93-3.64-1.83-5-4.77-9.77-9.68-15-14.88Zm361.2,933c2.69,2.68,5.08,5,7.37,7.41a16.93,16.93,0,0,1,1.75,2.8c-1.83,0-4.13.78-5.4,0-4.25-2.78-8-6.24-12.17-9.23-3.89-2.82-8-5.34-12-8a15.24,15.24,0,0,1-1.9-1.87c.9-.47,1.88-1.44,2.68-1.31,2.91.45,6.09.7,8.56,2.1,3.83,2.16,7.18,5.19,11.06,8.19Zm64-215.92c7.82,7.37,15.31,14.41,22.77,21.47a9.44,9.44,0,0,1,1.21,1.86c-.76-.09-1.68.06-2.24-.33-2.77-1.92-5.55-3.86-8.12-6-5.43-4.61-10.89-9.22-16-14.15-3.65-3.5-.14-3.08,2.41-2.81Zm-771-525.81c-1.62-1.27-2.9-2.21-4.18-3.14,1.29-.62,2.57-1.73,3.88-1.77,5.82-.2,11.65-.1,17.48,0a18.18,18.18,0,0,1,.27,2.63c-5.73.7-10.73,6.5-17.45,2.25Zm1009-416.51c1-1.81,1.48-3.43,2.39-4.74a27.16,27.16,0,0,1,3.42-3.45c1.06,1.76,3.43,4.07,3,5.17-1.75,4.11-4.43,7.82-6.77,11.68-1.07-1.14-2.72-2.14-3.07-3.47s.44-3.23,1.07-5.19Zm-17.66,616.77c-2.63-1.08-4.93-1.83-6.46-3.35-1.15-1.13-1.31-3.26-1.91-4.94,2.28-.19,4.66-.85,6.81-.42,1.68.34,3.32,1.81,4.56,3.16a70.29,70.29,0,0,1,4.82,6.39c-2.38-.28-4.77-.56-7.82-.84ZM570.67,150.63c-5.89-1-11.45-1.66-17-2.34a14.4,14.4,0,0,1-1.8-.46c.19-.29.36-.81.58-.83,6.3-.49,12.61-1.17,18.92-1.22,1.87,0,3.75,1.75,5.63,2.7a34.86,34.86,0,0,1-6.33,2.15ZM708.61,909.68c3.26,2.37,6.25,4.32,9.06,6.51.66.51.69,1.81,1,2.75-1.07.09-2.51.67-3.15.19-6.13-4.57-12.16-9.29-18.11-14.09-.6-.48-.5-1.82-.73-2.76a6.75,6.75,0,0,1,2.32.53c3.14,2.11,6.19,4.35,9.6,6.87Zm647.77-294.55c3.28,3.28,6.26,6.21,9.16,9.22.37.38.34,1.16.5,1.75-.62-.16-1.41-.14-1.83-.53q-8.84-8.05-17.57-16.21c-.19-.19-.16-.61-.24-.92.75.1,1.7-.06,2.22.34,2.54,1.92,5,4,7.76,6.35ZM587.66,140.3a9.12,9.12,0,0,1-2.67-1.69c1.59-.74,3.32-2.32,4.73-2.07,5.45.94,10.81,2.44,16.19,3.79.49.13.87.71,1.3,1.08-1.35,1-2.9,2.93-4,2.72-5-.94-9.91-2.5-15.51-3.83Zm478.49,321.22c-.27-2.63-.53-4.58-.8-6.54,1.7,1.17,4.21,2,4.92,3.57,1.43,3.24,6.25,5.9,2.56,10.46a31.06,31.06,0,0,0-2,3.15,23.5,23.5,0,0,1-2-3.13,61.61,61.61,0,0,1-2.7-7.51ZM569,1202.58a55.1,55.1,0,0,1-8.33-9.15c-2.28-3.35-3.88-7.19-5.63-10.89a3.42,3.42,0,0,1,.13-2.66c.31-.62,1.34-.88,2.05-1.3.37.86.74,1.72,1.12,2.58,1.22,2.81,2.28,5.7,3.7,8.4,2.19,4.18,4.63,8.24,7,13ZM308.76,615.13c-4.14-2.37-8-4.4-11.76-6.45-.81-.43-1.59-.93-2.38-1.4,1-.16,2.32-.79,3.08-.41,5,2.51,9.84,5.19,14.67,7.94.77.44,1.17,1.52,1.74,2.3-.92-.24-1.84-.43-2.74-.73a12.68,12.68,0,0,1-2.61-1.25Zm192.6-363.87a22.48,22.48,0,0,1,4.76.09c-1.06.78-2.11,1.56-3.17,2.32-3.05,2.16-6.06,4.38-9.18,6.45a12.76,12.76,0,0,1-3.16,1.05c.36-1.09.39-2.63,1.14-3.21,3-2.28,6.16-4.27,9.61-6.7ZM2.54,574.81a14.06,14.06,0,0,1-1.72-5.07A33.26,33.26,0,0,1,0,563.51c0-.69,1.51-1.35,2.32-2,.52.71,1.49,1.43,1.48,2.14a51.4,51.4,0,0,1-1.26,11.19Zm734.4-445.17c3.51.62,6.36,1.25,9.21,1.88-2.48.26-5,.47-7.43.8-2.08.28-4.14,1-6.21,1-1.52,0-3-.85-4.55-1.32,1.22-.78,2.34-1.9,3.67-2.26s3.09-.09,5.31-.09ZM1379.7,637.12c-.76-.8-1.18-1.26-1.61-1.73,1.63-.11,4.05-1,4.74-.21a70.35,70.35,0,0,1,7,9.5c.46.71,0,2-.06,3.05a11.16,11.16,0,0,1-2.29-1.57c-2.53-2.86-5-5.8-7.76-9ZM1089.81,66a11.28,11.28,0,0,1,1.25,1.28c1,1.51,1.93,3,2.89,4.57-2.57.16-5.14.45-7.7.38-.5,0-1.52-1.88-1.35-2.07a20.8,20.8,0,0,1,4.91-4.16Zm-555.13,93.3c-2.87.91-5.41,1.48-7.94,2.06-.11-.6-.46-1.62-.29-1.72,2.12-1.19,4.3-2.3,6.52-3.3a3.67,3.67,0,0,1,1.95,0c1.54.23,3.06.54,4.59.81-1.5.62-3,1.23-4.83,2.17Zm377.19,100a32.81,32.81,0,0,1,8.37-.13c.75.11,1.25,2,1.86,3-1-.1-2.08-.51-3-.24-1.71.55-3.29,1.52-4.95,2.23a5.52,5.52,0,0,1-1.7.31,19.84,19.84,0,0,1-.63-5.19ZM807.25,943c-.49-.48-.64-.66-.81-.8-1.39-1.15-2.81-2.28-4.14-3.5a10.15,10.15,0,0,1,.91-1.36c1.5,1.16,3,2.29,4.51,3.49.68.56,1.25,1.25,1.88,1.87l6.73,6.55c-2.92-2-5.84-3.94-9.08-6.25Zm538.8,471.5c-.16,2.15-.32,3.64-.47,5.13a18.85,18.85,0,0,1-2.12-4,11.87,11.87,0,0,1,0-4.64,41.07,41.07,0,0,1,1.55-5.34,2.29,2.29,0,0,1,.87.07c.1,2,.15,4.1.19,6.15,0,.67,0,1.34,0,2.67Zm-438.51,33.32c.32,5.26-3,1.09-4.27,1-2.93-.1-5.8-1.7-8.68-2.73a3.26,3.26,0,0,1,.2-.86c3.33.37,6.67.73,10,1.25.75.12,1.41.84,2.77,1.29Zm508.81-780.71a14.11,14.11,0,0,0-1.27-1.26c-1.67-1.26-3.36-2.49-5-3.73.55-.23,1.26-.79,1.64-.62a55.18,55.18,0,0,1,6,3c.37.22.24,1.18.51,1.72.69,1.4,1.48,2.76,2.23,4.13-1.25-1-2.49-2-4.07-3.26Zm-297.89,803a16.79,16.79,0,0,1-.6-3.66c1.42,1.18,3.33,2.1,4.14,3.61s.62,3.74.87,5.64c-.69-.07-1.82.08-2-.26-.83-1.59-1.41-3.32-2.41-5.33ZM635.64,191c1.79-.45,2.91-1.25,4-1.25a31.52,31.52,0,0,1,5.3.88c-.22.56-.33,1.54-.67,1.62a27.64,27.64,0,0,1-5.76.91,25.51,25.51,0,0,1-4.85-.83,4.92,4.92,0,0,1,1.95-1.33ZM952.52,234.6a75.92,75.92,0,0,1-8.58-6.67s.51-.65.78-1a83,83,0,0,1,7.8,7.66ZM357.08,645.45a47.35,47.35,0,0,1,6.61,5.29c.08.07-.57.9-.88,1.37-2.54-1.74-5.12-3.46-7.61-5.27-.43-.31-.53-1.07-.79-1.62.67.08,1.33.15,2.67.23Zm905.33,972.64c-.78-.8-1.5-1.2-1.62-1.74-.41-1.89-.62-3.82-.9-5.73a5.36,5.36,0,0,1,1.35,1c1.65,2.33,3.23,4.71,4.84,7.07a16.36,16.36,0,0,1-3.67-.61ZM871.55,175a11.1,11.1,0,0,1-2.66-3.14c1.43.16,3,0,4.25.56a34.94,34.94,0,0,1,4.94,3.39c-2-.27-3.91-.54-6.53-.81Zm433.51,1430.48a71.23,71.23,0,0,1,8.16,7.56c.48.51.5,1.46.74,2.2-.62-.24-1.43-.31-1.82-.75a80.94,80.94,0,0,1-7.08-9ZM1334.38,599.8c-1.14,4.14-3.46,2.17-5.5,1.05-.44-.24-.4-1.34-.59-2.05a45,45,0,0,1,6.09,1ZM229.46,566.48c-3-.76-6.28-1.84-9.59-2.93.72-.24,1.59-.88,2.12-.67a70.64,70.64,0,0,1,7.47,3.6Zm1038.28,998.3c1.34,2,2.35,3.65,3.35,5.31-.59.09-1.55.45-1.71.23-1.47-2-2.82-4.2-4.2-6.32a10.77,10.77,0,0,1,2.56.78Zm-941-939.66c0,5.54-3.19.13-4.5,1.67l-.83-2.34a33.71,33.71,0,0,1,5.33.67ZM113.17,522.83a9.45,9.45,0,0,1-2.44-.9,12.38,12.38,0,0,1,2.24-.88c2-.36,4.1-.62,6.15-.85.13,0,.33.55.49.85-1.93.59-3.85,1.18-6.44,1.78Zm808-316.89a4.2,4.2,0,0,1,2.39,1c.81.71,1.51,1.55,2.26,2.33-.64.55-1.68,1.68-1.87,1.55a8.68,8.68,0,0,1-2.17-2.34,4.15,4.15,0,0,1-.61-2.56ZM708,191.28a3.26,3.26,0,0,1,1.66-.33l5.79.45c-.18.29-.38.85-.53.84a36.78,36.78,0,0,1-6.92-1Zm99.63,1076.6a13.54,13.54,0,0,1,5.33-.6s0,1.21,0,1.21a13.36,13.36,0,0,1-5.33-.61Zm18.66,9.33a19,19,0,0,1-3.78-2.22,12.42,12.42,0,0,1,2.17-1.22,6.2,6.2,0,0,1,1.61,3.44ZM739.6,1001a71.65,71.65,0,0,1-6.53-4.2c.23-.26.66-.77.67-.76a63.77,63.77,0,0,1,5.86,5Zm543.47,581.79-2.19-2.2c.81-.07,1.83-.49,2.39-.15a17.18,17.18,0,0,1,2.8,2.61,10,10,0,0,1-3-.26Zm-153.94-375.2A20.41,20.41,0,0,1,1128,1204l2.73,1.14a6,6,0,0,1-1.6,2.39ZM300.77,791.06a14,14,0,0,1-4.19-.26c-.15,0-.14-.87-.21-1.34a35.8,35.8,0,0,1,4.4,1.6Zm237.57,340.87a7.27,7.27,0,0,1-3.51,1.16,3.76,3.76,0,0,1-.05-.87,6.05,6.05,0,0,1,3.56-.29Zm34.32,83.64c-.48.18-.77,0-.76-.12.08-2,.21-4.07.33-6.1a36.76,36.76,0,0,1,.43,6.22ZM848.56,164.62a7.25,7.25,0,0,1,3.19-.28c.28,0,.49.67.74,1a19.47,19.47,0,0,1-3.93-.74ZM827.24,275.25c-1.92-.78-3.62-1-5-1.73a25.51,25.51,0,0,1-4-3.14c1.61-.21,3.52-1.09,4.78-.52,7.49,3.39,14.69,7.31,19.18,14.66a15.84,15.84,0,0,1,1.13,3.3c-1.07-.34-2.38-.39-3.16-1.06-4.27-3.64-8.41-7.43-12.93-11.51ZM468.7,491.17c-.55-1.13-1.08-2-.94-2.7.38-1.8,1.06-3.54,1.62-5.31,1.22,1.28,2.8,2.36,3.58,3.86,2,3.81,3.69,7.78,5.35,11.74.27.66-.21,1.64-.34,2.47a9.89,9.89,0,0,1-1.86-1.36c-2.4-2.76-4.72-5.57-7.41-8.7ZM790.58,250.59c.44,1.56,1.09,3.43.54,3.89a5.85,5.85,0,0,1-4.31,1.42c-.83-.16-1.27-2.32-1.89-3.58a28.39,28.39,0,0,1,5.66-1.73Z"/><path class="cls-2" d="M12.7,561.41v15.7c0,1.85-1,4.47-2.75,3.76a31.88,31.88,0,0,1-1.87-18.46c.41-2.11,2.76-4.64,4.15-3a3,3,0,0,1,.47,2ZM1150.79,605c14.08,13.91,18.31,34.68,22,54.14q51.3,274.15,122.85,544c4.37,16.47,8.26,35.8-2.38,49.11-4.17,5.21-10.07,8.69-15.83,12.06L1214.72,1301c-12.11,7.08-25.27,14.41-39.23,13.06-14.56-1.41-26.39-11.89-37.1-21.85l-99.63-92.64c-4.24-3.94-8.49-11-4-14.66l139.13,124.43,49.21-22.29c12.5-5.66,27.32-15.62,24.3-29L1128.75,731.16c-4.34-19.26-13.16-42.67-32.85-44.25-45.57-3.68-91.63-5.41-136.83,1.44-117.29,17.77-223.54,96.84-274.25,204.09L646,859.86c-4.53-23.21,5.07-46.8,16.61-67.45a342.22,342.22,0,0,1,91.44-105.27c2.89-2.2,8.73-3,8.59.62a431.29,431.29,0,0,0-84.66,100c-6.48,10.57-12.35,24.77-4.68,34.51,45-89.68,126.34-160.46,221.38-192.65,1.23-3,4.18-4.83,7-6.39,57.24-31.75,126.6-29,192-25.45,12.67.69,27.06,2.27,34.58,12.49,3.15,4.28,4.76,9.75,8.82,13.18s12.14,2.58,12.65-2.7c-4.67-4-4.08-12.47,1.1-15.73ZM1133,649.27a26.2,26.2,0,0,0,1.4-12.77c-.22-1.52-.87-3.33-2.39-3.56s-2.66,1.25-3.21,2.65a12.62,12.62,0,0,0,1.84,12.34c-2.54-1.29-5.78.05-7.54,2.28s-2.4,5.12-3,7.9c-.42,2-.83,4.07-.1,5.95s3,3.28,4.8,2.27c2.39-2.44,2.19-6.3,2.52-9.69s2.26-7.43,5.67-7.37Zm-58-28.8a23.73,23.73,0,0,0-17.11-2.4,37,37,0,0,1-10.08.55l-17-.64c-.48,2.22,2.59,3.31,4.85,3.4a301.09,301.09,0,0,0,39.39-.91Zm-45.34-1.05a95.2,95.2,0,0,0-31.68-.79c-1.72.25-3.58.63-4.69,2,12.15.67,24.46,1.32,36.37-1.17Zm86.56,7.16c-2-.44-4-2-5.73-1.05s-1.51,4,.16,5.21,4,1.17,6,.86,4.18-.79,6.17-.19c1.45.45,2.63-1.68,1.91-3s-2.44-1.8-4-1.81a21,21,0,0,1-4.55,0ZM667.16,846a126.74,126.74,0,0,0,1.28-18.36c0-2.1-.51-4.77-2.57-5.17l-.9,25.25c.66,1,2-.51,2.19-1.72Zm543.57,144.94a4.88,4.88,0,0,0-1.78,9.29,4.38,4.38,0,0,0,3.35.21,9.37,9.37,0,0,0-1.57-9.5ZM1082.5,620.09a8.18,8.18,0,0,0-7.47-.36,6.46,6.46,0,0,0,7.08.87l.39-.51Zm107.29,314.75a3.19,3.19,0,0,0,1.58,2.45,7.14,7.14,0,0,0,1.62-4.6,2.1,2.1,0,0,0-2.7,2.11l-.5,0ZM832.87,539c27.41-26.08,55-58.28,53.46-96.09-.45-11.45-3.63-22.59-6.78-33.61-4.48-15.65-9-31.43-16.67-45.79-8.1-15.23-20-30.48-17.69-47.57A17.65,17.65,0,0,1,851.27,336l16.6.68a12.66,12.66,0,0,0,8,12.81,76.22,76.22,0,0,0-12.45-33.33c-3.57-5.29-7.41-13.46-2.06-16.94,8-5.18,1.86-17.56-5.11-24a191.72,191.72,0,0,0-104.16-49c-4-.53-9.68.64-9.28,4.62A150,150,0,0,1,778,247.17c-2.41,7.64-13.69,4.67-21.08,1.58A61.75,61.75,0,0,0,717.78,246a20.18,20.18,0,0,0,17.65,2.5,34.36,34.36,0,0,1,2.15,14.65,21.7,21.7,0,0,0,8.83,3.15c-8.48,6.78-20.65,5.1-31.42,3.72-57.14-7.34-117.7,5-164,39.38s-76.24,91.63-72.23,149.1c.21,3,.45,6.24-1.16,8.77s-5.92,3.45-7.5.89c2.76,3.73,1.05,9.86-3.23,11.62A52.48,52.48,0,0,1,466,454q-2-4-4-8c4.52.17,5.61-6.87,2.84-10.44s-7.38-5.39-10.11-9c-8.19-10.84,4.76-30.22-5.88-38.67-13.27-10.53-10.53-35,4.73-42.32-4.48,2.83,1.23,9.22,6.2,11A166.06,166.06,0,0,1,530,264.93c3.93-2.46,9.13-4.74,12.93-2.07a148.18,148.18,0,0,0-51.52,59.7Q542.06,283,594.72,246.11c4.56-3.2,11.45-6.15,15-1.86a10.85,10.85,0,0,0-3.84-12.61c22.82-14.32,51.37-15,78.31-14.74q26.1.21,52.18.95c33.25.94,67.89,2.9,96.91,19.18,11.9,6.68,22.4,15.54,32.83,24.35l50.26,42.47c5.18,4.38,12.86-2.44,14.11-9.11s0-14.29,4.2-19.63c4.64-5.92,14.14-5.8,20.51-1.8s10.35,10.8,14.09,17.32L1004,351.19c5.13-12.59-1.38-26.63-7.75-38.64q-10.46-19.68-20.89-39.38c.51-3,1-6.08,1.54-9.12a6.66,6.66,0,0,0-9.84-2.36,15.57,15.57,0,0,1-.54-15.18,128.72,128.72,0,0,1,23.35,38.54,23.2,23.2,0,0,1,7.42,22.53c3.44-4.35,9.77,1.66,11.71,6.85a387.7,387.7,0,0,1,20.56,191c-.37,2.51-.87,5.23-2.79,6.89s-5.11,1.77-7.8,1.34c-17.8-2.82-31.76-20.88-30-38.81.67-6.85,3.29-13.33,5.61-19.81a252.45,252.45,0,0,0,12.29-49.43c1-7,.32-16.21-6.44-18.14,5.9-6,2.35-16.27-3.14-22.62s-12.87-11.81-14.78-20c-1.67-7.15-10.93-9.9-18-8S951.55,343.68,945,347s-15.24,4.61-20.7-.29c-7.88-7.06-5.48-23.55-15.72-26.21a4.62,4.62,0,0,0-3.51,6.3c26.39,54.07,20.62,122.43-14.47,171.31,1.13,2-1.84,4.2-4,3.39s-3.18-3.13-4-5.23a124.38,124.38,0,0,1-70.36,68.59l2.39,4.21q-18.58,7.17-37.55,13.24c.37,2.56-2.7,4.11-5.2,4.82l-40.17,11.48a225.43,225.43,0,0,1-105.3,4.34c-2-.41-4.2-3.47-2.14-3.79a340,340,0,0,0,161.58-28.07,154.86,154.86,0,0,0,24.6-13.15c8.09-5.51,15.33-12.18,22.42-18.93ZM726.08,238.71a7,7,0,0,0-7.71,2.17l9.8.7a3.76,3.76,0,0,0,.5-2.58,3.28,3.28,0,0,0-2.51-.47l-.08.18ZM476.84,382.87a6.1,6.1,0,0,0-1.31-8.55,8.69,8.69,0,0,0,.64,8.34l.67.21Zm421-71.4a2.28,2.28,0,0,0,2.94.09l-1.5-5.83c-1.92.89-1.74,3.64-1.25,5.69l-.19.05Zm-302.82-46.4,4,4.07a3.14,3.14,0,0,0-2.8-4.37l-1.23.3Zm63.58-22.66a2.73,2.73,0,0,0,1.14-3.88c-2.14-.4-3.23,3.46-1.19,4.24l0-.36Zm74.51,13.25c.51-.66-.28-1.68-1.12-1.68a3.41,3.41,0,0,0-2.16,1.14c.51.93,1,1.86,1.55,2.79l2-2.07-.28-.18Zm-31-13.46a3.08,3.08,0,0,0,4.45.81c0-1.71-2.56-1.71-4.15-1.07l-.3.26ZM484.74,360.79l.87-4.47a2.76,2.76,0,0,0-.73,4.74l-.14-.27Zm-16.83,98.56c-1.49.14-1,3,.48,2.73a1.67,1.67,0,0,0-.55-2.48l.07-.25Zm114.31,126.8a38.59,38.59,0,0,1-31.33-5.84L498,560.07l-52.21-20c-20.81-8-42.58-16.59-56.78-33.76-5.48,5.59-1.54,14.91,2.83,21.41a321.86,321.86,0,0,0,104.9,98.2c18.57,10.79,38.6,20,53.43,35.53a293.89,293.89,0,0,1-121.41-71.74c-8.3-8.16-16.21-16.91-26-23.24s-21.95-10.07-33.17-7l17.14,3c-1.92,4.3,1.48,9,4.7,12.42a476.49,476.49,0,0,0,78.05,66.94c22.43,15.38,48.58,29.33,75.48,25.31a14.23,14.23,0,0,0,13,12.93c-.33-8.13,11.06-11.59,18.67-8.7A26.69,26.69,0,0,1,587,678.5c4.2,4.67,6.81,10.87,12,14.39s14.56,1.62,14.67-4.66a68.68,68.68,0,0,0-22.32-16.79c15.12-9,37.77,4.19,37.51,21.75-.14,9.93-6.1,18.72-11.82,26.84l-27.24,38.63c-4.48,6.35-9,12.78-14.93,17.83-14.33,12.25-39.67,12.91-49.76-3-1.56-3.19,1.7-7.52,5.2-6.91A44.36,44.36,0,0,0,551.7,779c5.35-3.34,10.9-6.88,14.17-12.28s3.41-13.24-1.4-17.33c-2-1.73-4.63-2.57-7.15-3.4C496.49,726,439.17,692.54,397,644.36s-68.15-111.85-64.82-175.79c.35-6.64.55-14.4-4.61-18.6,5.12-7.31,4.79-17,4.75-25.88a241.07,241.07,0,0,1,62.94-162.35c7.52-8.17,15.6-15.8,23.67-23.43l9.49-9c25.34-24,52.22-48.77,86-57.48,5.85-1.5,11.92-2.5,17.92-1.84a329.11,329.11,0,0,0-91.24,61.29c.24-4.16-5.57-7.15-8.82-4.54l5,3.54-26.77,28.32,2.75,5.88a8.57,8.57,0,0,1-6-5.17,21.41,21.41,0,0,1-10,8.14c-6.73,26.4-33.81,47.36-30.52,74.41.65,5.39-4.4,9.5-7.24,14.12s-.72,13.24,4.49,11.73q-.45,5.65-.91,11.3a8.63,8.63,0,0,1-3.81-7.16,17.29,17.29,0,0,0-6.43,13.51l5.31-3.61c2.68,18-1.17,36.59,3,54.24a61.69,61.69,0,0,0,32.66,40.62c3.93,1.9,8.26,3.4,12.61,2.94,12.24-1.3,18-16.41,29.27-21.43,12,22.63,24.15,45.44,40.7,65S514.53,559,539.5,564.66c-1.8,3.54,2.06,7.64,6,8.27s7.9-.73,11.87-.6c5.23.17,10,2.87,14.65,5.27a153.27,153.27,0,0,0,61,16.66,109.06,109.06,0,0,1-58-.7,8.48,8.48,0,0,0,7.24-7.41ZM388.75,610.53A7.9,7.9,0,0,0,385.33,596a6.84,6.84,0,0,1-2.9-1,5.09,5.09,0,0,0,1.65,2.71,18.48,18.48,0,0,1,4.67,12.8Zm-20-30.58c2-1.51,1.27-5.26-1.13-5.94l-4.45,5.45a14,14,0,0,0,5.51.38l.07.11Zm-13.87-45c.49-1.71.49-4.25-1.28-4.5a9.83,9.83,0,0,0,2,10.16l2.56-2.59a4.19,4.19,0,0,1-3.21-2.93l0-.14Zm30.28,57.49a6.52,6.52,0,0,0-4.57-5.64,6.24,6.24,0,0,0,4.6,6.18l0-.54ZM545,781.33a1.92,1.92,0,1,0-3.47-.63,3.12,3.12,0,0,0,3.54.8l-.07-.17ZM1176.64,56.18a421.4,421.4,0,0,1,1.86,70c6.83,3.9,7.75,13.18,8.14,21,1.23,24.71,5.15,49.19,9.12,73.61q12.15,74.91,24.91,149.71c6.95,40.71,14,81.42,23.28,121.67a621.48,621.48,0,0,1,10.9,61.34c-10-2.42-14-14.36-16.15-24.46q-21.65-99.67-43.3-199.34a4,4,0,0,1-5-2.1A285.15,285.15,0,0,0,1176.31,268c-4.66-13.21-14.42-28.52-28.23-26.21-4.06.68-7.68,2.9-11.18,5.07l-17.53,10.88a17.82,17.82,0,0,0-17.16-1.61c-1.26,26.45,3.49,52.78,8.22,78.83l24.06,132.63c1.53,8.47,3.07,17.15,1.63,25.64s-6.5,16.9-14.56,19.92l-27.06.47c4.9.22,7,7.25,4.27,11.3s-8.21,5.3-13.11,5.16a34,34,0,0,1-21-8.18l-8.51,3.44-5.4-6a31.24,31.24,0,0,1-20.93-2.19,107.54,107.54,0,0,1,47.59-2.68c-3.08,1.94,1.32,7.07,4.61,5.53s4.11-5.78,4.35-9.4c1.39-20.67-2.43-41.3-6-61.7a2937.63,2937.63,0,0,1-38.46-321.07c-1.21-18.72-2.23-37.47-1.71-56.22.36-13.23,4-29.56,16.8-32.77,23.58-5.9,42.12-27.76,66.41-28.48a8.26,8.26,0,0,0,4.62,8.76c.55,3.53-5.31,3.58-8.21,1.49s-7.49-4.45-9.33-1.39c-6.93,11.55-20.76,19.38-34,16.88a37.6,37.6,0,0,0-6.44,29.67c1.72,8.17,6.21,15.88,5.86,24.22a95.71,95.71,0,0,0,7.88,42.19l3.76,19.92c1.4,7.44,3.29,15.66,9.54,19.94s17.54,0,16.2-7.42c4.29,3.57,10.84,2.15,15.76-.48s9.52-6.37,15.06-7.1c13.14-1.74,21.77,13.39,24.74,26.31a149.87,149.87,0,0,1,3.71,28.21c.1,2.94.22,6.16,2.18,8.35s6.48,2,7.09-.87a74.33,74.33,0,0,0,2.93,33.7c3.68-12.35,1.45-25.6-.81-38.28-.47-2.61-.93-5.22-1.4-7.83q-3.27-18.4-6.55-36.8c-.67-3-1.11-6-1.56-9l-7.53-51.44-6.72-45.87c-1.18-8.06-2.36-16.28-.91-24.3-8.65-3.38-1.48-19.45-9.12-24.73-1.78-1.23-4-1.53-6.18-1.8l-18.91-2.37c9.88-9.76,27.75-7.66,37.36,2.37s11.7,25.59,8.24,39.05c1.35-3.13,5.57,1.06,6,4.44Zm4,78a4.77,4.77,0,0,0-2.38-5.58,7,7,0,0,0,1.92,6.33c.15-.25.3-.5.46-.75ZM1424.86,678c50.6,41.36,84.6,100.52,103.89,163s24.76,128.35,25.61,193.7c.43,33.12-.31,66.46-6.81,98.94-14.78,73.73-58.2,138.36-105,197.25q69.65,276.78,147.52,551.4c-8.72,7.91-20.13-6.35-23.22-17.71l-148-544.6c-6.55-24.1-12.16-52.82,4.26-71.65,68.11-78.11,106.92-181.2,107.23-284.83s-37.89-207-105.53-285.47Zm90.27,430.43a56,56,0,0,1-14.5,27.68c-2.29,2.38-1.87,6.15-2.23,9.44-.4,3.66-1.93,7.09-3.49,10.43a398.3,398.3,0,0,1-68.4,101.72c-4.19,4.53-8.35,12.21-3.44,15.93,4.17,3.16,9.91-.78,13.51-4.58,20.81-22,38.44-46.94,53.35-73.32a452.11,452.11,0,0,0,32.42-71.1c3.07-8.67,5.92-18,3.82-26.94-2.4-2-6.32-.67-8.17,1.86s-2.26,5.8-2.87,8.88Zm35.9-59.73c-2.56-6.94,2-15.6-2.16-21.71-1.34-.91-2.64,1.21-2.87,2.81a184.21,184.21,0,0,0-.91,45.25c-1.44-.27-2.66,1.4-2.46,2.85a5.71,5.71,0,0,0,2.49,3.49l.84-3.07a22.8,22.8,0,0,0,4.25-20c1.92,0,3.12-2.28,2.88-4.2s-1.4-3.57-2.06-5.38Zm-3.22,38.44c.65,1,2.24.71,3-.16a5.65,5.65,0,0,0,1-3.26c.57-1.78-2.38-2.45-4.08-1.68s-4,1.86-5.15.39c-.84,2.94,2.56,6.11,5.43,5l-.16-.34Zm-12.58,2.32a6.26,6.26,0,0,0-5.12,4.56c2.46,1.07,5.62-1.47,5.11-4.11v-.45Zm-100.59,194.79a3,3,0,0,0,.41,2.51,3.8,3.8,0,0,0,2.62-.45c-.07-1.54-1.92-3.08-3.08-2.06Zm104.78-203-3.37,3.5a2.36,2.36,0,0,0,3.38-2.34c0-.39,0-.77,0-1.16ZM765.9,1223.77a14,14,0,0,1-3.27,7.25l-12.57-10.08a339.41,339.41,0,0,1-38-36.92c-12.69-14.44-24.31-30.23-30.92-48.28a122.55,122.55,0,0,0-25.86-41.81A587.64,587.64,0,0,1,630.89,1033c-1.46-4.32-2.88-9-1.6-13.35s6.46-7.86,10.46-5.7c5.86,3.17,4.71,14.87,11.36,15.21q1.13-12,2.24-24.1l20.84.37c1.79,1.82-.17,5.19-2.7,5.61s-4.93-1-7.09-2.4c-4.67,5.35-3,14,1.51,19.5s11.1,8.71,17.15,12.4c10.92,6.65,20.54,15.2,30.09,23.7l266.14,236.86c4.34,3.86,11.18,7.73,15.27,3.62a12.41,12.41,0,0,1-.43-15.77,15.63,15.63,0,0,1,1.33,15.41l6.74,6c-1.22,6.29-6.9,11-13,12.78s-12.7,1.27-19,.51a297.66,297.66,0,0,1-92.53-26.78c-2.66-1.27-5.42-2.69-7-5.15-8.92-13.54-21.35-24.32-33.61-34.93l-124.9-108c-2.9-2.52-6-5.11-9.69-6s-8.31.43-9.8,4a312.21,312.21,0,0,1,51.37,57.93,58.08,58.08,0,0,0,22,19.1ZM510.22,1098l-4.47-108.22c-1-23.79-1.57-49.19,10.92-69.46,3-4.87,6.8-9.6,7.44-15.29,1.09-9.82-7.44-17.77-15.18-23.91A5031.93,5031.93,0,0,0,41.61,552.31c-7.7-4.79-21.87-6.49-22.09,2.58-5.24,1.83-5.06-7.88-1.27-11.92a88.06,88.06,0,0,1,65.39-27.41,96.51,96.51,0,0,0-36.21,25.86,99.32,99.32,0,0,1,65.62,34.33c12,14.16,27.7,24.54,43.15,34.8Q341.09,733.34,514.67,872.11c15.18,12.14,31.87,28.16,28.93,47.37-10.82,70.85,4,144.18,34.45,209.08S653.77,1250.47,704.57,1301c-54.89-34.18-91.79-90.26-126.54-144.79-25.54-40.08-51.84-83.81-49-131.26q-3.63,6-7.25,12-.9-7.47-1.81-15c-10.6,18.32,1.94,40.91,14.11,58.23L520.2,1086a12.19,12.19,0,0,1-.5,14.68l-3-11.31-6.45,8.6Zm5.66-22.29c1.51.06.32-2.84-1.07-2.22s-1.53,2.49-1.47,4l.24,5.13a5.56,5.56,0,0,0,2.41-6.71l-.11-.21Zm6.87,7.62c1.57-.45.48-3.45-1-2.79a1.75,1.75,0,0,0,1.09,2.65l-.08.14Zm-7.94-17.13a1.45,1.45,0,0,0,2.3.68c-.47-.87-1-1.73-1.42-2.59-.91-.54-1.74,1.22-.94,1.92Zm813.37-338.67c35.31,27.83,57.06,69,76.66,109.49,1.49,3.08,3.19,6.37,6.27,7.86s7.77-.25,7.76-3.67a7.55,7.55,0,0,0-.61-2.55,325,325,0,0,0-62.7-104.16c-8.37-9.35-17.4-18.35-23.31-29.42,2.92-2.4,7.19.18,10,2.73C1401,761.52,1439,837.26,1447.16,916.43a458.09,458.09,0,0,1,2,49.43c-.2,32.52-2.59,65.46-13,96.26a200.48,200.48,0,0,1-14.41,32.53c-2.43,4.39-5,8.75-8.67,12.21-9.89,9.48-27,10.05-37.52,1.26-9.2-7.7-12.49-20.21-15.27-31.89Q1323,919.66,1287.42,762.71c-1.75-7.73-3.51-15.54-3.63-23.47-.07-4.84.45-9.87-1.34-14.37-1.66-4.19-5.2-7.55-6.19-12-1.31-5.88,2.52-11.94,7.63-15.12s11.26-4.14,17.22-5c2.8-.41,6.14-.63,7.94,1.55s1,5.23.91,8c-.43,10.79,9.74,18.52,18.22,25.21Zm-7.31,102.6,2.87,1.48c11.51,58.75,25.66,116.95,39.8,175.12q8.79,36.16,17.57,72.33c2,8.12,4.54,17.07,11.67,21.41,6.74-8.9,8.94-20.36,10.36-31.44,10.6-82.81-13.28-169.51-64.78-235.22-2.27-2.9-4.76-5.88-8.22-7.15s-8.1,0-9.27,3.47ZM1300.4,705.79a6.15,6.15,0,0,0-1.3-5.17,6.33,6.33,0,0,0-6.48,3.19c-1.12,2.32,0,5.59,2.48,6.34s5.38-1.85,4.57-4.3l.73-.06Zm124.34,174.15-.36,5.6c1.16.94,3-.51,3-2s-1.15-2.71-2.19-3.78l-.41.19ZM899.63,1488.85,921,1483l-28.74.47c.81-2.58,1.26-6.09-1.14-7.34a5.39,5.39,0,0,0-2.67,3.88l-8.65-9.09a449.48,449.48,0,0,0,73.48-7.24l-26.8-2.91a4.66,4.66,0,0,1-3-1.06c-2.38-2.51,2.4-5.54,5.86-5.72q93.79-4.83,187.76-2.4a42.32,42.32,0,0,0-5.94,28.77c.92,5.92,3,12.31.23,17.6-3.62,6.82-13,7.52-20.67,7.33l-142-3.34c2.35-1.91-1.5-5.06-4.49-5.57l-44.64-7.56Zm56.42-14.44a33.8,33.8,0,0,0-17.57-.67c-1.49.34-3.22,1.07-3.47,2.58a140.15,140.15,0,0,0,27.17-.27,4.62,4.62,0,0,0-6.13-1.64Zm18.61-1.2c-.06.69-.12,1.38-.17,2.07,5,2.24,11.9,4,15-.47a4.74,4.74,0,0,1,5.11-1.8c.11-1.46-1.52-2.54-3-2.51a10.76,10.76,0,0,0-4.11,1.44,19.87,19.87,0,0,1-12.87,1.27Zm62.76-19-15.84,1.2a14.23,14.23,0,0,0,15.84-1.2Zm-119.28,23.3a5.77,5.77,0,0,0-7.5.13,12,12,0,0,0,11.25,1,3.08,3.08,0,0,0-3.48-1.79l-.27.7Zm108.2-2.63c1.74.5,4.37.44,4.51-1.36a18.51,18.51,0,0,0-9.32.13,3.29,3.29,0,0,0,4.53,1.16l.28.07Zm-33.55-19.61a6.29,6.29,0,0,0-5.7-.78,8.65,8.65,0,0,0,4.66,2.39,2.13,2.13,0,0,0,2.22-.61c.43-.69-.55-1.81-1.11-1.22l-.07.22Zm-23.52,8.27a1.64,1.64,0,0,0-2.91,0,6.4,6.4,0,0,1,2.39,3.52c1.61.45,1.87-2.46.62-3.58l-.1,0Zm-5,10c-1.47,1-.2,3.84,1.51,3.41,1.22-1.08.13-3.55-1.49-3.39l0,0Zm31.31,0,2.53,1.55a5.57,5.57,0,0,0,.42-3.48,2.87,2.87,0,0,0-3.13,2l.18,0Zm-26.21,1a1.22,1.22,0,0,0,.49,2.24c1.41.09.77-2.83-.47-2.15l0-.09ZM1299,1369.15c3.39-3.05,5.69-7.09,8.68-10.53s7.12-6.42,11.66-6.11,8.66,5.43,6.58,9.48a11.34,11.34,0,0,0-6.13,14.23,312.37,312.37,0,0,1,17.4,59.62c1,5.16,2.11,10.87,6.32,14s12.16.51,11.43-4.69q-1.53-11-3.07-21.92c4.72.14,7.21,5.91,6.88,10.62s-2.29,9.34-1.57,14,4,8.73,3.87,13.41c-.22,7.82-9.18,11.9-16.66,14.18-4.76,1.44-9.85,2.89-14.61,1.47-3.49-1-6.35-3.48-9.1-5.86L1295.22,1449c-5.74-5-11.49-10-17.09-15.14q-10.23-9.43-19.77-19.59c-4.09-4.36-8.2-9-10-14.71s-.7-12.76,4.13-16.29c1.44,3.26,3,6.71,6,8.62s7.85,1.31,9.11-2c4.56-12,21.8-12.12,31.34-20.68Zm-202.26,77.34-126-.4c1.71-1.3,1.16-4.22-.52-5.57s-4-1.56-6.1-1.72l-42-3.12c1.86.15,2.64-2.72,1.44-4.15s-3.26-1.71-5.13-1.88l-27.2-2.49c.71-3-2.76-5.14-5.64-6.21-29.83-11.08-62-18.77-86.4-39.25-8.84-7.44-20-17.1-30.29-11.91L751.93,1351c-1.85-2-3.36-5.94-.79-7a4.34,4.34,0,0,1,2.57.07c23.49,5.65,44.55,18.37,66.59,28.27,33.67,15.13,69.84,23.75,105.76,32.28,11.39,2.71,22.78,5.42,34.29,7.54,51.94,9.59,105.25,7.17,158,4.73,6.58-.31,11.72,7,10.7,13.55s-6.62,11.54-12.81,13.81-12.93,2.27-19.52,2.25ZM377.24,664.3c1.72-1,3.25-2.67,5.25-2.81s3.91,2.75,2.19,3.81c-3.29,2-.24,7,2.82,9.34l20.44,15.68,2.48-1.52,8.82,10.08c1.31-.66,2.86,0,4.18.59L445.67,710c9.18,4.33,18.44,8.71,26.35,15.06-1.43,3.86-7.41,2.12-10.24-.87s-6.27-7-10.14-5.61c-7.93,2.87-13.7-10.59-22.1-9.9-12.15,1-20.4-13.3-32.4-15.45-3.71-.66-8.5-.69-9.9-4.19-.9-2.24-3.21-3.53-5.35-4.65L309.5,646.5c-14.89-7.79-30-15.64-46.28-19.63-6.78-1.66-14-2.73-19.71-6.68-5.42-3.71-12.67-1.9-19.22-1.36-16.31,1.35-31.9-6.13-46.56-13.41L135.8,584.58c-5-2.46-11.4-4.76-15.53-1.09,1.41-3.54-1.91-7-3.93-10.21s-1-9.32,2.72-8.53q.52,3.18,1.06,6.36c5.8-3.71,13.48-2.42,19.83.24s12.25,6.57,19,7.95c8.45,1.74,17.13-.69,25.75-1.14,22.93-1.2,44,11.46,63.92,22.83,9.38,5.35,19,10.55,29.4,13.39,5.85,1.6,11.23,4.52,16.56,7.42l44.77,24.35c4.33,2.35,8.69,4.73,12.35,8,3.3,3,9.45,6.14,10.94,2,.06,6.76,8.82,11.65,14.61,8.15Zm1206.4,1240.25,6.74-13.21q1.11,8.13,2.21,16.28l-5.07,4.09,10.51,17.57c2.16,3.6,4.37,7.36,4.75,11.54s-1.63,8.9-5.61,10.22c-6.83,2.27-12.14-5.9-15-12.48-15.33-34.8-40.61-64.1-65.52-92.84l-114-131.5c-2.75-3.18-5.63-6.61-6.22-10.77-11.86-1-15-17-23.5-25.28a555.75,555.75,0,0,1-44.25-48.55,3.82,3.82,0,0,1-1.19-2.85c.47-2.76,4.74-1.27,6.64.79q17,18.38,33.94,36.76c6.15,6.66,12.33,13.36,17.25,21,3.09,4.77,6,10.18,11.15,12.57,7.08,3.28,12.65,9.07,18,14.73q88,92.92,169.2,192ZM559.54,1215.1a80.93,80.93,0,0,1,21.4,37c-.3-4.57,7.73-6.27,9.31-2a29.22,29.22,0,0,0,3.37-11.72l4.38,4.76a11.58,11.58,0,0,1-5.11,9.43l1.77,6.56-5.09-1c6.3,3.37,6.45,14.06.24,17.6a8.61,8.61,0,0,0-7.85-6A132.38,132.38,0,0,1,555.67,1232c-9.5-13-19.36-27-20.54-43-.31-4.27-.08-8.85-2.4-12.44a99.74,99.74,0,0,1-13.53-74.32,6.82,6.82,0,0,0,6.63-4l6.38,5.71a22.15,22.15,0,0,1-11,14.53,10.5,10.5,0,0,0,3,6.69l-4,6.16,7.85-2.93,11.28,39.24q2.39,9.29,4.78,18.57c1.2,4.67,2.49,9.51,5.61,13.19s8.63,5.8,12.89,3.55q-1.56,6.09-3.13,12.19Zm26,39a2,2,0,0,0-2.85-1.1c-.19,1.63,2.47,2.6,3.38,1.23l-.53-.13Zm-61.81-104.27c1.34.49,1.82-1.83,1.1-3.06-1.35-.47-1.84,1.84-1.16,3.11l.06-.05Zm439.78-19.46q-12.16-11-24.36-22l-10.68-9.56-26.05-23.28c3.23-2.45,7.75.17,10.91,2.73l19.62,15.91c7.89,6.4,15.78,12.79,23.43,19.45,6.24,5.43,12.31,11,18.42,16.6q27.6,25.2,55.86,49.67a8.25,8.25,0,0,1-3.79,5.64,59.34,59.34,0,0,1-19.6-20.7c-.86,2.4-4.48,1-6.37-.67l-37.39-33.82ZM768.63,954.26l14.8,17c3.88-1.05,7.59,1.91,10.55,4.62a581.14,581.14,0,0,0,51.71,42.22l-6,4.06L802.5,990.78l-35-29.53L752.33,948.5a238.65,238.65,0,0,0-31-22.09c6.13-4.26,14.23,1,19.8,5.93,3.66,3.28,7.65,7.3,7.28,12.21,7.43-2.94,14.92,3.69,20.17,9.71Zm218.64,323.48c-11.23,3.07-22.06-5.37-30.66-13.23-90.78-82.93-181-166.62-275.72-245-2.6-2.14.09-6.83,3.45-7.09s6.3,2.07,8.85,4.27q129.48,111.9,255.22,228c6.48,6,13.22,12.39,15.83,20.82a5.61,5.61,0,0,1,4.34-1.81,33.67,33.67,0,0,0,18.69,14ZM676.92,132.34A4.16,4.16,0,0,0,682,134.7a3,3,0,0,0-1.69-3.4l2.52-2.53c3.34,2.34,7.85.63,11.74-.56a40.54,40.54,0,0,1,28.27,1.84c-4.31,2.44-9.66,1.13-14.54.27s-10.78-.82-13.73,3.17a4.42,4.42,0,0,1,4,2.06A70.09,70.09,0,0,1,668,138.9a73.49,73.49,0,0,0-18.39.24c-9.3,1.3-19.15-2.91-28,.33-2.13.79-5.67,1.06-5.54-1.2l2.35-2.71,21.72-3.26c2.59-.39,6.19-.1,6.59,2.49a4.38,4.38,0,0,0,3.29-1c-.22,2.16,3.22,2.16,5.16,1.18s5.29-1.27,5.35.9a24.16,24.16,0,0,1,16.35-3.48ZM497.3,742.68l-.15,3c5.57-1.83,8.52,7.86,14.32,8.71a18,18,0,0,1,13.3,9.66,26.86,26.86,0,0,0-.5,6.87,8.16,8.16,0,0,1-8.27-4.68c1.65,1.13,3.81-1.85,2.38-3.25s-4.26.2-4.09,2.19a2.28,2.28,0,0,1-1.11-2.82,7.7,7.7,0,0,1-8.32-6.72c-.17-2.11-3.14-2.22-5.25-2.26a11.82,11.82,0,0,1-7.5-2.89,1.74,1.74,0,0,1-2-2l2.2-.7c1.35-1.37-.12-4-2-4.17s-3.64,1.28-4.64,2.93a6.2,6.2,0,1,1,11.7-3.87Zm-354-224.3c2.69-3.26-1-8.89-5.18-8.47-2.12.21-5.2.93-5.62-1.16-1.56,1-3.77-.32-4.35-2.08s-.05-3.68.49-5.46a67.85,67.85,0,0,1-23.82-.57c-1.58-1.15.73-3.36,2.64-3.74a41.08,41.08,0,0,1,21.59,1.56,3.69,3.69,0,0,1,2,1.31c.73,1.16.14,2.9,1.08,3.9a3.14,3.14,0,0,0,2.18.72c3,.14,6.05-.27,8.75.93s4.51,5,2.51,7.16c4.16,1.91,8.41,3.63,12.72,5.15.22,2.6,1.44,6,4,5.62a11.61,11.61,0,0,1,10.66,4,14.35,14.35,0,0,1-17.87-4.2c-2.53-3.57-7.46-4.27-11.83-4.65Zm668,739.67a4,4,0,0,1-5.73,2.66c-.56,1.17-1.12,2.33-1.67,3.49a70.22,70.22,0,0,1-17.35-16.43c-2.24-3-6.44-3.41-10.1-4.13s-7.86-2.78-8.06-6.5a7.34,7.34,0,0,0,8.33,1.17c2.71-1.45,6.07.07,8.39,2.08s4.3,4.58,7.16,5.69c2.41.94,5.51,1,6.86,3.15a19.86,19.86,0,0,0,12.17,8.82Zm78.55-197.39c-1.26,2.28-4.75,1.16-6.86-.38A55.08,55.08,0,0,1,870.9,1048a8.09,8.09,0,0,0-3.64-2.3,33.48,33.48,0,0,1-13-9.9,4.92,4.92,0,0,1-1.24-2.47c-.19-2.06,2.22-3.58,4.27-3.31s3.73,1.72,5.27,3.1l22.06,19.76-2.7,1.79a6,6,0,0,0,6.75,4l1.22,2Zm483.26-431.07c-1.5,1.9-4.31,2.32-6.63,1.64a18.51,18.51,0,0,1-6.15-3.77l-3-2.44c-5.83-4.74-12.08-10.16-13.2-17.59,1.8-1.12,4.08.22,5.76,1.51l16,12.32a7,7,0,0,0-4.83,4.14,9,9,0,0,1,12,4.19ZM829,272.1a11.66,11.66,0,0,1,3.62,1.95,77.72,77.72,0,0,1,19,19.39,5.78,5.78,0,0,1-9.48-5.76l-10.88-5.32a35.56,35.56,0,0,0-11.14-8.12c2.77-1.46,5.88-3,8.9-2.14ZM721.18,922.56c-2.17.64-1.71-4.06-3.81-4.89a4.13,4.13,0,0,0-2.22.14,6.77,6.77,0,0,1-7.68-6.84c.12-1.52-2.13-2-3.52-1.37s-2.65,1.84-4.17,1.68c.1-2-1-3.89-1.51-5.85s0-4.57,1.92-5.15c1.55-.47,3.1.63,4.36,1.66l25,20.48a34.14,34.14,0,0,1-8.39.14Zm377-835.4c.93-1.92,3.43-2.63,5.51-2.17a14.33,14.33,0,0,1,5.52,3.11c-3.84,2.28,3.07,9.34-.28,12.28-4.27-1.48-9.44,2.34-9.27,6.86-1.24,1.92-4.25-.57-4.19-2.85s1.2-4.79,0-6.72l2.75-1.69c1-2.81-1.32-6.13,0-8.82ZM552.67,151.49a47.28,47.28,0,0,1,14.25-1.58l12.46.54c4,.16,8.09.39,11.46,2.45l-18.42,3c-2.9.47-6,.91-8.65-.46-2.22-1.17-4.87.17-7.36.38s-5.53-2.62-3.74-4.36ZM97.3,513.89c2.65-.62,4.21,3.53,2.58,5.7l-4.24-3.9c-.43,1.16-.86,2.33-1.3,3.49q-.37-3.49-.77-7c1.53.26,2-2.38.74-3.27s-3-.5-4.48-.06l-4.27,1.24c-1.57-1.33,1.08-3.41,3.11-3.72l15.13-2.31c1.77-.27,3.74-.5,5.2.54a7.32,7.32,0,0,0,8.52-.22,10.4,10.4,0,0,1-9.79,6.14c-2.15-.11-4.26-.89-6.4-.7s-4.43,1.93-4,4Zm379.06-33.8c1.11,11.12,12.94,20.43,10.14,31.25-3-.39-3.85-4.32-3.9-7.37s-.77-7-3.77-7.49c1.88.94.41,4.27-1.69,4.23s-3.62-2.08-4.27-4.08-.79-4.19-1.87-6l2.9-.89v-9.09l2.46-.56Zm137-331.37a12.25,12.25,0,0,1-5.64.21c-1.83-.51-3.48-2.19-3.28-4.08a5,5,0,0,0-1.93,2.71,83.64,83.64,0,0,1-19.86-3.23l12.38-3c3.16-.77,7.75-.66,8.24,2.56a15.67,15.67,0,0,1,12.81.2c-.91,1.53-1.81,3.07-2.72,4.61Zm812.08,526.41a8.11,8.11,0,0,1-1.58,7.62,10.72,10.72,0,0,0-4.52-9.65,19.68,19.68,0,0,1-3.55-2.46c-1-1-1.44-2.83-.48-3.91-2.44-2.79-8.63,0-9.94-3.45-.75-2,1.49-4.07,3.62-4s4,1.42,5.63,2.74l14.55,11.49-3.73,1.65ZM955.34,231.8c-.39,1.15-.78,2.31-1.18,3.46,4.15-.58,8.13,3.92,7,8L953.92,241c-1.43-.43-3.06-1-3.57-2.45-.57-1.56-.49-4.37-2.07-3.83-3.61,1.23-7.71-3.08-6.29-6.63l-3-2.61,10.71,2.17a6.38,6.38,0,0,0,5.61,4.14Zm368.78,1390.52c-1.32,1.21-3.59.58-4.71-.81a10,10,0,0,1-1.64-5,8.88,8.88,0,0,1-7.74-8c-.06-1.08-1.49-1.34-2.54-1.6a6,6,0,0,1-4-7.7,8.26,8.26,0,0,1,2.38,1.69l16.14,14.58c2,1.83,4.11,5.06,2.1,6.91ZM579.79,1204.67l-7.57,1.12c-1.55,2.34-5.14.4-7.08-1.62a1.74,1.74,0,0,1-.56-.92c-.15-1.17,1.67-1.24,2.73-1.76,2.08-1,1.18-4.23-.31-6s-3.42-4-2.42-6.08c2.82-2,6.45.9,8.67,3.54a11,11,0,0,0,2.81,9.19c1.44-1.67,4.75.58,3.73,2.53Zm-256-584.17c-2.49,2.93-7.28.66-10-2s-6.33-6-9.86-4.44c-1.4.6-2.83,1.94-4.2,1.26-2.53-1.25.86-5.91-1.23-7.82,6.49-1,12.5,3.22,17.71,7.19l7.62,5.82ZM1256.44,1609a5.36,5.36,0,0,1,4.44-3.91c.3.55.59,1.11.89,1.67a29.78,29.78,0,0,1,11,14.21c-2.93,2.74-8.64.84-9.35-3.11-.35-1.95-2.44-3-3.77-4.44s-1.16-4.67.82-4.54a2.78,2.78,0,0,0-4,.12Zm89.8-187.2a52.54,52.54,0,0,1-1.14-18.49,3.37,3.37,0,0,1,1-2.41c1.85-1.42,3.89,1.55,4.35,3.83,1.35,6.6,2.41,14.32-2.1,19.32a2.87,2.87,0,0,1-1.36,1c-1.69.42-2.44-2.84-.74-3.2ZM762.78,136.2l-11.52,1.6c-5.5.77-11.12,1.54-16.6.62a27.19,27.19,0,0,1-6.89-2.1c2.41-3.07,7-3,10.89-2.57l24.12,2.45ZM539.22,167.81c-1.39.58-3,1-4.35.3-1.08-.61-1.62-1.83-2.46-2.73s-2.5-1.36-3.2-.35c-.82-.16-1-1.38-.47-2a3.69,3.69,0,0,1,2.24-1l20.72-4.34a28.19,28.19,0,0,1-12.48,10.19Zm378.34,95.87a6.51,6.51,0,0,1,1.85-4c2.56,2.44,8.19,2.6,7.85,6.12s-6.77,4.78-5.39,7.89l-8.22-1a10.6,10.6,0,0,1,1.46-11.33l2.45,2.34Zm5.41,4.57a8.46,8.46,0,0,0-6.46-3.63l-1.39,2.55a5.16,5.16,0,0,0,8,1.1l-.14,0Zm470.48,387.32a22.86,22.86,0,0,1-7.14-15.11,9.3,9.3,0,0,1-8-1.8c-.69-1.13.22-2.71,1.48-3.13a5.37,5.37,0,0,1,3.84.54,18,18,0,0,1,9.82,19.5ZM1100.34,71.89a4.82,4.82,0,0,1-2.15,3c1.49,2.15,2.62,5.8.2,6.8-1.08-2.63-2.5-5.54-5.21-6.37s-6.1,2.59-4.19,4.69c-.25,1.48-2.68,1.48-3.48.21s-.42-2.93.13-4.33a22.38,22.38,0,0,1,6.13-8.66c.93,1.73,1.86,3.47,2.8,5.2l3.12-2,2.65,1.48ZM633,195.84l10.53-2.06c4.66-.91,10.7-1.2,12.84,3L640.94,199c-3.17.45-7.55,0-8-3.13ZM1128.07,1474a2.55,2.55,0,0,1-.31,2.33,2.08,2.08,0,0,1-1.23.5,7,7,0,0,1-7.14-3.76c2,.22,1.85-3.08.46-4.48s-3.37-3.2-2.39-4.91c2.54-1.4,5.88-.05,7.67,2.23s2.38,5.25,2.94,8.09ZM492.7,265.89l12.5-9.75a11.1,11.1,0,0,1,3.41-2.07,5.75,5.75,0,0,1,5.72,1.41c-3,4.31-10.08,3.51-13.52,7.46a43,43,0,0,0-2.6,4.22c-.93,1.37-2.44,2.59-4.08,2.36s-2.74-2.61-1.43-3.63ZM858.06,164a3,3,0,0,1,.41,4.53,6.08,6.08,0,0,0,3.73.55,3,3,0,0,0,1.13,4.1,4.66,4.66,0,0,1,5.63-2.77c-1.4,3.62-5.93,5.16-9.74,4.45s-7-3.13-10.13-5.47a22.08,22.08,0,0,1,8-2.51l.94-2.88ZM375.21,657.84a22.64,22.64,0,0,1-15-7.2A43.37,43.37,0,0,1,356,645c1.41-1.87,4.46-.46,5.9,1.38s2.84,4.28,5.18,4.38a8.83,8.83,0,0,1,8.09,7.11Zm913.87,920.7c.74,2.06.48,4.38,1.31,6.41a6.14,6.14,0,0,0,1.21,1.9c-6.14.8-8.44-9.8-14.61-10.15,3-4,10.42-2.85,12.09,1.84ZM540.64,1140.3a5.23,5.23,0,0,1,2.82-4l-3.73-5.56c.47,1.45-2.14,2.31-3,1s.26-3.1,1.71-3.55a6,6,0,0,1,4.38.74,2.46,2.46,0,0,1,3.46-2c-1.47.87,0,3,.9,4.44,2.57,4-2,10.21-6.59,8.94Zm-302-568.08c.57,1.38-1.94,2-3.08,1.07s-1.74-2.62-3.15-3.14l-9.14-3.37c2.4-2.41,6.29-2.42,9.63-1.78a9.54,9.54,0,0,1,5,2.19c1.32,1.3,1.85,3.56.72,5ZM133.12,524.4A54.12,54.12,0,0,0,122.57,527c-2.57.93-5.49,2-7.9.75s-2-6.11.73-5.71c0,3.41,5.44,5.06,7.3,2.21-.07-1.22-.15-2.45-.22-3.67a22.62,22.62,0,0,1,10.64,3.79Zm791.36-318q1.53,2.49,3.08,5c1.66-.31,4-.22,4.32,1.43.65,3.05-6.23,2.69-6.31,5.81-3.69-3.54-2.78-11.38-7.75-12.56l6.66.35ZM324.4,625.7a4.6,4.6,0,0,1,2.82-.44,18.9,18.9,0,0,1,10.45,4.32,21.36,21.36,0,0,1-7.11,2.44c-2,.32-4.32.28-5.94-1s-2-4.2-.22-5.31ZM1263,1559.75c6.29-1.13,9.68,8.18,15.93,9.48-2.77,2.27-7.1,1.54-9.91-.68s-4.46-5.57-6-8.8ZM461.67,311.55a11.93,11.93,0,0,1-1.39,9.09c-4.26-3.86-3.35-10.67-2.09-16.28,1.45-.79,3.33.48,3.79,2.07s0,3.27-.54,4.85l.23.27Zm878.2,290.2c.78,1.52-.32,3.51-1.9,4.16a6.71,6.71,0,0,1-5-.38,15.06,15.06,0,0,1-7.44-6.8l10.14,1.08c1.6.18,3.45.51,4.2,1.94Zm-779.7,585.5c-1.94-1.16-1.57-4.06-.71-6.14s2-4.51.79-6.43a2.26,2.26,0,0,1,3.15-.17l1.17,4.33c.54,2,1.08,4.1.41,6s-3.05,3.42-4.81,2.37Zm204.24,45c4.31-4,12.37-2.27,14.72,3.1a50.21,50.21,0,0,0-10.4,0,3.24,3.24,0,0,1-4.32-3.07ZM789.79,255a17.22,17.22,0,0,1,11.63,2,12.33,12.33,0,0,1-15.39.3c.64-1.38,2.26-2,3.76-2.27Zm17,1012.11a1.84,1.84,0,0,1,1-1.23,10.6,10.6,0,0,1,13.42,2.58,13,13,0,0,1-13.25.29c-.63-.36-1.29-.92-1.21-1.64ZM711.61,197.84c-1.77-.21-3.89-1-4.12-2.72a3.71,3.71,0,0,1,.58-2.22,157.92,157.92,0,0,1,16.81,3.29,28.57,28.57,0,0,1-13.27,1.65ZM872,179.8q.15-3.47.17-6.94a45,45,0,0,0,12,7.47c.8.38.54,1.72-.25,2.12a3.68,3.68,0,0,1-2.59-.06L872,179.8Zm23.28,95.85c-.36-3.43,4.74-4.48,8-3.23,1.47.58,3.1,2.19,2.16,3.45-1.64,1.27-3.39,2.57-5.45,2.83s-4.45-1-4.66-3.05Zm239-131.18c-1.65-1.69-3.36-3.47-4.06-5.73s0-5.13,2.1-6.15l.72,6.52a5.78,5.78,0,0,1,3.11-2c1.24-.17,2.69.93,2.36,2.14l-3.11,2a2.66,2.66,0,0,1,2.14,3.12,3.07,3.07,0,0,1-3.26.08Zm190,451.25a14.35,14.35,0,0,1-12.94-2.57c-1-.79-1.88-1.94-1.56-3.14a22,22,0,0,1,14.5,5.71Zm-433.91,850a21,21,0,0,1,18.53.06,26.5,26.5,0,0,1-18.53-.06ZM297,788.9c3.94-2.25,9.72.18,10.86,4.58-1.16,2-4.27,1.94-6.2.61s-3.1-3.45-4.66-5.19Zm181.58-60.23c1.9-.41,3.45,2.19,2.56,3.93s-3.27,2.28-5.12,1.65a10,10,0,0,1-4.44-3.68l4.38-1.23c-.4-1-.81-2-1.22-3a2.48,2.48,0,0,1,3.41,1.65c.14.24.28.48.43.72ZM1315.26,1679c-.44,2.58-.87,5.17-1.31,7.75-.17,1,0,2.38,1,2.41-1.84,1.57-4.38-1.21-4.6-3.62s.11-5.36-1.9-6.7a8.54,8.54,0,0,1,6.83.16ZM291.13,601l5.57,5.53c-.46,2.08-3.54.57-5.2-.77a10,10,0,0,0-9.72-1.5c-1.3-1.59,1.21-3.71,3.25-3.58s4.21,1.16,6,.23l.06.09Zm199.37-82.6a11.39,11.39,0,0,0,1.93-5.21,9.35,9.35,0,0,1,4.16,8.85,3,3,0,0,1-.33,1.15c-.78,1.4-3,1.17-4.09,0s-1.24-2.91-1.37-4.5l-.3-.26Zm759.16,1028.46a4.21,4.21,0,0,1,1.32-3.5l8.25,11.58c-4.55-.35-9.35-3.52-9.57-8.08Zm-670.2-327.23a9.24,9.24,0,0,1-2.09-9.78,26.77,26.77,0,0,1,2.91-4.72,25.86,25.86,0,0,1-.82,14.5Zm-32.55-965a5,5,0,0,1,4.5,3.29,11.94,11.94,0,0,1-5.45,2.26c-2,.12-4.21-1.11-4.46-3.09a5,5,0,0,1,5.4-2.5v0ZM276.18,596.83a27.44,27.44,0,0,1-4.53.2c-1.3,0-2.89-.44-3.18-1.7,2.29-.8,4-2.83,6.34-3.49s5.55,1.65,4.22,3.68a3.85,3.85,0,0,1-2.85,1.31Zm556.46,681.23a8.31,8.31,0,0,1-9.79-4.74c2.16-.47,4.44-1,6.55-.28s3.9,2.91,3.24,5Zm-217.31-13.47a4.53,4.53,0,0,1-2.88,2.16,6.16,6.16,0,0,0-1.7-5.53,10.7,10.7,0,0,1,5.65-3.62l2.54,2.58a5.62,5.62,0,0,0-3.41,4.47l-.2-.06ZM813.05,264.11c1.4-1.22,3.77.84,3.18,2.6s-2.9,2.41-4.66,1.84a10.78,10.78,0,0,1-4.32-3.4l2.49-2.48a2.59,2.59,0,0,0,3,.91l.33.53Zm82.88,805.67c-1.36-.4-1-2.54.06-3.46a4.32,4.32,0,0,1,5.62.1,3.65,3.65,0,0,1-.4,5.39c-1.72,1.13-4.5,0-4.7-2.09l-.58.06ZM82.54,533.7a4.16,4.16,0,0,1-3,1.94,5.36,5.36,0,0,0-4-5c3.28-3,9.61-.24,9.72,4.19l-2.74-1.1ZM808.73,209.3l3.14-.07c1.14,2-.88,4.66-3.18,5s-4.56-.75-6.62-1.84a8.48,8.48,0,0,1,6.62-2.49c0-.21,0-.42,0-.63Zm487.65,1387.45a9.52,9.52,0,0,1-1.57-8.63c1.83,1.27,3.8,2.71,4.42,4.86s-1.06,5-3.25,4.55c.13-.26.26-.52.4-.78ZM1292.09,575.9a3.46,3.46,0,0,1,1.43,3.81l-7-.83c-1.29-.16-2.93-.64-3-1.94-.12-1.62,2.23-2.11,3.77-1.61s3.36,1.33,4.64.33l.15.24ZM908,1450.69c.79-2.22,3.28-3.47,5.63-3.53a17.93,17.93,0,0,1,6.81,1.66l1.33.52L908,1450.69ZM97.1,652.58a7,7,0,0,1,9.38,3.29A8.14,8.14,0,0,1,97,653.1l.11-.52Zm1068.58,891.31a2.11,2.11,0,0,1-2.09-2,13.13,13.13,0,0,1,9.1,1.18c-.59,3-5.61,3.73-7,1v-.2ZM426.09,271.14l-.74,4a3.07,3.07,0,0,1-4.64.45,11,11,0,0,0,4.09-9.88c1.11-.49,2.38.64,2.52,1.84a5.84,5.84,0,0,1-1.07,3.42l-.16.15Zm156.1-59.08,6.43.83a9.08,9.08,0,0,1-11.22,1.37,6.22,6.22,0,0,1,4.75-2l0-.21Zm620.32,1364.88c2.77-.41,6.14-.59,7.81,1.66a17,17,0,0,1-9.85,1.13,3,3,0,0,1-.5-2.43,3.27,3.27,0,0,1,2.49-.46l0,.1ZM420.42,307a2.71,2.71,0,1,1,3.53,2.66L420,310a2.6,2.6,0,0,1-.07-3.07l.46.05ZM562,219.43a14.6,14.6,0,0,0,5.46-1.08,7.6,7.6,0,0,1-2.34,4.6c-1.37,1.1-3.63,1.22-4.74-.14s0-4,1.77-3.65l-.15.27Zm48.32-15.66a10,10,0,0,1,5.74,2,7.49,7.49,0,0,1-9.32.16,7.31,7.31,0,0,1,3.56-2.68c0,.19,0,.37,0,.56ZM1132.57,1512c.68,0,.71,1.16.12,1.47a2.34,2.34,0,0,1-2-.22l-7.88-3.43a8.24,8.24,0,0,1,9.73,1.94,1.94,1.94,0,0,1,0,.24ZM220.4,560.16c.6,1.87,1.19,3.74,1.79,5.61A6.09,6.09,0,0,1,218,560.7l-2.51,2.2a2.62,2.62,0,1,1,4.47-2.56l.49-.18ZM466.08,295.05a13.71,13.71,0,0,1,2,8.72c-1.54-1.18-3.15-2.45-3.8-4.27s.19-4.3,2.09-4.65l-.27.2ZM1270,565.46l7.59,1.07c-1.66,3.32-7.43,3.12-8.86-.3l1.27-.77ZM915.17,1461.23a2.84,2.84,0,0,0-4.67.8l-2.49-2.42a9.61,9.61,0,0,1,10.15-.4,3.79,3.79,0,0,1-2.66,1.76l-.33.26Zm79.26-946.18c.49.05,1,.48.9,1s-.92.64-1.05.17l-4.78-5.4a2.89,2.89,0,1,1,4.43,3.32l.5.94Zm-415.8,708.67a1.55,1.55,0,0,1-.41-2.57,12.22,12.22,0,0,1,4.42,3.72,2.68,2.68,0,0,0-.9,3,3.05,3.05,0,0,1-2.56.42,3.37,3.37,0,0,1-.38-4.35l-.17-.25Zm287.61,236.55,6.4-2.2a5.56,5.56,0,0,1-5.4,4.9,2.36,2.36,0,0,1-2.15-1c-.38-.75.31-1.9,1.1-1.64l0,0Zm17-14.22c1.42-.39,3.65-.15,3.47,1.31a15.92,15.92,0,0,1-11.44-.65l7.87-1.18c0,.18.07.35.1.52Zm333.27,140.75c1.52.1,3,1.94,2,3.09a6.93,6.93,0,0,1-6.63-4.55,3.07,3.07,0,0,1,4.4,1.6l.21-.14ZM820,203.39l1.61-1.08a16.17,16.17,0,0,0,8.19,4,6.88,6.88,0,0,1-9.15-2.69l-.65-.21Zm-457,156.4c-.9,1.52-3,3.16-4.08,1.76a4.06,4.06,0,0,0,1.54-4.94,3.82,3.82,0,0,1,4.75,1.22l-2,2-.19,0ZM898.85,189.63l-4-.6c.42-3.08,5.49-4,6.92-1.21l-2.87,2-.1-.16ZM114,552.54a2.64,2.64,0,0,1-.16-4.62,4.3,4.3,0,0,1,3.74,4.33,6.1,6.1,0,0,1-3.65.4l.07-.11Zm441.89-366.6a7.81,7.81,0,0,1,6.69-.33C563,187,561,188,559.5,187.82s-3.27-.59-4.27.53c-1-.44-.46-2.38.64-2.21v-.2ZM753.1,196.08c-1.12,2.55-5.54,2.44-6.53-.16a4.53,4.53,0,0,1,6.68.31l-.15-.15ZM204,551.19a4.53,4.53,0,0,1-6.14-2.1,19.77,19.77,0,0,1,6.64-.41,1.58,1.58,0,0,1-.54,2.42l0,.09Zm623.7-397.06a8.15,8.15,0,0,1-8.63-1.57,21.08,21.08,0,0,1,8.41.17c.07.47.14.93.22,1.4ZM1138.11,1485l-2.56-1.34c-.2-1.64-.13-3.74,1.4-4.36a4,4,0,0,1,1.29,6.06l-.13-.36Zm1.06-1444.17a3.32,3.32,0,0,1,2.88-4.64,8.06,8.06,0,0,1,.5,4.42,2.6,2.6,0,0,1-3.07.08l-.31.14Zm-4.78,82.29a2.76,2.76,0,0,1-3.79,1.22c.67-1.94,1.35-3.89,2-5.83a3.88,3.88,0,0,1,1.74,4.62ZM1028.84,525.79a3.11,3.11,0,0,1-1.67-4.35l4.65,1.53a3.55,3.55,0,0,1-3,3.12l.07-.3Zm78.43-419.72a4.54,4.54,0,0,1-4.24,1.83l4.94-6.15,1.32,2.33-2,2ZM855.89,329.2a2.49,2.49,0,0,1,3.15-3c.47.81,1,1.62,1.43,2.43a2.79,2.79,0,0,1-4.46.55l-.12,0ZM440.7,272.79a3.36,3.36,0,0,1,2.85,4.76c-2.23.77-4.43-2.6-2.83-4.33l0-.43Zm816.85,1327.36c1.6.75-.4,3.43-2,2.72s-2-2.77-2.22-4.52a3.2,3.2,0,0,1,3.78,2.19l.45-.39ZM440.6,303.49a2.06,2.06,0,0,1,.76-3.52,6.67,6.67,0,0,1,.79,7c-1.47.18-1.71-2.06-1.31-3.48l-.24,0Zm10.09,21.14a2.93,2.93,0,0,1-3.52,3.46c-1.46-1.95,1.69-5,3.62-3.52l-.1.06Zm-67-4.76c-2,.47-4.71.67-5.65-1.19a6.59,6.59,0,0,1,3.8-1.31c1.35.13,2.65,1.54,2.11,2.79l-.26-.29ZM873,1473.82a8.74,8.74,0,0,1-5.49,1c.22-2.9,5.12-3.74,6.3-1.08l-.81.06ZM852,1026a2.4,2.4,0,0,1,0,3.1l-3.42-1.62c-1.07-1.7,2.54-3.29,3.37-1.46l.07,0ZM104.33,541.1a3.22,3.22,0,0,1,2.63,4.54,3.41,3.41,0,0,1-3-4.7l.37.16ZM448.16,333.22a2.09,2.09,0,0,1,1-2.91l2.54,1.33a3.62,3.62,0,0,1-.51,2.72l-3.1-.82,0-.32Zm-266.71,202a3.52,3.52,0,0,1-3.35-3.28c1.26-.39,2.74-.75,3.82,0s.67,3-.63,2.77l.16.5ZM749.81,273.36a1.54,1.54,0,0,1,.51,2.5,11.18,11.18,0,0,1-4.57-1.64c-.11-1.7,2.53-1.72,4.1-1.05l0,.19ZM848,166c-.86-.84-1.71-1.69-2.56-2.54,1.12-1.82,4.54-1,4.76,1.08a2.42,2.42,0,0,1-2.22,1.41l0,.05ZM137.65,541.12c-.29-1.11.28-2.84,1.35-2.42,1.71,2-.69,5.62-3.16,4.83l1.54-2.54.27.13Zm271.5-78.66c.13,2.22-3.2,3.63-4.71,2a2.62,2.62,0,0,1,4-1.93l.67-.07ZM797.05,144.1a3.12,3.12,0,0,1,5.16.52,6.39,6.39,0,0,0-5.59,2.2,2.58,2.58,0,0,1,0-3l.46.33ZM602,1291.57a3.87,3.87,0,0,1-4.26.92c-.24-2.62,4.58-3.41,5.18-.84l-.92-.08ZM415.4,299.37c1.25-1.82,4.79,0,4.07,2.06a2.46,2.46,0,0,1-3.83-2l-.24-.05ZM620.42,604a4.37,4.37,0,0,1-4.6-2.45,3.43,3.43,0,0,1,5,2.43l-.44,0Zm720.36,775.86a2,2,0,0,1-2.86,1.08c-.32-1.69.91-3.82,2.62-3.58l.54,2.52-.3,0ZM554.51,1150.27a4.29,4.29,0,0,1-2.13-2.86,2.09,2.09,0,1,1,2.26,3.36l-.13-.5ZM191.35,549.71a2,2,0,1,1,3.56-.54,5,5,0,0,1-3.47.45l-.09.09ZM483.45,736a3.71,3.71,0,0,1-.94,5,4,4,0,0,1,.76-5.29l.18.3Zm670.61,788.65,2.75,1.38a3.71,3.71,0,0,1-2.69,2.26c-1.57-.5-1.5-3.25.09-3.67l-.15,0ZM1496,1857.26a3,3,0,0,1-.4,2.5,6.43,6.43,0,0,1-2.54-3.45,1.76,1.76,0,0,1,3,.92l-.07,0ZM1139.07,601.11c.83-.66,1.62,1.1,1,1.92a9.24,9.24,0,0,1-4.51-.49A3.47,3.47,0,0,1,1139,601l0,.07ZM790.61,145.94c1.1-.39,2.75.29,2.48,1.43a5.87,5.87,0,0,1-5,0,4,4,0,0,1,2.52-1.49v.07Zm-311.68,76.9a2.21,2.21,0,0,1-2.79.19,3.12,3.12,0,0,1,3.3-2.74,1.71,1.71,0,0,1-.52,2.54Zm670.1-83c.93-.14,1.33,1.38.67,2.06a3.49,3.49,0,0,1-2.68.66,2,2,0,0,1,2.1-2.73Zm-38.72,15.57a2,2,0,0,1,.57-3.41,3.47,3.47,0,0,1,1.58,2.5c0,1-1.66,1.72-2.07.78l-.08.13ZM598.82,1236a2.22,2.22,0,0,1-3.07-2.12,3.58,3.58,0,0,1,2.53-.49,3.32,3.32,0,0,1,.46,2.51l.08.1Zm-12.62-16.66a2.92,2.92,0,0,1,2.5.42,3.73,3.73,0,0,1-.44,2.61c-1.54-.06-3.08-1.91-2.07-3.08v0ZM927.46,1447a2.23,2.23,0,0,1,1.13-3,3.27,3.27,0,0,1,1.42,2.42,1.6,1.6,0,0,1-2.5.57Zm-558.32-623a3.49,3.49,0,0,1,4.15,2.23,3.43,3.43,0,0,1-4.19-2.06l0-.17Zm197.32,391.19c.44,0,.38.79-.06.84s-.78-.37-1-.77a4.06,4.06,0,0,1,.35-3.92,2.14,2.14,0,0,1,.83,3.55l-.16.3ZM756.94,276.21a2.58,2.58,0,0,1,.75-2.77l2.23,2.78a2.55,2.55,0,0,1-3.09.12l.11-.13ZM1596,1916.49l-2.16-1.65a1.64,1.64,0,1,1,2.56,1.57l-.4.08ZM85.37,534.75c.64-.81,2.06.33,1.75,1.32s-1.45,1.42-2.47,1.58a2.15,2.15,0,0,1,.69-2.85l0,0ZM1358,1722.43a1.54,1.54,0,0,1,.54,2.49c-1-.23-2.21-.64-2.47-1.65s1.59-1.83,1.76-.8l.17,0Zm-125.14-116.31,1.72-1.23a4.47,4.47,0,0,1,1.61,2.66,2,2,0,0,1-2.87-1.09l-.46-.34ZM1339.82,1698c1.34-.85,2.94,1.74,1.58,2.56-1,.63-1.64-1.24-1.38-2.4l-.2-.16ZM964,1443.77c.85,1.34-1.74,2.94-2.56,1.58-.64-1,1.24-1.64,2.4-1.37l.16-.21Zm-325-847.34a2.08,2.08,0,0,1-2.89,1.13,2,2,0,0,1,1-2.13,1.29,1.29,0,0,1,1.78,1.12l.1-.12ZM782.12,199.8a1.46,1.46,0,1,1,1.43,2.38,3.55,3.55,0,0,1-1.48-2.46l0,.08Zm508,1437.34c-1.13.25-2.94-.35-2.34-1.33.71-1.4,3.34.23,2.4,1.48l-.06-.15Zm7.6,25.84a1.46,1.46,0,1,1,1.42,2.38,3.55,3.55,0,0,1-1.47-2.47l0,.09ZM469.78,224.86c.52-1.15,1.05-2.31,1.57-3.47a3.92,3.92,0,0,1,.66,2.74c-.24.94-1.6,1.54-2.19.78l0,0ZM413.81,444c-.78-1.41,1.88-2.92,2.69-1.53a1.54,1.54,0,0,1-2.38,1.24l-.31.29Zm-320,89.47a2.11,2.11,0,0,1-1.06,2.93,1.68,1.68,0,0,1,1-2.86l0-.07Zm904.65-20.75c-1,1-1.82-1.93-.41-2.19a1.47,1.47,0,0,1,.5,2.4l-.09-.21Zm-541.6-66.25a1.41,1.41,0,1,0,0-.09v.09Zm736.74,1122.62-3.21-.86,3.14-.86c0,.57,0,1.15.07,1.72Zm-760-1179c-1.35.14-2.69-1.78-1.55-2.53,1.07-.54,1.66,1.32,1.44,2.51l.11,0ZM932.31,215.92c.19-.87,1.73-.39,1.73.5s-.83,1.52-1.62,1.92l-.45-2.48.34.06ZM1153.65,1533c-1.35.13-2.67-1.8-1.53-2.53,1.08-.52,1.65,1.31,1.44,2.49l.09,0ZM293.2,775.22a2.22,2.22,0,0,1-.19-2.8c1.5,0,1.69,2.79.2,3v-.21ZM487.45,948.57a2.07,2.07,0,0,1,1.1,2.9c-1.34.52-1.79-1.83-1.14-3.12l0,.22Zm-414.83-410a3.27,3.27,0,0,1-2.5-.36c.48-.71,1.11-1.49,2-1.47s1.28,1.54.43,1.66l.1.17ZM478.51,283.76a2.13,2.13,0,0,1-1.06,2.93,1.68,1.68,0,0,1,1-2.87l.05-.06ZM593.19,1230.4c1.3-.5,1.85,1.76,1.15,3a2.22,2.22,0,0,1-1.18-3l0,0ZM862.61,331.66a1.22,1.22,0,0,1,.5-2.24c1.41-.09.77,2.82-.47,2.15l0,.09Zm35.88-84c.65-.58,1.59.7,1.07,1.39a2.16,2.16,0,0,1-2.4.41,1.69,1.69,0,0,1,1.25-1.8Z"/></g></g></svg>